<?xml version="1.0" encoding="UTF-8"?>
<svg width="317" height="352" version="1.1" viewBox="-1 -1 317 352" xmlns="http://www.w3.org/2000/svg">
 <path transform="matrix(1.4883 0 0 1.4883 -194.5 -117)" d="m237 272c5.616-0.012 12.745-0.59 16.5 3.5 3.952 4.428 2.876 11.626 2.5 17.5-0.413 6.484-0.302 14.344-4.75 19.25-3.191 3.536-9.472 1.69-14.25 1.75-4.696 0.059-10.892 1.825-14-1.75-4.512-4.847-4.533-12.585-5-19.25-0.417-5.943-1.655-13.294 2.25-17.75 3.88-4.149 11.155-3.239 16.75-3.25z" fill="#995900" stroke-linecap="round"/>
 <path transform="matrix(4.54 0 0 4.54 -917.8 -654.7)" d="m235.2 144.4c4.052-0.022 7.296 3.654 10.35 6.4 3.291 2.96 7.862 6.024 8.35 10.35 0.132 2.871-8.182 2.339-7.05 4.8 3.328 7.215 16.286 10.489 16.7 17.05 0.275 4.422-16.85 0.738-15.4 4.9 2.742 7.863 26.324 14.212 23.25 19.35-4.534 6.251-22.417 3.448-33.75 3.6-11.666 0.282-29.716 4.009-35.05-2.3-3.649-5.001 20.142-13.154 21.6-20.65 0.855-4.399-17.116 1.243-17.35-3.25-0.317-6.197 13.043-10.59 16.05-18.05 1.036-2.57-7.013-1.934-6.65-4.55 0.541-4.735 5.117-8.068 8.6-11.25 2.973-2.734 6.201-6.376 10.35-6.4z" fill="#093" stroke-linecap="round"/>
</svg>
