<?xml version="1.0" encoding="UTF-8"?>
<svg enable-background="new 0 0 4251.968 5669.291" viewBox="0 0 4251.968 5669.291" xmlns="http://www.w3.org/2000/svg">
 <path d="m1738.8 3074-31.104 8.561 1.418 10.326 211.34-52.229s19.46-13.142 10.214-23.468c-9.243-10.324 37.85-15.361-4.555-44.378-42.4-29.017 6.021-6.947 6.021-6.947s14.394-30.513-16.215-25.896-57.797 6.788-63.318 11.723c-5.522 4.934-12.515 20.813-12.515 20.813s-1.891-21.156-21.936-17.039-27.949 5.629-27.949 5.629-11.465-1.599-0.874-18.146c10.592-16.544 10.704-33.548-8.484-25.793-19.194 7.753-7.118 15.432-8.166 13.798s-17.162 17.219-20.045 15.51-19.682-17.265-32.149-13.468-30.458 8.701-32.046 20.406c-1.592 11.709-14.062-1.164-12.549 2.294 1.512 3.45-5.556-13.18-13.448-7.841-7.896 5.338-4.339 11.032 4.417 12.574 8.754 1.537 20.654 13.188 27.545 10.478s-9.565 15.738-0.821 25.218 13.999 6.555 16.643 14.425 7.858 36.928 15.973 40.235c8.111 3.309 2.733 10.7 7.045 11.496 4.308 0.794 5.56 11.719 5.56 11.719zm15.034-13.659 1.823 8.223 113.05-27.488-2.347-8.092-112.52 27.357zm129.14-32.443 38.686-10.728s4.374 6.17-3.488 11.547c-7.863 5.373-31.986 8.455-31.986 8.455l-3.212-9.274zm12.489-17.009 14.733-3.364s-4.087-8.169-8.897-11.346c-4.812-3.175-6.007 17.956-5.836 14.71zm14.059-20.294c-0.623 5.047 4.802 11.31 14.979 10.406s8.155-6.334 8.143-8.874c-0.015-2.546-6.596-10.85-13.329-9.766-6.735 1.082-9.171 3.188-9.793 8.234z" fill="#1f1a17" stroke="#1f1a17" stroke-width=".0762"/>
 <path d="m2044.571,2728.59-1.333-2.857-9.37,11.319 6.844-14.607-3.616-.302c-16.305,19.459-24.609,26.713-34.367,49.288l.297.106 7.462-7.95 .096.205-9.179,15.45 .3.11 10.129-9.688c-3.427,17.879 19.527,42.261 30.435,53.58 13.406,13.908-41.584,37.007-46.729,59.514l-6.043.558-.031,3.046 4.77-.024c1.701,6.631 4.852,15.235 9.505,20.392 10.296,11.408 24.135,11.837 25.369,14.487 5.743,12.32-1.749,57.266.004,59.117l9.086-27.364c-2.518-18.184-4.723-40.492-.441-42.487 10.051-4.685 28.674,54.692 35.847,51.348-28.671-62.572-23.893-138.411 60.471-131.741l20.225,33.269 1.919-.151-18.902-37.354c-14.298-2.342-28.853-1.199-35.987-16.492-.139-.297 28.57,2.133 32.958,2.013l31.27,15.956 .408-.189-31.132-20.989c-7.039-.192-36.856-1.434-37.932-4.164-8.026-20.362-76.438-27.592-63.97-45.64l11.637-27.759zm178.159,31.463 1.821,1.063c-4.739,28.319 1.152,22.706 12.215,46.433 .38.815-19.141,53.312-21.041,62.431l2.428-.639c3.756-11.999 27.275-78.356 34.543-62.764 4.718,10.122-3.052,59.155 2.689,59.561 7.828-80.233 53.398-127.667 125.766-78.479l-6.439,33.577 1.685.949 9.116-35.817c-6.57-6.727-19.637-16.039-23.486-24.3-12.653-27.146 31.795,8.836 38.213,12.223l2.531,21.41 .979-24.535c-9.416-6.887-33.609-18.833-38.367-29.035 4.121-23.231-44.476-62.787-39.935-70.243l43.566-2.932-.381-8.265c-20.347-6.241-48.823-6.89-63.081-22.969l-.201.094 2.331,10.332-12.221-2.248 8.525,4.965c-37.142,44.366 33.486,108.032-60.939,100.39-5.334-.426-12.093,3.753-15.701,7.318l-3.399-1.553c-.33,1.045-.736,2.058-1.217,3.033z" fill="#1f1a17"/>
 <path d="m2014 2747.5c10.085 9.997-5.38-3.344-9.217-14.593s-19.396-2.991-19.396-2.991m18.471 0.604s-2.152-6.375 3.853-11.636m3.407 34.827s-9.817-10.027-25.832-2.991c-16.016 7.034-19.135 13.216-20.24 15.445m26.782-39.115s-6.338-3.49-1.503-8.751m17.216 19.468s8.078-2.91 4.74-8.225m-26.646 21.013s-13.033-0.373-13.459-10.479c-0.422-10.108 0.048-7.945 0.048-7.945m35.248 8.245s-10.733 4.571-15.619-1.313m-2.721 10.72s-14.481 14.914-7.057 17.039m-9.31-22.727s-5.566-6.421-10.403-1.164m7.401 15.88s-3.405-9.148-7.889-4.053m18.364 7.486s-1.757 8.829-5.702 6.803m27.174-53.906c0.466-4.514 4.429 5.239 4.429 5.239s9.967-10.236 10.695-4.986" fill="none" stroke="#1f1a17" stroke-linecap="round" stroke-linejoin="round" stroke-width="3"/>
 <path transform="matrix(-.5314 .8471 -.8471 -.5314 5592.2 2626.1)" d="m2107.4 2859.7a37.627 19.991 0 1 0 -75.254 0 37.627 19.991 0 1 0 75.254 0" fill="#1f1a17"/>
 <path d="m2019 2754.7c1.467-9.636 7.531-18.122 13.538-18.955s9.686 6.3 8.216 15.935c-1.466 9.634-7.528 18.12-13.538 18.955s-9.685-6.302-8.216-15.935z" fill="#1f1a17"/>
 <path d="m2306.3 2647.2c10.085 9.998-5.38-3.346-9.214-14.593-3.838-11.248-19.399-2.989-19.399-2.989m18.473 0.599s-2.153-6.372 3.853-11.632m3.406 34.827s-9.817-10.027-25.83-2.995c-16.019 7.038-19.137 13.217-20.243 15.447m26.783-39.114s-6.339-3.489-1.505-8.75m17.219 19.468s8.077-2.912 4.742-8.228m-26.648 21.015s-13.036-0.374-13.46-10.479c-0.423-10.109 0.049-7.949 0.049-7.949m35.247 8.249s-10.73 4.57-15.616-1.312m-2.724 10.72s-14.48 14.914-7.057 17.038m-9.309-22.726s-5.571-6.421-10.405-1.164m7.402 15.881s-3.405-9.15-7.889-4.053m18.364 7.484s-1.757 8.827-5.705 6.801m27.176-53.904c0.469-4.517 4.429 5.236 4.429 5.236s9.969-10.231 10.697-4.985" fill="none" stroke="#1f1a17" stroke-linecap="round" stroke-linejoin="round" stroke-width="3"/>
 <path d="m2345.5 2757.4c6.113 11.703-6.365 30.345-27.872 41.642s-43.901 10.967-50.018-0.735c-6.113-11.702 6.366-30.345 27.873-41.642s43.905-10.967 50.017 0.735z" fill="#1f1a17"/>
 <path d="m2335.3 2660.9c9.957-3.136 18.987-1.716 20.173 3.17s-5.928 11.39-15.885 14.529-18.991 1.716-20.176-3.171c-1.185-4.888 5.928-11.391 15.888-14.528z" fill="#1f1a17"/>
 <path d="m2193.965,2728.832-1.53-3.28-10.764,13.001 7.861-16.78-4.154-.347c-18.731,22.352-28.27,30.69-39.475,56.617l.344.128 8.571-9.133 .109.233-10.548,17.75 .351.126 11.635-11.129c-3.938,20.542 22.434,48.55 34.962,61.554 15.402,15.977-47.775,42.516-53.679,68.366l-6.944.644-.036,3.502 5.479-.027c1.955,7.619 5.574,17.5 10.919,23.425 11.825,13.104 27.724,13.598 29.144,16.644 6.598,14.154-2.011,65.788.006,67.918l10.441-31.438c-2.896-20.892-5.431-46.517-.512-48.811 11.547-5.382 32.941,62.831 41.181,58.987-32.936-71.884-27.447-159.01 69.474-151.345l23.231,38.219 2.201-.17-21.717-42.916c-16.424-2.691-33.145-1.374-41.336-18.942-.158-.344 32.82,2.449 37.864,2.31l35.92,18.334 .469-.219-35.771-24.113c-8.087-.221-42.335-1.648-43.572-4.781-9.22-23.393-87.819-31.705-73.485-52.432l13.361-31.895zm204.669,36.142 2.092,1.221c-5.44,32.534 1.331,26.085 14.033,53.345 .435.939-21.989,61.243-24.173,71.722l2.793-.736c4.315-13.788 31.337-90.018 39.68-72.104 5.428,11.631-3.504,67.957 3.091,68.425 8.986-92.172 61.345-146.665 144.474-90.159l-7.399,38.573 1.935,1.091 10.475-41.144c-7.548-7.73-22.559-18.428-26.98-27.916-14.538-31.188 36.529,10.152 43.897,14.043l2.908,24.596 1.125-28.187c-10.816-7.913-38.604-21.638-44.068-33.357 4.728-26.687-51.098-72.127-45.884-80.697l50.048-3.369-.436-9.493c-23.378-7.17-56.09-7.915-72.469-26.385l-.23.106 2.677,11.865-14.038-2.58 9.792,5.702c-42.67,50.972 38.47,124.108-70.007,115.327-6.125-.49-13.889,4.313-18.038,8.41l-3.904-1.786c-.373,1.205-.84,2.367-1.394,3.487z" fill="#1f1a17"/>
 <path d="m2158.8 2750.5c11.585 11.483-6.182-3.841-10.59-16.765-4.404-12.924-22.284-3.434-22.284-3.434m21.221 0.69s-2.47-7.322 4.429-13.365m3.912 40.011s-11.277-11.521-29.673-3.439-21.983 15.179-23.25 17.746m30.764-44.937s-7.28-4.008-1.728-10.051m19.78 22.366s9.277-3.348 5.446-9.455m-30.611 24.144s-14.978-0.428-15.465-12.039 0.055-9.13 0.055-9.13m40.496 9.475s-12.329 5.252-17.943-1.509m-3.125 12.315s-16.638 17.136-8.112 19.576m-10.693-26.11s-6.397-7.379-11.952-1.336m8.504 18.244s-3.913-10.512-9.063-4.657m21.097 8.598s-2.021 10.14-6.553 7.818m31.219-61.93c0.535-5.186 5.086 6.016 5.086 6.016s11.453-11.755 12.29-5.726" fill="none" stroke="#1f1a17" stroke-linecap="round" stroke-linejoin="round" stroke-width="3"/>
 <path transform="matrix(-.5314 .8471 -.8471 -.5314 5843.4 2526.9)" d="m2266 2879.6a43.228 22.962 0 1 0 -86.456 0 43.228 22.962 0 1 0 86.456 0" fill="#1f1a17"/>
 <path d="m2164.6 2758.9c1.688-11.069 8.65-20.817 15.553-21.775 6.898-0.955 11.126 7.24 9.437 18.306s-8.651 20.82-15.554 21.775c-6.899 0.96-11.127-7.237-9.436-18.306z" fill="#1f1a17"/>
 <path d="m2494.7 2635.3c11.587 11.485-6.181-3.841-10.587-16.764s-22.285-3.435-22.285-3.435m21.221 0.692s-2.471-7.322 4.429-13.367m3.911 40.009s-11.276-11.518-29.677-3.438-21.982 15.183-23.249 17.746m30.767-44.938s-7.283-4.008-1.73-10.051m19.783 22.366s9.278-3.344 5.446-9.452m-30.614 24.141s-14.974-0.425-15.461-12.039 0.055-9.125 0.055-9.125m40.492 9.471s-12.327 5.252-17.943-1.508m-3.123 12.316s-16.637 17.133-8.111 19.575m-10.694-26.109s-6.396-7.38-11.951-1.337m8.503 18.242s-3.914-10.511-9.065-4.657m21.099 8.598s-2.02 10.143-6.555 7.816m31.222-61.927c0.535-5.186 5.086 6.017 5.086 6.017s11.449-11.754 12.287-5.728" fill="none" stroke="#1f1a17" stroke-linecap="round" stroke-linejoin="round" stroke-width="3"/>
 <path d="m2539.7 2761.9c7.023 13.443-7.313 34.86-32.021 47.837s-50.431 12.6-57.455-0.845c-7.023-13.443 7.311-34.861 32.019-47.837s50.436-12.6 57.457 0.845z" fill="#1f1a17"/>
 <path d="m2528 2651.1c11.44-3.604 21.814-1.975 23.177 3.642 1.361 5.614-6.808 13.087-18.248 16.69s-21.814 1.972-23.18-3.643c-1.358-5.614 6.811-13.087 18.251-16.689z" fill="#1f1a17"/>
 <path d="m1789.4 2924.5s34.275 28.583 92.109-4.87 135.74-142.56 135.74-142.56" fill="none" stroke="#1f1a17"/>
 <path d="m1815 2934.3s34.275 28.579 92.108-4.87 135.74-142.56 135.74-142.56" fill="none" stroke="#1f1a17"/>
 <path d="m1794.1 2928.5s63.268 67.133 190.23 12.785 313.85-259.01 313.85-259.01" fill="none" stroke="#1f1a17"/>
 <path d="m1784.7 2925.6s72.815 68.848 255.22 19.663c182.4-49.183 474.81-245.11 474.81-245.11" fill="none" stroke="#1f1a17"/>
 <path d="m1790.2 2939.3s60.219 69.881 189.48 21.229c129.25-48.646 325.05-244.8 325.05-244.8" fill="none" stroke="#1f1a17"/>
 <path d="m1784.3 2928.4s42.063 53.718 139.24 22.265 248.64-169.57 248.64-169.57" fill="none" stroke="#1f1a17"/>
</svg>
