<?xml version="1.0" encoding="UTF-8"?>
<svg width="512" height="512" version="1.1" viewBox="0 0 135.47 135.46" xmlns="http://www.w3.org/2000/svg">
 <text x="159.38292" y="156.19502" font-family="'Yu Gothic'" font-size="10.583px" font-weight="bold" stroke-width=".26458" style="line-height:1.25" xml:space="preserve">
      <tspan x="159.38292" y="156.19502" stroke-width=".26458"/>
   </text>
 <g transform="matrix(12.616 0 0 12.616 -18.984 -4.726)" stroke-linecap="round" stroke-linejoin="round" stroke-width=".35043">
  <path d="m3.1671 0.43705a0.17523 0.17523 0 0 0-0.00834 0.01024c0.00266-0.002898 0.00546-0.006762 0.00834-0.01024zm-0.015868 0.021252a0.17523 0.17523 0 0 0-0.01245 0.023088c0.00352-0.007728 0.00782-0.01565 0.01245-0.023088zm-0.013829 0.025793a0.17523 0.17523 0 0 0-0.013824 0.06878v10.384a0.17523 0.17523 0 0 0 0.17535 0.17535h1.5858a0.17523 0.17523 0 0 0 0.16208-0.10869c-0.026601 0.06299-0.088872 0.1071-0.16153 0.10704h-1.5858c-0.096872 6.7e-5 -0.17542-0.07844-0.17535-0.17535v-10.384c-3.47e-5 -0.023764 0.00471-0.046465 0.013272-0.067235zm1.9094 10.52a0.17523 0.17523 0 0 0 0.00917-0.02956c-0.00238 0.01014-0.0052 0.02019-0.00917 0.02956zm0.013827-8.9811v9.66e-4h1.4605c0.57579 0 1.0133 0.13801 1.337 0.40149 0.31458 0.25604 0.47692 0.64532 0.47692 1.2235 0 0.2165-0.023311 0.4071-0.06954 0.57478 0.046526-0.16809 0.070087-0.35917 0.070087-0.57643 0-0.57817-0.16234-0.96744-0.47691-1.2235-0.3237-0.26347-0.76119-0.40149-1.337-0.40149zm5.0444 2.8471c-0.04853 0.12563-0.10521 0.24581-0.17029 0.36043l-5.231e-4 9.66e-4c0.06536-0.11511 0.12216-0.23585 0.17084-0.36207zm-0.17084 0.36207c-0.24609 0.44756-0.55516 0.79473-0.92714 1.0306-0.27964 0.17734-0.56193 0.28159-0.84487 0.34509-0.80975 0.146-0.89396 0.14056-1.9706 0.18576h-1.131v9.661e-4h1.1304l2.3163 4.2264a0.17523 0.17523 0 0 0 0.15359 0.091h1.7876a0.17523 0.17523 0 0 0 0.15208-0.26282l-2.4389-4.2399c0.28294-0.063467 0.56523-0.16776 0.84487-0.34509 0.37199-0.2359 0.68105-0.58307 0.92714-1.0306zm-4.8743 5.7104c-2.65e-4 0.0087-0.00104 0.01661-0.00238 0.02444a0.17523 0.17523 0 0 0 0.00238-0.02444z" color="#000000" fill="#e49090" style="-inkscape-stroke:none"/>
  <path d="m5.0607 2.0227v9.66e-4h1.4605c0.57579 0 1.0133 0.13801 1.337 0.4015 0.10751 0.087521 0.19675 0.19097 0.2683 0.31182 8.084e-4 4.734e-4 0.00152 9.564e-4 0.00233 9.66e-4 -0.071845-0.1222-0.16165-0.22672-0.27008-0.31498-0.3237-0.26348-0.76119-0.4015-1.337-0.4015zm4.9655 3.0315c-0.02837 0.060086-0.058762 0.11872-0.091303 0.17604l-5.708e-4 9.66e-4c0.03282-0.057768 0.063293-0.11706 0.091851-0.17769zm-0.091852 0.17768c-0.24609 0.44756-0.55515 0.79473-0.92714 1.0306-0.27964 0.17734-0.56193 0.28159-0.84487 0.34509-0.80975 0.146-0.89395 0.14056-1.9706 0.18576h-1.131v9.66e-4h1.1304l0.23052 0.42053h0.19c0.99673-0.041828 1.1498-0.041828 1.8084-0.15715l-0.25831-0.44913c0.28294-0.063467 0.56523-0.16775 0.84487-0.34509 0.37199-0.23589 0.68105-0.58306 0.92714-1.0306zm-4.8743 5.7104c-2.805e-4 0.0087-0.00114 0.01661-0.00247 0.02444a0.17523 0.17523 0 0 0 0.00247-0.02444zm-0.00395 0.03188c-0.00238 0.01014-0.00521 0.02019-0.00917 0.02956a0.17523 0.17523 0 0 0 0.00917-0.02956zm-0.01 0.0314c-0.027024 0.06202-0.088747 0.10532-0.16071 0.10526h-1.3412v9.66e-4h1.3407a0.17523 0.17523 0 0 0 0.16125-0.10691z" color="#000000" fill="#bf7171" style="-inkscape-stroke:none"/>
  <path d="m3.2989 0.3775c-0.096872-6.762e-5 -0.17542 0.078441-0.17535 0.17535v10.384c-6.9e-5 0.09689 0.07848 0.17542 0.17535 0.17536h1.5858c0.096874 5.8e-5 0.17542-0.07844 0.17535-0.17536 0-6.4412-2.42e-5 -5.9942 0-6.7054 2.4e-6 -0.068297-2.9e-6 -0.5558 0-0.64433-8.1e-6 -0.42367 0-0.11959 0-3.0345 6.61e-5 -0.096882-0.07848-0.17542-0.17535-0.17535z" color="#000000" fill="#ffa4a4" style="-inkscape-stroke:none"/>
  <path d="m4.8864 0.37423c0.09662 2.3185e-4 0.17487 0.078634 0.17481 0.17535v1.4715h1.461c0.57579 0 1.0133 0.13802 1.337 0.4015 0.31458 0.25605 0.47692 0.64534 0.47692 1.2235 0 0.57738-0.16562 0.97062-0.48992 1.236-0.32367 0.2633-0.76071 0.40108-1.3363 0.40108h-1.4487c-2.8e-6 0.12284 0 1.2833 0 1.5086h1.131c1.0767-0.04521 1.1609-0.0398 1.9706-0.18577 0.28294-0.063467 0.56523-0.16776 0.84487-0.34509 0.37198-0.2359 0.68105-0.58307 0.92714-1.0306l5.23e-4 -9.66e-4c0.26033-0.45847 0.38753-1.0063 0.38753-1.6333 0-0.65418-0.14542-1.2295-0.44037-1.713-0.28366-0.48687-0.67454-0.86478-1.1635-1.1226-0.48827-0.25746-1.0391-0.38549-1.6427-0.38549z" color="#000000" fill="#f79797" style="-inkscape-stroke:none"/>
  <path d="m4.8859 0.37747c0.09662 2.1252e-4 0.17487 0.078634 0.17481 0.17535v1.4715h0.41997c1.4e-6 -0.34966 0-0.057961 0-1.4715 6.66e-5 -0.096882-0.078478-0.17542-0.17535-0.17535zm0.17481 4.9089c-1.5e-6 0.12283 1e-6 1.2833 0 1.5086h0.41997c0-0.22534-2e-6 -1.3858 0-1.5086z" color="#000000" fill="#d47d7d" style="-inkscape-stroke:none"/>
 </g>
</svg>
