<?xml version="1.0" standalone="no"?>
<!DOCTYPE svg PUBLIC "-//W3C//DTD SVG 20010904//EN"
 "http://www.w3.org/TR/2001/REC-SVG-20010904/DTD/svg10.dtd">
<svg version="1.0" xmlns="http://www.w3.org/2000/svg"
 width="700.000000pt" height="700.000000pt" viewBox="0 0 700.000000 700.000000"
 preserveAspectRatio="xMidYMid meet">
<metadata>
Created by potrace 1.14, written by Peter Selinger 2001-2017
</metadata>
<g transform="translate(0.000000,700.000000) scale(0.100000,-0.100000)"
fill="#000000" stroke="none">
<path d="M1110 6979 c-17 -11 -37 -32 -43 -48 -9 -22 -12 -813 -11 -3427 1
-1869 2 -3407 3 -3418 0 -10 16 -33 35 -52 l34 -34 551 0 c369 0 558 4 573 11
13 6 32 22 43 37 20 27 20 44 22 1392 1 751 2 1367 2 1370 1 3 166 5 367 5
316 0 368 -2 375 -15 40 -70 256 -463 339 -615 56 -104 108 -199 115 -210 7
-11 14 -24 15 -30 2 -5 16 -32 32 -58 16 -27 83 -149 150 -270 66 -122 133
-244 148 -272 15 -27 50 -90 77 -140 27 -49 67 -121 88 -160 21 -38 87 -160
148 -270 60 -110 122 -222 137 -250 15 -27 54 -99 87 -160 93 -169 135 -246
147 -269 19 -36 40 -61 66 -79 22 -16 77 -17 635 -17 468 0 616 3 635 13 13 7
34 27 46 44 34 51 27 74 -71 245 -12 22 -251 435 -284 492 -13 22 -33 57 -44
76 -10 19 -36 64 -57 100 -21 36 -47 82 -59 102 -11 21 -29 53 -40 70 -55 96
-138 241 -171 298 -20 36 -104 182 -187 325 -133 229 -587 1022 -649 1131
l-23 41 52 13 c69 17 193 58 237 77 226 100 369 194 524 348 328 326 542 791
583 1269 14 160 7 521 -12 612 -3 12 -7 39 -11 60 -20 135 -72 321 -125 449
-7 17 -13 32 -14 35 -6 25 -120 230 -174 312 -242 365 -579 622 -1006 767
-125 42 -303 84 -415 97 -36 4 -74 9 -85 12 -11 3 -635 6 -1387 7 -1329 3
-1367 2 -1398 -16z m2345 -1062 c70 -6 142 -17 195 -29 25 -5 54 -11 64 -14
38 -7 151 -47 161 -55 5 -5 17 -9 27 -9 10 0 18 -4 18 -10 0 -5 3 -9 8 -8 13
4 105 -49 167 -94 197 -146 306 -337 341 -593 3 -27 8 -59 10 -70 10 -48 3
-318 -10 -405 -46 -304 -192 -521 -443 -664 -103 -58 -247 -110 -363 -131 -14
-3 -36 -7 -50 -10 -14 -3 -43 -8 -65 -11 -22 -4 -300 -9 -617 -11 -554 -4
-578 -4 -579 14 -1 23 -1 2108 0 2108 440 0 1099 -5 1136 -8z"/>
</g>
</svg>
