<?xml version="1.0" encoding="UTF-8" standalone="no"?>
<svg
   xmlns:svg="http://www.w3.org/2000/svg"
   xmlns="http://www.w3.org/2000/svg"
   xmlns:xlink="http://www.w3.org/1999/xlink"
   xmlns:sodipodi="http://sodipodi.sourceforge.net/DTD/sodipodi-0.dtd"
   height="817"
   width="1920"
   sodipodi:docname="landscape_logo2hoge.svg"
   id="svg6"
   xml:space="preserve"
   viewBox="0 0 1920 817"
   version="1.1"><metadata
   id="metadata12"></metadata><defs
   id="defs10"><linearGradient
     id="linearGradient5414"><stop
       id="stop5410"
       offset="0"
       style="stop-color:#ff5ad7;stop-opacity:1" /><stop
       id="stop5412"
       offset="1"
       style="stop-color:#ffd200;stop-opacity:1" /></linearGradient><linearGradient
     y2="220.47742"
     x2="1098.7341"
     y1="220.47742"
     x1="800.83521"
     gradientTransform="matrix(3.3526373,0,0,3.3526693,-2656.1923,-76.756915)"
     gradientUnits="userSpaceOnUse"
     id="linearGradient4558"
     xlink:href="#linearGradient5414" /></defs><sodipodi:namedview
   showguides="false"
   showgrid="false"
   id="namedview8"
   guidetolerance="10"
   gridtolerance="10"
   objecttolerance="10"
   borderopacity="1"
   bordercolor="#666666"
   pagecolor="#ffffff" />


<rect
   ry="13.94717"
   y="143.36671"
   x="1446.8098"
   height="190.09731"
   width="27.894341"
   id="rect908"
   style="fill:#a9a9a9;fill-opacity:1;stroke:none;stroke-width:74.3603;stroke-linejoin:round;stroke-miterlimit:4;stroke-dasharray:none;stroke-opacity:1;paint-order:fill markers stroke" /><circle
   r="13.9481"
   cy="96.357971"
   cx="1460.7542"
   id="path916"
   style="fill:#a9a9a9;fill-opacity:1;stroke:none;stroke-width:37.2767;stroke-linejoin:round;stroke-miterlimit:4;stroke-dasharray:none;stroke-opacity:1;paint-order:fill markers stroke" /><path
   id="rect908-7"
   d="m 1308.4753,237.21069 v 80.8216 c 0,7.7267 6.0534,13.94815 13.573,13.94815 7.5197,0 13.5731,-6.22145 13.5731,-13.94815 v -80.8216 h -1.9775 -24.0177 z"
   style="fill:#a9a9a9;fill-opacity:1;stroke:none;stroke-width:73.3573;stroke-linejoin:round;stroke-miterlimit:4;stroke-dasharray:none;stroke-opacity:1;paint-order:fill markers stroke" /><path
   sodipodi:nodetypes="ccssc"
   id="rect908-7-0"
   d="m 1398.8818,143.71621 c 0,8.96533 0.1923,18.88191 0.1634,27.06747 7.5075,-0.0352 13.5408,-6.04939 13.5408,-13.52665 0,-7.49904 -6.0666,-13.54082 -13.6047,-13.54082 z"
   style="fill:#a9a9a9;fill-opacity:1;stroke:none;stroke-width:29.6398;stroke-linejoin:round;stroke-miterlimit:4;stroke-dasharray:none;stroke-opacity:1;paint-order:fill markers stroke" /><path
   id="path878-1-1"
   d="m 1400.6818,143.6878 a 94.843872,94.843872 0 0 0 -92.2097,94.7078 94.843872,94.843872 0 0 0 0.022,0.4826 h 27.181 a 67.650868,67.650868 0 0 1 -0.01,-0.4826 67.650868,67.650868 0 0 1 65.0145,-67.56222 z"
   style="fill:#a9a9a9;fill-opacity:1;stroke:none;stroke-width:69.6278;stroke-linejoin:round;stroke-miterlimit:4;stroke-dasharray:none;stroke-opacity:1;paint-order:fill markers stroke" /><rect
   ry="13.947171"
   y="-1653.6233"
   x="144.17287"
   height="140.13818"
   width="27.894342"
   id="rect908-9-1"
   style="fill:#a9a9a9;fill-opacity:1;stroke:none;stroke-width:63.846;stroke-linejoin:round;stroke-miterlimit:4;stroke-dasharray:none;stroke-opacity:1;paint-order:fill markers stroke"
   transform="rotate(90)" /><rect
   ry="13.947171"
   y="-1653.6233"
   x="305.54169"
   height="144.6991"
   width="27.894342"
   id="rect908-9-1-3"
   style="fill:#a9a9a9;fill-opacity:1;stroke:none;stroke-width:64.8765;stroke-linejoin:round;stroke-miterlimit:4;stroke-dasharray:none;stroke-opacity:1;paint-order:fill markers stroke"
   transform="rotate(90)" /><path
   style="fill:#a9a9a9;fill-opacity:1;stroke:none;stroke-width:64.8765;stroke-linejoin:round;stroke-miterlimit:4;stroke-dasharray:none;stroke-opacity:1;paint-order:fill markers stroke"
   d="m 1626.9925,151.60634 -12.6538,17.53637 -0.085,-0.0639 -84.6657,117.3397 0.015,0.0142 -19.4738,26.98942 22.6177,16.32281 12.6537,-17.53638 0.085,0.0639 84.6657,-117.3397 -0.014,-0.0142 19.4738,-26.98941 z"
   id="rect908-9-1-5" /><path
   id="path878-1-3-2"
   d="m 1179.4024,143.78622 a 94.843872,94.843872 0 0 0 -94.8426,94.84241 94.843872,94.843872 0 0 0 94.8426,94.84269 94.843872,94.843872 0 0 0 94.8496,-94.84269 94.843872,94.843872 0 0 0 -94.8496,-94.84241 z m 0,27.93328 a 66.910297,66.910297 0 0 1 66.9164,66.90913 66.910297,66.910297 0 0 1 -66.9164,66.90941 66.910297,66.910297 0 0 1 -66.9094,-66.90941 66.910297,66.910297 0 0 1 66.9094,-66.90913 z"
   style="fill:#a9a9a9;fill-opacity:1;stroke:none;stroke-width:69.6278;stroke-linejoin:round;stroke-miterlimit:4;stroke-dasharray:none;stroke-opacity:1;paint-order:fill markers stroke" /><rect
   style="fill:#a9a9a9;fill-opacity:1;stroke:none;stroke-width:74.3603;stroke-linejoin:round;stroke-miterlimit:4;stroke-dasharray:none;stroke-opacity:1;paint-order:fill markers stroke"
   id="rect7476"
   width="27.894341"
   height="190.09731"
   x="1687.847"
   y="143.36763"
   ry="13.94717" /><circle
   style="fill:#a9a9a9;fill-opacity:1;stroke:none;stroke-width:37.2767;stroke-linejoin:round;stroke-miterlimit:4;stroke-dasharray:none;stroke-opacity:1;paint-order:fill markers stroke"
   id="circle7478"
   cx="1701.7915"
   cy="96.358894"
   r="13.9481" /><rect
   ry="13.94717"
   y="202.38509"
   x="1863.3356"
   height="131.05133"
   width="27.894341"
   id="rect908-2-0"
   style="fill:#a9a9a9;fill-opacity:1;stroke:none;stroke-width:61.7413;stroke-linejoin:round;stroke-miterlimit:4;stroke-dasharray:none;stroke-opacity:1;paint-order:fill markers stroke" /><path
   sodipodi:nodetypes="cccccccccccc"
   id="path1625"
   d="m 1820.6251,151.27721 c -39.0252,-0.007 -70.6633,31.63134 -70.6635,70.65648 0.01,0.34784 0.022,0.69561 0.037,1.04324 l 27.898,-0.007 c -0.016,-0.34755 0.02,-0.68983 0.013,-1.03774 -4e-4,-23.59161 19.1244,-42.71655 42.716,-42.71613 23.5889,0 42.7095,19.12727 42.7091,42.71613 -0.013,0.34791 0.023,0.69568 0,1.04324 h 27.8951 c 0.019,-0.34763 0.036,-0.6954 0.05,-1.04324 -2e-4,-39.0224 -31.6341,-70.65627 -70.6565,-70.65648 z"
   style="fill:#a9a9a9;fill-opacity:0.985577;stroke:none;stroke-width:74.0523;stroke-linejoin:round;stroke-miterlimit:4;stroke-dasharray:none;stroke-opacity:1;paint-order:fill markers stroke" /><rect
   ry="13.94717"
   y="202.79997"
   x="1750.0022"
   height="131.05133"
   width="27.894341"
   id="rect908-2-0-5"
   style="fill:#a9a9a9;fill-opacity:0.985577;stroke:none;stroke-width:61.7413;stroke-linejoin:round;stroke-miterlimit:4;stroke-dasharray:none;stroke-opacity:1;paint-order:fill markers stroke" /><path
   id="path878-1-3"
   d="m 1057.9237,427.75944 a 94.843869,94.843869 0 0 0 -94.84256,94.84262 94.843869,94.843869 0 0 0 94.84256,94.84263 94.843869,94.843869 0 0 0 94.8497,-94.84263 94.843869,94.843869 0 0 0 -94.8497,-94.84262 z m 0,27.9333 a 66.910297,66.910297 0 0 1 66.9164,66.90932 66.910297,66.910297 0 0 1 -66.9164,66.90932 66.910297,66.910297 0 0 1 -66.90926,-66.90932 66.910297,66.910297 0 0 1 66.90926,-66.90932 z"
   style="fill:#a9a9a9;fill-opacity:1;stroke:none;stroke-width:69.6278;stroke-linejoin:round;stroke-miterlimit:4;stroke-dasharray:none;stroke-opacity:1;paint-order:fill markers stroke" /><rect
   ry="13.947171"
   y="-617.58228"
   x="-1152.7452"
   height="101.55469"
   width="27.894342"
   id="rect908-9-1-3-4-9"
   style="fill:#a9a9a9;fill-opacity:1;stroke:none;stroke-width:54.3506;stroke-linejoin:round;stroke-miterlimit:4;stroke-dasharray:none;stroke-opacity:1;paint-order:fill markers stroke"
   transform="scale(-1)" /><path
   id="path878-1-3-6"
   d="m 1270.5417,427.89161 a 94.843869,94.843869 0 0 0 -94.8426,94.84262 94.843869,94.843869 0 0 0 94.8426,94.84263 94.843869,94.843869 0 0 0 94.8497,-94.84263 94.843869,94.843869 0 0 0 -94.8497,-94.84262 z m 0,27.9333 a 66.910297,66.910297 0 0 1 66.9164,66.90932 66.910297,66.910297 0 0 1 -66.9164,66.90932 66.910297,66.910297 0 0 1 -66.9093,-66.90932 66.910297,66.910297 0 0 1 66.9093,-66.90932 z"
   style="fill:#a9a9a9;fill-opacity:1;stroke:none;stroke-width:69.6278;stroke-linejoin:round;stroke-miterlimit:4;stroke-dasharray:none;stroke-opacity:1;paint-order:fill markers stroke" /><rect
   ry="13.947171"
   y="-656.03088"
   x="-1365.3633"
   height="139.87115"
   width="27.894342"
   id="rect908-9-1-3-4-9-4"
   style="fill:#a9a9a9;fill-opacity:1;stroke:none;stroke-width:63.7849;stroke-linejoin:round;stroke-miterlimit:4;stroke-dasharray:none;stroke-opacity:1;paint-order:fill markers stroke"
   transform="scale(-1)" /><path
   id="path878-1-3-6-7"
   d="m 1175.9865,642.21721 a 94.843869,94.843869 0 0 0 94.722,92.37292 94.843869,94.843869 0 0 0 94.7645,-92.37292 h -27.9687 a 66.910297,66.910297 0 0 1 -66.7958,64.43962 66.910297,66.910297 0 0 1 -66.8171,-64.43962 z"
   style="fill:#a9a9a9;fill-opacity:1;stroke:none;stroke-width:69.6278;stroke-linejoin:round;stroke-miterlimit:4;stroke-dasharray:none;stroke-opacity:1;paint-order:fill markers stroke" /><path
   id="rect908-9-1-3-4-9-4-9"
   d="m 1189.9603,629.32927 c -7.7268,0 -13.9454,6.22573 -13.9454,13.95244 v 1.95164 h 27.8907 v -1.95164 c 0,-7.72671 -6.2186,-13.95244 -13.9453,-13.95244 z"
   style="fill:#a9a9a9;fill-opacity:1;stroke:none;stroke-width:34.7832;stroke-linejoin:round;stroke-miterlimit:4;stroke-dasharray:none;stroke-opacity:1;paint-order:fill markers stroke" /><path
   id="path878-1-3-22"
   d="m 1435.8257,440.38577 a 94.84387,94.84387 0 0 0 -34.721,129.56095 94.84387,94.84387 0 0 0 129.5636,34.71128 94.84387,94.84387 0 0 0 47.2191,-80.88854 l -28.4314,7.78581 a 66.910297,66.910297 0 0 1 -32.7544,48.91178 66.910297,66.910297 0 0 1 -91.4059,-24.48697 66.910297,66.910297 0 0 1 -3.8998,-8.13127 c -0.638,-1.07607 -1.1884,-2.2147 -1.5287,-3.48521 -0.1142,-0.42612 -0.1403,-0.85199 -0.2134,-1.27807 a 66.910297,66.910297 0 0 1 30.1385,-78.50882 66.910297,66.910297 0 0 1 79.5702,9.52229 l 0.01,-0.004 a 66.910297,66.910297 0 0 1 10.0768,12.14507 l 24.0926,-13.90987 a 94.84387,94.84387 0 0 0 -9.4007,-12.53541 l 0.08,-0.0462 a 94.84387,94.84387 0 0 0 -1.5239,-1.60322 94.84387,94.84387 0 0 0 -2.4065,-2.5359 94.84387,94.84387 0 0 0 -2.277,-2.12715 94.84387,94.84387 0 0 0 -6.4594,-5.69462 l -0.086,0.0496 a 94.84387,94.84387 0 0 0 -105.6389,-7.45202 z"
   style="fill:#a9a9a9;fill-opacity:1;stroke:none;stroke-width:69.6278;stroke-linejoin:round;stroke-miterlimit:4;stroke-dasharray:none;stroke-opacity:1;paint-order:fill markers stroke" /><rect
   ry="13.947171"
   y="-1117.9623"
   x="-1205.2173"
   height="186.13663"
   width="27.894342"
   id="rect908-9-1-3-4-9-5"
   style="fill:#a9a9a9;fill-opacity:1;stroke:none;stroke-width:73.5818;stroke-linejoin:round;stroke-miterlimit:4;stroke-dasharray:none;stroke-opacity:1;paint-order:fill markers stroke"
   transform="matrix(-0.49999998,-0.86602541,-0.86602541,0.49999998,0,0)" /><rect
   ry="13.947171"
   y="386.33398"
   x="-1613.9557"
   height="41.611107"
   width="27.894342"
   id="rect908-9-1-3-4-9-5-3"
   style="fill:#a9a9a9;fill-opacity:1;stroke:none;stroke-width:34.7904;stroke-linejoin:round;stroke-miterlimit:4;stroke-dasharray:none;stroke-opacity:1;paint-order:fill markers stroke"
   transform="matrix(-0.99697841,-0.07767911,-0.07767911,0.99697841,0,0)" /><rect
   ry="13.94717"
   y="-617.46039"
   x="-1840.8849"
   height="222.82605"
   width="27.894341"
   id="rect908-9-1-3-4-9-8"
   style="fill:#a9a9a9;fill-opacity:1;stroke:none;stroke-width:80.5079;stroke-linejoin:round;stroke-miterlimit:4;stroke-dasharray:none;stroke-opacity:1;paint-order:fill markers stroke"
   transform="scale(-1)" /><rect
   ry="13.94717"
   y="1765.1976"
   x="-476.59915"
   height="126.08148"
   width="27.894341"
   id="rect908-9-1-3-4-9-8-6"
   style="fill:#a9a9a9;fill-opacity:1;stroke:none;stroke-width:60.5593;stroke-linejoin:round;stroke-miterlimit:4;stroke-dasharray:none;stroke-opacity:1;paint-order:fill markers stroke"
   transform="rotate(-90)" /><rect
   ry="13.94717"
   y="486.36472"
   x="1714.3285"
   height="131.05133"
   width="27.894341"
   id="rect908-2-0-4"
   style="fill:#a9a9a9;fill-opacity:1;stroke:none;stroke-width:61.7413;stroke-linejoin:round;stroke-miterlimit:4;stroke-dasharray:none;stroke-opacity:1;paint-order:fill markers stroke" /><path
   sodipodi:nodetypes="cccccccccccc"
   id="path1625-4"
   d="m 1671.6179,435.25684 c -39.0251,-0.007 -70.6633,31.63134 -70.6635,70.65648 0.01,0.34784 0.022,0.69561 0.037,1.04324 l 27.898,-0.007 c -0.016,-0.34755 0.021,-0.68983 0.013,-1.03774 -4e-4,-23.59161 19.1245,-42.71655 42.7161,-42.71613 23.5888,0 42.7094,19.12727 42.709,42.71613 -0.013,0.34791 0.023,0.69568 0,1.04324 h 27.8952 c 0.019,-0.34763 0.036,-0.6954 0.05,-1.04324 -2e-4,-39.0224 -31.6341,-70.65627 -70.6565,-70.65648 z"
   style="fill:#a9a9a9;fill-opacity:0.985577;stroke:none;stroke-width:74.0523;stroke-linejoin:round;stroke-miterlimit:4;stroke-dasharray:none;stroke-opacity:1;paint-order:fill markers stroke" /><rect
   ry="13.94717"
   y="486.7796"
   x="1600.995"
   height="131.05133"
   width="27.894341"
   id="rect908-2-0-5-7"
   style="fill:#a9a9a9;fill-opacity:0.985577;stroke:none;stroke-width:61.7413;stroke-linejoin:round;stroke-miterlimit:4;stroke-dasharray:none;stroke-opacity:1;paint-order:fill markers stroke" /><path
   id="rect5420-2"
   d="m 515.16113,122.33224 c -32.26306,0.45572 -64.98683,6.74574 -96.72579,19.50095 C 316.87074,182.64941 253.80359,278.23465 249.3812,380.9135 99.765544,468.38917 10.059885,559.43714 32.00733,614.06013 c 27.286614,67.88343 218.00825,57.08151 447.42166,-19.27046 0.3539,-0.12108 0.71605,-0.22663 1.08021,-0.34565 7.69219,-2.57336 15.43681,-5.22496 23.20203,-7.93575 0.92088,-0.31649 1.83008,-0.61944 2.75087,-0.93613 7.27254,-2.55403 14.58733,-5.18063 21.92031,-7.86375 1.39736,-0.49925 2.76275,-0.98829 4.16232,-1.49783 7.00428,-2.57856 14.03508,-5.24679 21.08486,-7.93577 1.70357,-0.65189 3.3967,-1.25553 5.1128,-1.91548 8.6884,-3.34422 17.41119,-6.78253 26.16903,-10.29777 8.73465,-3.50915 17.39921,-7.05832 25.96731,-10.65781 2.13887,-0.89773 4.22314,-1.80749 6.35137,-2.70768 6.46976,-2.73681 12.91529,-5.48688 19.28476,-8.26697 1.79752,-0.78505 3.55616,-1.58909 5.34324,-2.37642 6.73686,-2.9638 13.43428,-5.9427 20.04798,-8.94396 1.01945,-0.47057 2.03228,-0.94899 3.03887,-1.4114 7.37178,-3.3746 14.67439,-6.76388 21.89158,-10.18248 0.33972,-0.15691 0.66804,-0.31849 1.00813,-0.47547 C 906.28856,407.38222 1051.4679,283.1977 1024.1813,215.31417 1002.2341,160.69096 874.46043,157.03647 705.91948,197.42605 654.87758,148.57703 586.13974,121.32935 515.16113,122.33169 Z M 810.69614,242.7942 c 29.61465,0.77049 48.92058,7.46091 54.22464,20.66754 8.68782,21.6218 -21.70625,56.57579 -77.90195,95.6177 -2.81841,-22.6281 -8.48307,-45.24378 -17.38361,-67.40336 -6.2758,-15.62628 -13.89851,-30.28822 -22.58279,-44.01385 24.40225,-3.66726 45.87509,-5.33033 63.64371,-4.86803 z M 254.46519,445.63803 c 3.22426,15.9349 7.85054,31.78249 14.12867,47.39841 8.90055,22.15955 20.48062,42.4231 34.10463,60.70623 -67.56411,10.68918 -113.703,6.49924 -122.39072,-15.12252 -8.49727,-21.1326 20.41942,-54.99917 74.15742,-92.98212 z m 517.86334,40.47086 c -54.6855,29.64398 -115.79374,58.46903 -181.4113,84.83027 -65.63269,26.38007 -129.69863,47.87663 -189.69262,64.32135 66.12318,32.07747 145.01751,37.18769 218.58359,7.61881 73.56379,-29.55835 126.98601,-87.85607 152.52033,-156.77043 z"
   clip-path="none"
   style="opacity:1;fill:url(#linearGradient4558);fill-opacity:1;stroke:none;stroke-width:128.89375305;stroke-linecap:round;stroke-linejoin:round;stroke-miterlimit:4;stroke-dasharray:none;stroke-opacity:1;paint-order:stroke fill markers" /></svg>
