<?xml version="1.0" encoding="UTF-8"?>
<svg width="136.24mm" height="134.72mm" version="1.1" viewBox="0 0 482.73271 477.34195" xmlns="http://www.w3.org/2000/svg">
 <g transform="translate(-131 -183.02)">
  <path d="m267 298.36 45-92 119 1 46 90-69 120-7 131 29 86 26-17 8 19-25 22-39-9.5-44-82.5-22-156z" fill="#a7acaf" fill-rule="evenodd" stroke="#000" stroke-width="1px"/>
  <path d="m311 389.36 17 25-12 67-5 63 6 23-14-11-19-89z" fill-rule="evenodd"/>
  <path d="m432.01 393.26-17 25 12 67 5 63-6 23 14-11 19-89z" fill-rule="evenodd"/>
  <g fill-rule="evenodd">
   <path d="m257.33 183.02-125 80 10 81 134 124 26-92-44-76 46-97z" fill="#949599"/>
   <path d="m139 316.36-8-52 127-81z" fill="#bbb"/>
   <path d="m259 304.36-10.646 138.94 28.646 25.061l27-93z" fill="#686b70"/>
   <path d="m133 273.36 9 72s134 125 133 121l-108.06-117.26z" fill="#6f7074"/>
  </g>
  <g transform="matrix(-1 0 0 1 744.73 .50621)" fill-rule="evenodd">
   <path d="m257.33 183.02-125 80 10 81 134 124 26-92-44-76 46-97z" fill="#949599"/>
   <path d="m139 316.36-8-52 127-81z" fill="#bbb"/>
   <path d="m259 304.36-10.646 138.94 28.646 25.061l27-93z" fill="#686b70"/>
   <path d="m133 273.36 9 72s134 125 133 121l-108.06-117.26z" fill="#6f7074"/>
  </g>
  <path d="m371 207.36-1 48 106 42-43-91z" fill="#dcdcdc" fill-rule="evenodd"/>
  <path d="m370 254.36 1 148 41 8.5 64-111.5z" fill="#bcc0c3" fill-rule="evenodd"/>
  <path d="m266 297.36 68 112 35-8 2-195-58-2z" fill="none"/>
  <path d="m371 403.36 8 150 21-5 11.5-137z" fill="#d4d0d1" fill-rule="evenodd"/>
  <path d="m334 408.36 34 153 27 75-41-72z" fill="#737b7e" fill-rule="evenodd"/>
  <path d="m376 553.36 47 65-22-70z" fill="#bcc0c3" fill-rule="evenodd"/>
  <path d="m383 596.36 55 62-38-8z" fill="#808388" fill-rule="evenodd"/>
  <path d="m269 295.36 58-70 105-17-120-3z" fill="#8a8e91" fill-rule="evenodd"/>
  <path d="m430 633.36 7 15 23-22-5-11z" fill="#d4d3d4" fill-rule="evenodd"/>
  <path d="m438 646.36v14l28-24-5-10z" fill="#a6abaf" fill-rule="evenodd"/>
 </g>
</svg>
