<?xml version="1.0" encoding="UTF-8" standalone="no"?>
<svg
   xmlns:dc="http://purl.org/dc/elements/1.1/"
   xmlns:cc="http://creativecommons.org/ns#"
   xmlns:rdf="http://www.w3.org/1999/02/22-rdf-syntax-ns#"
   xmlns:svg="http://www.w3.org/2000/svg"
   xmlns="http://www.w3.org/2000/svg"
   xmlns:xlink="http://www.w3.org/1999/xlink"
   xmlns:sodipodi="http://sodipodi.sourceforge.net/DTD/sodipodi-0.dtd"
   xmlns:inkscape="http://www.inkscape.org/namespaces/inkscape"
   sodipodi:docname="logo.svg"
   inkscape:version="1.0 (4035a4fb49, 2020-05-01)"
   id="svg8"
   version="1.1"
   viewBox="0 0 507.99999 508.00002"
   height="1920"
   width="1920"
   inkscape:export-xdpi="96"
   inkscape:export-ydpi="96">
  <defs
     id="defs2">
    <linearGradient
       inkscape:collect="always"
       id="linearGradient5414">
      <stop
         style="stop-color:#ff5ad7;stop-opacity:1"
         offset="0"
         id="stop5410" />
      <stop
         style="stop-color:#ffd200;stop-opacity:1"
         offset="1"
         id="stop5412" />
    </linearGradient>
    <clipPath
       clipPathUnits="userSpaceOnUse"
       id="clipPath5458">
      <g
         transform="translate(20.696977,148.01198)"
         style="fill:#0000ff;fill-opacity:0.39215686"
         id="g5466">
        <g
           style="fill:#0000ff;fill-opacity:0.39215686"
           transform="matrix(-0.60495596,-0.12959435,-0.12959435,0.60495596,1403.7917,-393.17114)"
           id="g5464">
          <path
             d="M 415.23368,1097.0936 C 423.51806,1048.2431 403.43862,996.8149 359.68141,967.317 315.92421,937.819 260.71733,938.4943 218.54277,964.4919 143.16881,928.4314 82.569616,917.2498 66.707113,940.7832 c -19.718582,29.2454 36.173927,102.4542 128.683717,173.3792 0.14435,0.1083 0.28354,0.2165 0.42788,0.3248 3.05703,2.3404 6.16045,4.6757 9.2948,7.011 0.42788,0.3197 0.85576,0.6444 1.2888,0.9692 2.81473,2.0827 5.6707,4.1654 8.54729,6.2429 0.76297,0.5516 1.51047,1.1084 2.27859,1.66 2.72194,1.9538 5.48512,3.8973 8.25861,5.8408 0.91247,0.6393 1.80432,1.2837 2.72194,1.9229 3.67564,2.5621 7.39769,5.1088 11.16097,7.6451 3.7736,2.5416 7.54204,5.0418 11.30017,7.4957 0.74234,0.4846 1.47438,0.9434 2.21157,1.4228 3.05187,1.9796 6.09859,3.9437 9.14014,5.8666 0.60832,0.3815 1.20632,0.7527 1.81463,1.129 3.1859,2.0054 6.36665,3.9798 9.53709,5.9182 0.40211,0.2422 0.79905,0.4794 1.20116,0.7217 3.38696,2.0621 6.76876,4.0932 10.13509,6.0831 0.15981,0.093 0.31962,0.1804 0.47428,0.2732 100.43846,59.1609 189.26229,83.5089 208.98088,54.2635 15.8625,-23.5334 -17.23379,-75.5131 -78.93104,-131.8593 z M 136.92073,979.5657 c 6.13467,-9.1041 27.47198,-6.7224 57.16069,4.4592 -5.47997,5.5934 -10.55782,11.7281 -15.09438,18.4607 -6.43368,9.5474 -11.38781,19.6413 -15.00159,30.0238 -22.54878,-24.0798 -33.34374,-43.6283 -27.06472,-52.9437 z m 294.94873,198.8509 c -6.27901,9.3154 -28.45146,6.6296 -59.22276,-5.2325 8.26892,-7.243 15.76971,-15.6254 22.20338,-25.1728 4.53657,-6.7275 8.32047,-13.7334 11.44967,-20.9197 21.49712,23.3324 31.70954,42.221 25.56971,51.325 z"
             id="path5460"
             style="fill:#0000ff;fill-opacity:0.39215686;stroke-width:5.15518475"
             inkscape:connector-curvature="0" />
          <path
             d="m 158.08276,1093.8767 c 5.07786,35.0656 24.37371,67.9402 56.06779,89.3033 31.69408,21.3683 69.40425,26.9255 103.81511,18.4814 -26.62138,-13.8108 -54.65011,-30.4105 -82.9263,-49.4744 -28.27103,-19.0535 -54.17068,-38.8133 -76.9566,-58.3103 z"
             id="path5462"
             style="fill:#0000ff;fill-opacity:0.39215686;stroke-width:5.15518475"
             inkscape:connector-curvature="0" />
        </g>
      </g>
    </clipPath>
    <linearGradient
       y2="18.615549"
       x2="1911.2148"
       y1="1885.3774"
       x1="24.947598"
       gradientUnits="userSpaceOnUse"
       id="linearGradient970"
       xlink:href="#linearGradient5414"
       inkscape:collect="always" />
  </defs>
  <sodipodi:namedview
     inkscape:pagecheckerboard="true"
     units="px"
     inkscape:window-maximized="1"
     inkscape:window-y="-6"
     inkscape:window-x="-6"
     inkscape:window-height="850"
     inkscape:window-width="1368"
     showgrid="false"
     inkscape:document-rotation="0"
     inkscape:current-layer="layer1"
     inkscape:document-units="px"
     inkscape:cy="738.54232"
     inkscape:cx="1270.6974"
     inkscape:zoom="0.24748737"
     inkscape:pageshadow="2"
     inkscape:pageopacity="0.0"
     borderopacity="1.0"
     bordercolor="#666666"
     pagecolor="#ffffff"
     id="base" />
  <metadata
     id="metadata5">
    <rdf:RDF>
      <cc:Work
         rdf:about="">
        <dc:format>image/svg+xml</dc:format>
        <dc:type
           rdf:resource="http://purl.org/dc/dcmitype/StillImage" />
        <dc:title />
      </cc:Work>
    </rdf:RDF>
  </metadata>
  <g
     id="layer1"
     inkscape:groupmode="layer"
     inkscape:label="レイヤー 1">
    <path
       transform="scale(0.26458334)"
       d="M 504.13672 14.193359 L 8.7851562 331.21875 L 48.414062 652.20703 L 579.43164 1143.5977 L 682.46484 779.01758 L 508.09961 477.84375 L 690.39062 93.451172 L 504.13672 14.193359 z M 1415.8633 16.201172 L 1229.6094 95.457031 L 1411.9004 479.84961 L 1237.5352 781.02344 L 1340.5684 1145.6035 L 1871.5859 654.21484 L 1911.2148 333.22656 L 1415.8633 16.201172 z M 720.78516 106.68555 L 542.45703 471.26562 L 807.9668 915.10156 L 895.14844 1533.3008 L 1069.5117 1860.2324 L 1224.0625 1897.8809 L 1323.1328 1810.6973 L 1291.4297 1735.4043 L 1188.3965 1802.7734 L 1073.4746 1461.9707 L 1101.2148 942.8418 L 1374.6504 467.30273 L 1192.3594 110.64844 L 720.78516 106.68555 z M 716.82227 831.88281 L 609.82617 1140.9824 L 685.11914 1493.6719 L 740.59766 1537.2637 L 716.82227 1446.1191 L 736.63672 1196.4609 L 784.18945 930.95312 L 716.82227 831.88281 z M 1196.3613 847.33789 L 1128.9941 946.4082 L 1176.5488 1211.916 L 1196.3613 1461.5742 L 1172.5859 1552.7188 L 1228.0645 1509.127 L 1303.3574 1156.4375 L 1196.3613 847.33789 z "
       style="stroke:none;fill-opacity:1.0;fill:url(#linearGradient970)"
       id="path840" />
    <path
       style="stroke-width:1.0485;stroke:none"
       id="path870"
       fill="none"
       d="m 142.47677,123.64054 71.2977,117.43151 36.69735,-8.38797 2.09699,-204.456638 -60.81275,-2.096991 z" />
  </g>
</svg>
