<svg alt=back class=darkmode_support_image style=width:10vmax title=back version=1.1 viewBox="0 0 500 500"xmlns=http://www.w3.org/2000/svg xmlns:cc=http://creativecommons.org/ns# xmlns:dc=http://purl.org/dc/elements/1.1/ xmlns:rdf=http://www.w3.org/1999/02/22-rdf-syntax-ns#> <metadata> <rdf:RDF> <cc:Work rdf:about=""> <dc:format>image/svg+xml</dc:format> <dc:type rdf:resource=http://purl.org/dc/dcmitype/StillImage /> <dc:title/> </cc:Work> </rdf:RDF> </metadata> <g transform="translate(395.48 46.469)"></g> <path d="m442.08 287.07h-12.39l-29.511-38.87-8.6142 8.3483v30.522h-9.5713v-77.793h9.5713v37.169l34.51-37.169h12.868l-32.596 33.021zm-75.294-17.441q-2.9246 6.6999-8.4015 11.22-9.3054 7.8166-22.12 7.8166-16.537 0-27.225-11.645-9.8903-10.901-9.8903-28.554 0-18.292 10.794-29.724 10.316-11.007 25.896-11.007 21.748 0 30.415 18.664l-8.7205 4.0412q-6.5404-14.41-21.589-14.41-11.06 0-18.504 8.4015-7.8166 8.9864-7.8166 24.194 0 13.134 6.6467 21.535 7.7634 9.9435 20.047 9.9435 15.208 0 22.386-14.41zm-74.39 17.441h-10.422l-8.6142-22.918h-31.266l-8.4546 22.918h-10.369l30.841-78.325h7.7102zm-21.748-30.628-7.8697-20.685q-3.2436-8.6673-4.892-15.686h-0.31904q-1.9143 7.4443-4.9984 15.686l-7.7102 20.685zm-73.433-9.5713q19.196 3.4031 19.196 18.504 0 13.293-13.187 18.983-6.2745 2.7119-16.112 2.7119h-25.258v-77.793h22.227q9.8372 0 16.218 2.2865 13.187 4.7325 13.187 17.175 0 14.995-16.271 17.76zm-26.002-3.9349h11.645q20.738 0 20.738-13.187 0-12.762-20.1-12.762h-12.283zm0 36.318h14.57q20.525 0 20.525-14.41 0-8.9864-10.156-12.443-5.9023-2.0738-12.762-2.0738h-12.177zm78.08-200.11-239.75 170.82 239.75 170.89v-86.131h241.17v-170.55h-241.17z"fill=#ff6a00 /> </svg>