<?xml version="1.0" encoding="UTF-8" standalone="no"?>
<!-- Created with Inkscape (http://www.inkscape.org/) -->

<svg
   xmlns:dc="http://purl.org/dc/elements/1.1/"
   xmlns:cc="http://creativecommons.org/ns#"
   xmlns:rdf="http://www.w3.org/1999/02/22-rdf-syntax-ns#"
   xmlns:svg="http://www.w3.org/2000/svg"
   xmlns="http://www.w3.org/2000/svg"
   xmlns:xlink="http://www.w3.org/1999/xlink"
   xmlns:sodipodi="http://sodipodi.sourceforge.net/DTD/sodipodi-0.dtd"
   xmlns:inkscape="http://www.inkscape.org/namespaces/inkscape"
   version="1.1"
   id="svg947"
   width="1800"
   height="500"
   viewBox="0 0 1800 500"
   sodipodi:docname="menu.svg"
   inkscape:version="0.92.4 (5da689c313, 2019-01-14)">
  <metadata
     id="metadata953">
    <rdf:RDF>
      <cc:Work
         rdf:about="">
        <dc:format>image/svg+xml</dc:format>
        <dc:type
           rdf:resource="http://purl.org/dc/dcmitype/StillImage" />
        <dc:title></dc:title>
      </cc:Work>
    </rdf:RDF>
  </metadata>
  <defs
     id="defs951" />
  <sodipodi:namedview
     pagecolor="#ffffff"
     bordercolor="#666666"
     borderopacity="1"
     objecttolerance="10"
     gridtolerance="10"
     guidetolerance="10"
     inkscape:pageopacity="0"
     inkscape:pageshadow="2"
     inkscape:window-width="1366"
     inkscape:window-height="705"
     id="namedview949"
     showgrid="false"
     inkscape:zoom="0.56"
     inkscape:cx="652.49341"
     inkscape:cy="220.40596"
     inkscape:window-x="-8"
     inkscape:window-y="-8"
     inkscape:window-maximized="1"
     inkscape:current-layer="svg947" />
  <flowRoot
     xml:space="preserve"
     id="flowRoot1513"
     style="fill:black;fill-opacity:1;stroke:none;font-family:IPAPGothic;font-style:normal;font-weight:normal;font-size:108.9px;line-height:1.25;letter-spacing:0px;word-spacing:0px;-inkscape-font-specification:IPAPGothic;font-stretch:normal;font-variant:normal"><flowRegion
       id="flowRegion1515"><rect
         id="rect1517"
         width="22.728432"
         height="138.89598"
         x="558.10925"
         y="133.8197" /></flowRegion><flowPara
       id="flowPara1519"></flowPara></flowRoot>  <g
     id="g1511"
     transform="translate(1.184718,5.2270101)">
    <rect
       ry="15.178572"
       y="121.66071"
       x="101.53572"
       height="30.357143"
       width="304.01785"
       id="rect1500"
       style="opacity:1;fill:#ff6a00;fill-opacity:1;stroke:none;stroke-width:18.89763832;stroke-linejoin:round;stroke-miterlimit:4;stroke-dasharray:none;stroke-opacity:1;paint-order:fill markers stroke" />
    <use
       height="100%"
       width="100%"
       transform="translate(-0.5253814,107.86741)"
       id="use1504"
       xlink:href="#rect1500"
       y="0"
       x="0" />
    <use
       height="100%"
       width="100%"
       transform="translate(0,108)"
       id="use1506"
       xlink:href="#use1504"
       y="0"
       x="0" />
  </g>
  <g
     aria-label="MENU"
     style="font-style:normal;font-variant:normal;font-weight:normal;font-stretch:normal;font-size:387.23294067px;line-height:1.25;font-family:IPAPGothic;-inkscape-font-specification:IPAPGothic;letter-spacing:0px;word-spacing:0px;fill:#ff6a00;fill-opacity:1;stroke:none;stroke-width:3.55585814"
     id="text1523">
    <path
       d="M 879.66188,384.5294 H 846.38405 V 234.96824 q 0,-45.18978 2.26894,-96.80823 h -1.51263 q -15.12628,43.67715 -32.89967,88.2997 L 753.73554,375.45363 H 728.58809 L 667.51571,223.24537 q -18.90786,-47.26965 -31.00889,-85.46352 h -1.51263 q 2.26894,60.8833 2.26894,96.05192 V 384.5294 H 605.11977 V 107.90743 h 48.78228 l 65.79935,162.60759 q 11.72287,28.55086 22.12219,62.77409 h 1.13447 q 8.50854,-30.81981 20.98773,-62.01778 l 65.42119,-163.3639 h 50.2949 z"
       style="stroke-width:3.55585814"
       id="path1555" />
    <path
       d="M 1132.2709,384.5294 H 954.53701 V 107.90743 h 173.00689 v 29.49626 H 988.193 v 90.56864 h 123.4683 v 27.79456 H 988.193 v 98.8881 h 144.0779 z"
       style="stroke-width:3.55585814"
       id="path1557" />
    <path
       d="m 1405.1113,384.5294 h -31.0089 L 1251.0123,197.71976 q -13.9919,-21.1768 -33.656,-57.29081 h -1.5127 l 0.7564,18.15154 q 1.8907,60.12699 1.8907,80.3584 V 384.5294 h -33.2778 V 107.90743 h 45.757 l 105.695,160.7168 q 20.6095,32.14336 36.303,61.26146 h 1.5127 q -2.6471,-56.34542 -2.6471,-90.9468 V 107.90743 h 33.2778 z"
       style="stroke-width:3.55585814"
       id="path1559" />
    <path
       d="m 1697.8049,107.90743 v 181.70452 q 0,38.57203 -18.9078,62.77409 -30.6308,39.70651 -91.8922,39.70651 -61.4506,0 -92.6485,-39.70651 -18.5297,-23.8239 -18.5297,-62.77409 V 107.90743 h 34.0341 v 177.54479 q 0,34.22323 16.6389,52.56385 22.1222,24.39114 60.5052,24.39114 38.9502,0 60.5051,-24.39114 16.6389,-18.90786 16.6389,-52.56385 V 107.90743 Z"
       style="stroke-width:3.55585814"
       id="path1561" />
  </g>
</svg>
