<?xml version="1.0" standalone="no"?>
<!DOCTYPE svg PUBLIC "-//W3C//DTD SVG 20010904//EN"
 "http://www.w3.org/TR/2001/REC-SVG-20010904/DTD/svg10.dtd">
<svg version="1.0" xmlns="http://www.w3.org/2000/svg"
 width="874.000000pt" height="874.000000pt" viewBox="0 0 874.000000 874.000000"
 preserveAspectRatio="xMidYMid meet">
<metadata>
Created by potrace 1.11, written by Peter Selinger 2001-2013
</metadata>
<g transform="translate(0.000000,874.000000) scale(0.100000,-0.100000)"
fill="#000000" stroke="none">
<path d="M4178 8736 c-1 -2 -48 -6 -103 -10 -108 -7 -183 -14 -230 -22 -16 -3
-52 -7 -80 -10 -84 -9 -343 -63 -477 -99 -287 -78 -591 -200 -818 -330 -36
-21 -85 -49 -110 -63 -251 -142 -634 -461 -842 -702 -26 -30 -59 -68 -73 -85
-141 -162 -330 -440 -447 -655 -50 -91 -128 -240 -127 -243 0 -1 -14 -33 -31
-72 -58 -127 -131 -317 -180 -464 -43 -129 -121 -411 -134 -481 -2 -14 -13
-70 -25 -125 -22 -111 -56 -324 -66 -425 -4 -36 -9 -76 -11 -90 -26 -195 -25
-864 1 -1035 3 -16 7 -56 10 -87 4 -49 28 -219 39 -283 20 -113 41 -215 58
-285 11 -47 21 -93 23 -102 16 -78 105 -369 142 -468 202 -535 423 -924 741
-1305 107 -128 337 -356 472 -466 148 -122 244 -191 438 -311 173 -107 476
-246 707 -323 101 -34 369 -106 440 -119 229 -40 274 -47 440 -66 78 -9 897
-6 960 4 22 3 54 8 70 11 17 3 50 8 75 11 206 26 674 149 815 214 11 5 61 25
110 45 88 36 276 128 385 188 157 86 442 287 590 415 92 80 341 330 393 394
21 26 43 53 50 60 31 33 152 194 219 294 140 206 296 489 372 674 15 36 33 79
41 95 103 232 226 668 280 995 24 141 24 141 30 200 4 30 10 84 15 120 10 71
7 1189 -2 1230 -4 14 -9 52 -13 85 -3 33 -11 89 -16 125 -6 36 -12 81 -15 100
-2 19 -16 91 -30 160 -14 69 -27 136 -30 150 -22 111 -105 407 -145 517 -97
269 -209 526 -289 663 -15 25 -44 76 -65 115 -55 100 -163 264 -257 390 -163
217 -432 496 -638 661 -134 107 -218 165 -405 281 -196 121 -461 242 -720 328
-139 47 -380 113 -440 121 -11 1 -72 11 -135 23 -140 24 -164 28 -260 36 -41
4 -86 9 -100 12 -27 5 -596 13 -602 9z m467 -869 c94 -11 155 -20 225 -34 41
-8 85 -17 97 -19 12 -2 76 -20 141 -38 517 -149 1000 -475 1345 -906 38 -47
74 -92 81 -101 29 -36 146 -219 198 -309 106 -187 209 -418 280 -635 41 -124
113 -410 132 -525 9 -52 18 -106 21 -120 5 -30 13 -88 20 -150 3 -25 8 -64 10
-87 31 -254 35 -652 10 -988 -8 -106 -36 -340 -50 -415 -3 -14 -7 -41 -10 -60
-50 -312 -174 -716 -306 -995 -110 -234 -273 -492 -424 -674 -50 -61 -267
-276 -335 -331 -375 -310 -887 -534 -1315 -575 -206 -19 -599 -27 -685 -13
-25 4 -61 10 -80 13 -645 108 -1237 438 -1642 915 -314 371 -542 839 -673
1380 -10 40 -48 229 -51 255 -2 17 -8 53 -14 80 -5 28 -12 73 -15 101 -3 28
-7 59 -9 70 -2 11 -7 60 -11 110 -4 49 -10 93 -13 98 -12 20 -9 723 3 861 20
220 25 266 35 325 5 30 12 71 15 90 49 314 148 663 265 935 52 122 158 331
207 408 15 23 42 67 61 97 176 279 417 533 727 768 124 94 423 252 596 316 89
33 247 82 294 92 11 2 34 7 50 11 17 4 32 7 35 8 3 1 39 7 80 14 41 7 86 15
100 17 14 2 59 7 100 10 41 4 77 8 79 10 5 4 376 -4 426 -9z"/>
</g>
</svg>
