<?xml version="1.0" encoding="UTF-8"?>
<svg width="512" height="42" version="1.1" viewBox="0 0 135.47 11.112" xmlns="http://www.w3.org/2000/svg">
 <g>
  <text x="159.38292" y="156.19502" font-family="'Yu Gothic'" font-size="10.583px" font-weight="bold" stroke-width=".26458" style="line-height:1.25" xml:space="preserve"><tspan x="159.38292" y="156.19502" stroke-width=".26458"/></text>
  <path d="m17.131 0c-0.99381 0-1.9085 0.2536-2.7321 0.75603-0.82238 0.49343-1.4758 1.1681-1.9513 2.0154-0.46724 0.84796-0.70332 1.7786-0.70332 2.7792 0 1.0083 0.23074 1.9415 0.68936 2.7895 0.46683 0.8472 1.1103 1.5273 1.9239 2.0293a0.17523 0.17523 0 0 0 0.0021 0c0.81683 0.49531 1.7448 0.74414 2.7714 0.74414 1.0103 0 1.9318-0.24912 2.7482-0.74414 0.82228-0.50202 1.4673-1.1812 1.926-2.0293 0.45863-0.84803 0.6873-1.7812 0.6873-2.7895 0-1.0081-0.23416-1.9374-0.70125-2.7771v-0.00207c-0.45886-0.84779-1.1031-1.5219-1.9255-2.0154-0.8158-0.50295-1.7328-0.75603-2.7347-0.75603zm21.508 0c-0.99382 0-1.9085 0.2536-2.7321 0.75603-0.82238 0.49343-1.4758 1.1681-1.9513 2.0154-0.46724 0.84796-0.70125 1.7786-0.70125 2.7792 0 1.0083 0.22919 1.9415 0.68781 2.7895 0.46683 0.8472 1.1119 1.5273 1.9255 2.0293 0.81683 0.49531 1.7448 0.74414 2.7714 0.74414 1.0103 0 1.9318-0.24912 2.7482-0.74414 0.82228-0.50202 1.4673-1.1812 1.926-2.0293 0.45863-0.84803 0.6873-1.7812 0.6873-2.7895 0-1.0088-0.23355-1.939-0.70125-2.7792-0.45874-0.84721-1.1034-1.5222-1.9255-2.0154-0.8158-0.50295-1.7328-0.75603-2.7347-0.75603zm78.893 0c-0.99448 0-1.9102 0.25294-2.7342 0.75603-0.82239 0.49343-1.4758 1.1681-1.9513 2.0154-0.46724 0.84796-0.70124 1.7786-0.70124 2.7792 0 1.0083 0.22867 1.9415 0.68729 2.7895a0.17523 0.17523 0 0 0 2e-3 0c0.46683 0.8472 1.1103 1.5273 1.9239 2.0293 0.81683 0.49531 1.7469 0.74414 2.7735 0.74414 1.0102 0 1.9297-0.24912 2.7461-0.74414 0.82228-0.50202 1.4673-1.1812 1.926-2.0293 0.45863-0.84803 0.68936-1.7812 0.68936-2.7895 0-1.0088-0.2356-1.939-0.70331-2.7792-0.45878-0.84721-1.1039-1.5222-1.926-2.0154-0.8158-0.50295-1.7302-0.75603-2.7321-0.75603zm-92.887 0.18965a0.17523 0.17523 0 0 0-0.1757 0.17363v10.385a0.17523 0.17523 0 0 0 0.1757 0.1757h3.5998c0.7169 0 1.337-0.12462 1.8536-0.38292 0.51409-0.25704 0.90561-0.62462 1.1581-1.0935 0.25894-0.47324 0.38654-1.0193 0.38654-1.6309 0-0.5457-0.12114-1.0253-0.3669-1.4258-0.23016-0.38866-0.52251-0.6941-0.8754-0.90279-0.21078-0.12971-0.42405-0.16519-0.63665-0.23048 0.1534-0.074028 0.3141-0.10448 0.45889-0.22996 0.2807-0.24448 0.50549-0.55591 0.67386-0.92811 0.16998-0.37576 0.25424-0.7847 0.25425-1.2185 0-0.92972-0.3354-1.6454-0.99839-2.0722-0.64779-0.41707-1.474-0.61908-2.4629-0.61908zm79.307 0a0.17523 0.17523 0 0 0-0.1757 0.17363v1.4237a0.17523 0.17523 0 0 0 0.1757 0.17415h2.543v8.7871a0.17523 0.17523 0 0 0 0.1757 0.1757h1.5978a0.17523 0.17523 0 0 0 0.1757-0.1757v-8.7871h2.543a0.17523 0.17523 0 0 0 0.17569-0.17415v-1.4237a0.17523 0.17523 0 0 0-0.17569-0.17363zm21.066 0a0.17523 0.17523 0 0 0-0.17415 0.17363v10.385a0.17523 0.17523 0 0 0 0.17415 0.1757h1.586a0.17523 0.17523 0 0 0 0.1757-0.1757v-4.1429h1.1307l2.3166 4.2266a0.17523 0.17523 0 0 0 0.154 0.09198h1.7875a0.17523 0.17523 0 0 0 0.15193-0.26355l-2.4546-4.2659c0.28832-0.062431 0.57601-0.13764 0.86092-0.31833 0.37184-0.2358 0.68002-0.58366 0.92605-1.0309 0.26087-0.45876 0.3886-1.0073 0.3886-1.635 0-0.65348-0.14494-1.2278-0.43924-1.711l-2e-3 -0.00207c-0.28362-0.48647-0.6735-0.86524-1.1622-1.1229-0.48827-0.25745-1.0392-0.38447-1.6428-0.38447zm-64.615 0.18707a0.17523 0.17523 0 0 0-0.1757 0.17622v10.384a0.17523 0.17523 0 0 0 0.1757 0.17622h1.586a0.17523 0.17523 0 0 0 0.17363-0.17622v-10.384a0.17523 0.17523 0 0 0-0.17363-0.17622zm4.5036 0a0.17523 0.17523 0 0 0-0.1757 0.17622v10.384a0.17523 0.17523 0 0 0 0.1757 0.17622h1.586a0.17523 0.17523 0 0 0 0.1757-0.17622v-7.3143l4.0256 7.3985a0.17523 0.17523 0 0 0 0.15451 0.09198h1.8123a0.17523 0.17523 0 0 0 0.1757-0.17621v-10.384a0.17523 0.17523 0 0 0-0.1757-0.17622h-1.5859a0.17523 0.17523 0 0 0-0.1757 0.17622v7.3024l-4.0256-7.3866a0.17523 0.17523 0 0 0-0.154-0.091984zm20.916 0a0.17523 0.17523 0 0 0-0.1757 0.17622v10.384a0.17523 0.17523 0 0 0 0.1757 0.17622h5.7402a0.17523 0.17523 0 0 0 0.17415-0.17622v-1.4216a0.17523 0.17523 0 0 0-0.17415-0.1757h-3.9786v-2.7461h3.9026a0.17523 0.17523 0 0 0 0.1757-0.1757v-1.3849a0.17523 0.17523 0 0 0-0.1757-0.17415h-3.9026v-2.7089h3.9786a0.17523 0.17523 0 0 0 0.17415-0.1757v-1.4216a0.17523 0.17523 0 0 0-0.17415-0.17622zm40.957 1.4593h1.4609c0.5758 0 1.0142 0.13702 1.3379 0.40049 0.31457 0.25605 0.47645 0.64604 0.47645 1.2242 0 0.57737-0.16558 0.97128-0.48989 1.2366-0.3237 0.26348-0.76056 0.40049-1.3364 0.40049h-1.449zm-109.65 0.011369c0.64942 0 1.2219 0.16639 1.7306 0.50023a0.17523 0.17523 0 0 0 0.0021 0.00207c0.51919 0.32749 0.9197 0.77153 1.2087 1.3415 0.28964 0.57123 0.43356 1.1882 0.43356 1.8593 0 0.67116-0.14393 1.2865-0.43356 1.8578-0.28872 0.56942-0.68983 1.0176-1.2087 1.3534-0.51801 0.32675-1.0913 0.49041-1.7327 0.49041-0.6486 0-1.2232-0.16336-1.7399-0.48834l-0.0021-0.00207c-0.51103-0.33592-0.91334-0.78264-1.2108-1.3534-0.28964-0.57123-0.43356-1.1866-0.43356-1.8578 0-0.67049 0.1445-1.2865 0.43356-1.8573v-0.00207c0.29766-0.57067 0.6999-1.0142 1.2108-1.3415 0.51758-0.33444 1.0926-0.50229 1.742-0.50229zm9.2754 0h1.1953c0.55616 1e-7 0.9639 0.11096 1.2325 0.30696 0.25723 0.18771 0.39274 0.50027 0.39274 1.0036 0 0.25954-0.05508 0.50506-0.17002 0.74259a0.17523 0.17523 0 0 0-0.0021 0.00155c-0.10355 0.2219-0.25736 0.39498-0.47439 0.52968-0.21115 0.13106-0.47358 0.20102-0.80098 0.20102h-1.373zm12.232 0c0.64942 1e-7 1.2219 0.16639 1.7306 0.50023a0.17523 0.17523 0 0 0 0.0021 0.00207c0.51919 0.32749 0.9197 0.77153 1.2087 1.3415 0.28964 0.57123 0.43408 1.1882 0.43408 1.8593 0 0.67116-0.14444 1.2865-0.43408 1.8578-0.28872 0.56942-0.68983 1.0176-1.2087 1.3534-0.51801 0.32675-1.0913 0.49041-1.7327 0.49041-0.64861 0-1.2232-0.16336-1.7399-0.48834l-0.0021-0.00207c-0.51103-0.33592-0.91334-0.78264-1.2108-1.3534h0.0021c-0.28972-0.57123-0.43566-1.1866-0.43566-1.8578 0-0.67116 0.14599-1.2881 0.43563-1.8593 0.2976-0.57008 0.69821-1.0145 1.2087-1.3415 0.51758-0.33444 1.0926-0.50229 1.742-0.50229zm78.893 0c0.64942 1e-7 1.2199 0.16639 1.7286 0.50023a0.17523 0.17523 0 0 0 2e-3 0.00207c0.51919 0.32749 0.9197 0.77153 1.2087 1.3415 0.28964 0.57123 0.43357 1.1882 0.43357 1.8593 0 0.67116-0.14393 1.2865-0.43357 1.8578-0.28872 0.56942-0.68983 1.0176-1.2087 1.3534-0.51801 0.32674-1.0892 0.49041-1.7306 0.49041-0.65014 0-1.2264-0.16388-1.7441-0.49041-0.51103-0.33592-0.91333-0.78264-1.2108-1.3534h2e-3c-0.28964-0.57123-0.43357-1.1866-0.43357-1.8578 0-0.67116 0.14393-1.2881 0.43357-1.8593 0.2976-0.57008 0.69872-1.0145 1.2092-1.3415 0.51758-0.33444 1.0947-0.50229 1.7441-0.50229zm-100.46 2.7828a0.92614 0.92614 0 0 0-0.92604 0.92604 0.92614 0.92614 0 0 0 0.92604 0.92604 0.92614 0.92614 0 0 0 0.92656-0.92604 0.92614 0.92614 0 0 0-0.92656-0.92604zm21.598 0a0.92614 0.92614 0 0 0-0.92604 0.92604 0.92614 0.92614 0 0 0 0.92604 0.92604 0.92614 0.92614 0 0 0 0.92604-0.92604 0.92614 0.92614 0 0 0-0.92604-0.92604zm-12.265 1.6356h1.51c0.38332 0 0.69618 0.065805 0.94309 0.18552a0.17523 0.17523 0 0 0 0.0062 0.00207c0.25702 0.11339 0.43869 0.27138 0.56224 0.48214a0.17523 0.17523 0 0 0 0.0021 0.00413c0.13154 0.21192 0.19947 0.47069 0.19947 0.7891 0 0.48918-0.12493 0.85441-0.36949 1.1286a0.17523 0.17523 0 0 0-0.0021 0.00207c-0.22245 0.25721-0.62477 0.40411-1.2516 0.40411h-1.5999z" color="#000000" fill="#b5b5b5" style="-inkscape-stroke:none;font-variation-settings:'wght' 500"/>
  <g stroke-linecap="round" stroke-linejoin="round">
   <path transform="scale(.26458)" d="m355.63 1.4238c-0.36552 8.911e-4 -0.6607 0.29853-0.66016 0.66406v11.133 7.4492 20.664c-5.3e-4 0.36552 0.29462 0.66318 0.66016 0.66406h5.9941c0.36635 2.53e-4 0.66459-0.29772 0.66406-0.66406v-20.664-6.9844c0-0.53452-1e-5 0.019678 0-0.46484v-11.133c5.3e-4 -0.36633-0.29774-0.66431-0.66406-0.66406h-5.9941zm23.281 0.0039063c-0.36548 8.91e-4 -0.66069 0.29658-0.66016 0.66211v11.133 7.4512 20.662c-5.3e-4 0.36552 0.29464 0.66317 0.66016 0.66406h5.9941c0.36623 2.49e-4 0.66459-0.29775 0.66406-0.66406v-20.662-6.9863-0.46484-11.133c5.3e-4 -0.36633-0.29764-0.66236-0.66406-0.66211h-5.9941z" color="#000000" fill="#ffce7e" stroke-width="1.3245" style="-inkscape-stroke:none"/>
   <path d="m94.09 0.37679a0.17523 0.17523 0 0 0-0.03422 0.00355c0.01107-0.002119 0.02252-0.003523 0.03422-0.00355zm1.5863 0c0.09692-6.622e-5 0.17549 0.078565 0.17535 0.17549v2.9455c-3e-6 0.1282 0-0.01849 0 0.12293l4.0257 7.3995a0.17523 0.17523 0 0 0 0.15414 0.09158h0.2234c-0.0954-0.0019-0.17221-0.07944-0.17207-0.17522v-10.384c-1.4e-4 -0.09671 0.0781-0.17525 0.1748-0.17549h1.5863c0.0726-5.033e-5 0.13505 0.044102 0.16166 0.10705a0.17523 0.17523 0 0 0-0.16166-0.10732h-1.5857a0.17523 0.17523 0 0 0-0.17549 0.17535v7.3053l-4.0261-7.3891a0.17523 0.17523 0 0 0-0.15358-0.091576zm-1.6224 0.003973a0.17523 0.17523 0 0 0-0.03093 0.009722c0.0099-0.004132 0.02021-0.007444 0.03093-0.009722zm-0.03312 0.010675a0.17523 0.17523 0 0 0-0.02861 0.015602c9e-3 -0.006066 0.0186-0.011258 0.02861-0.015602zm-0.02861 0.015602a0.17523 0.17523 0 0 0-0.02506 0.020662c0.0077-0.007629 0.01605-0.014569 0.02506-0.020662zm-0.02656 0.022172a0.17523 0.17523 0 0 0-0.01997 0.02437c0.0059-0.008689 0.01263-0.016874 0.01997-0.02437zm-0.02122 0.026278a0.17523 0.17523 0 0 0-0.01547 0.028608c0.0043-0.010092 0.0095-0.019576 0.01547-0.028608zm-0.01547 0.028608a0.17523 0.17523 0 0 0-0.0099 0.03162c0.0024-0.010914 0.0056-0.021562 0.0099-0.03162zm8.0766 2.6489e-4c4e-3 0.010066 8e-3 0.020688 0.01 0.03162a0.17523 0.17523 0 0 0-0.01-0.03162zm-8.087 0.033949a0.17523 0.17523 0 0 0-0.0033 0.033811c-8e-6 -0.011602 0.0011-0.022834 0.0033-0.033811zm8.0974 5.2979e-4c2e-3 0.010834 3e-3 0.02196 3e-3 0.0334a0.17523 0.17523 0 0 0-3e-3 -0.0334zm-8.1007 10.418a0.17523 0.17523 0 0 0 0.0033 0.03422c-0.0021-0.01107-0.0033-0.02252-0.0033-0.03422zm1.9364 0c1.6e-5 0.01192-0.0013 0.02363-0.0035 0.03491a0.17523 0.17523 0 0 0 0.0035-0.03491zm6.1676 5.3e-4c1e-5 0.01118-1e-3 0.02212-3e-3 0.03272a0.17523 0.17523 0 0 0 3e-3 -0.03272zm-8.1003 0.03559a0.17523 0.17523 0 0 0 0.0097 0.03148c-0.0042-0.01001-0.0075-0.02064-0.0097-0.03148zm1.929 0c-0.0021 0.01076-0.0055 0.02114-0.0096 0.03107a0.17523 0.17523 0 0 0 0.0096-0.03107zm6.1671 0.0024c-2e-3 0.0094-5e-3 0.01849-8e-3 0.02724a0.17523 0.17523 0 0 0 8e-3 -0.02724zm-8.0857 0.03066a0.17523 0.17523 0 0 0 0.01491 0.02792c-0.0058-0.0088-0.01073-0.01812-0.01491-0.02792zm1.9081 5.3e-4c-0.0042 0.0099-0.0093 0.01923-0.0152 0.02806a0.17523 0.17523 0 0 0 0.0152-0.02806zm6.1665 0.0024c-4e-3 0.0086-8e-3 0.01674-0.0133 0.0245a0.17523 0.17523 0 0 0 0.0133-0.0245zm-6.1825 0.02697c-0.0061 9e-3 -0.01314 0.01748-0.02079 0.02519a0.17523 0.17523 0 0 0 0.02079-0.02519zm-1.8758 1.41e-4a0.17523 0.17523 0 0 0 0.01984 0.02408c-0.0073-0.0074-0.01399-0.01547-0.01984-0.02408zm8.0423 0.0013c-5e-3 0.0077-0.0113 0.01489-0.0178 0.02162a0.17523 0.17523 0 0 0 0.0178-0.02162zm-6.188 0.02437c-0.0075 0.0075-0.01573 0.01422-0.0245 0.02027a0.17523 0.17523 0 0 0 0.0245-0.02027zm-1.8328 1.41e-4a0.17523 0.17523 0 0 0 0.02506 0.02066c-9e-3 -0.0061-0.01735-0.01303-0.02506-0.02066zm0.02506 0.02066a0.17523 0.17523 0 0 0 0.02833 0.01547c-0.0099-0.0043-0.01947-0.0095-0.02833-0.01547zm7.973-0.01862c-6e-3 6e-3 -0.0129 0.01155-0.02 0.01656a0.17523 0.17523 0 0 0 0.02-0.01656zm-6.1921 0.01971c-0.0086 0.0057-0.01778 0.01065-0.02738 0.01478a0.17523 0.17523 0 0 0 0.02738-0.01478zm6.1651 0.0016c-7e-3 0.0044-0.014 0.0082-0.0215 0.01163a0.17523 0.17523 0 0 0 0.0215-0.01163zm-7.9147 0.01425a0.17523 0.17523 0 0 0 0.03053 0.0095c-0.01057-0.0021-0.02077-0.0054-0.03053-0.0095zm1.7197 0c-0.0098 0.0041-0.02016 0.0073-0.0308 0.0096a0.17523 0.17523 0 0 0 0.0308-0.0096zm6.1653 0.0011c-8e-3 0.0031-0.016 0.0056-0.0244 0.0075a0.17523 0.17523 0 0 0 0.0244-0.0075zm-7.8532 0.0088a0.17523 0.17523 0 0 0 0.03477 0.0035c-0.01189-2.9e-5 -0.02355-0.0013-0.03477-0.0035zm1.655 2.64e-4c-0.01102 0.0021-0.0223 0.0033-0.03395 0.0033a0.17523 0.17523 0 0 0 0.03395-0.0033zm6.1649 5.3e-4c-9e-3 0.0016-0.0181 0.0026-0.0274 0.0027a0.17523 0.17523 0 0 0 0.0274-0.0027z" color="#000000" fill="#eabc71" stroke-width=".35043" style="-inkscape-stroke:none"/>
   <path transform="scale(.26458)" d="m361.61 1.4238c0.36631-2.516e-4 0.66459 0.29773 0.66406 0.66406v11.133 0.46484l2.0781 3.8203v-4.0781c0-0.53452-3e-5 0.019674 0-0.46484v-8.7988l-1.3047-2.3945a0.6623 0.6623 0 0 0-0.58008-0.3457h-0.85742zm17.318 0a0.6623 0.6623 0 0 0-0.01367 0.0019531c0.00389-7.7e-5 0.0078 9.6e-6 0.01171 0h5.916v-0.0019531h-5.9141zm-0.01367 0.0019531c-0.06436 0.0012731-0.12699 0.01093-0.18555 0.029297a0.6623 0.6623 0 0 1 0.18555-0.029297zm-0.19336 0.033203c-0.06307 0.020704-0.12268 0.05034-0.17578 0.087891a0.6623 0.6623 0 0 1 0.17578-0.087891zm-0.17578 0.087891a0.6623 0.6623 0 0 0-0.02344 0.019531c0.00808-0.0062938 0.01506-0.01361 0.02344-0.019531zm-0.02344 0.019531c-0.04241 0.033037-0.08002 0.071048-0.11328 0.11328a0.6623 0.6623 0 0 1 0.11328-0.11328zm-0.11328 0.11328a0.6623 0.6623 0 0 0-0.02344 0.029297c0.00715-0.010211 0.01574-0.01952 0.02344-0.029297zm-0.02344 0.029297c-0.03624 0.051736-0.06554 0.10686-0.08594 0.16797a0.6623 0.6623 0 0 1 0.08594-0.16797zm-0.08984 0.18164c-0.0189 0.060993-0.03086 0.12626-0.03126 0.19336a0.6623 0.6623 0 0 1 0.03126-0.19336zm-0.62891 26.709v12.479c0 0.36552 0.29464 0.66317 0.66015 0.66406h0.08204c-0.08844-0.11252-0.14453-0.25178-0.14454-0.40625v-11.639l-0.59765-1.0977zm-15.393 12.734a0.6623 0.6623 0 0 1-0.01367 0.13281c0.00869-0.042633 0.01372-0.087761 0.01367-0.13281zm-0.01562 0.13672a0.6623 0.6623 0 0 1-0.03516 0.11719c0.0155-0.037531 0.02722-0.076558 0.03516-0.11719zm-0.03907 0.12695c-0.01587 0.037418-0.03618 0.072096-0.05859 0.10547a0.6623 0.6623 0 0 0 0.05859-0.10547zm-0.06054 0.11133c-0.00756 0.011339-0.0167 0.020668-0.02539 0.03125h0.00195a0.6623 0.6623 0 0 0 0.02344-0.03125z" color="#000000" fill="#d6ac67" stroke-width="1.3245" style="-inkscape-stroke:none"/>
  </g>
  <g stroke-width="1.3245">
   <path transform="scale(.26458)" d="m310.29 1.4277a0.6623 0.6623 0 0 0-0.62695 0.44531l-10.365 30.018-10.408-30.018a0.6623 0.6623 0 0 0-0.15234-0.23438c0.05947 0.064912 0.1066 0.14166 0.13672 0.22852l13.885 40.127h-6.9922c-0.01177 0-0.0235-0.001349-0.03515-0.001953a0.6623 0.6623 0 0 0 0.04883 0.007812h6.9922a0.6623 0.6623 0 0 0 0.625-0.43555l14.27-39.25a0.6623 0.6623 0 0 0-0.6211-0.88672h-6.7559zm-14.559 40.564a0.6623 0.6623 0 0 1-0.16602-0.029297c0.05295 0.016948 0.10894 0.026334 0.16602 0.029297zm-6.9941-40.354c-0.01829-0.019964-0.03808-0.039125-0.0586-0.056641a0.6623 0.6623 0 0 1 0.0586 0.056641zm-0.0586-0.056641a0.6623 0.6623 0 0 0-0.06445-0.048828c0.02261 0.014958 0.04383 0.031216 0.06445 0.048828zm-0.06445-0.048828c-0.04631-0.030635-0.0955-0.055856-0.14844-0.074219a0.6623 0.6623 0 0 1 0.14844 0.074219zm6.8828 40.402c0.02192 0.010205 0.04309 0.019785 0.06641 0.027344a0.6623 0.6623 0 0 1-0.06641-0.027344z" color="#000000" fill="#9ecd7a" style="-inkscape-stroke:none"/>
   <path transform="scale(.26458)" d="m281.5 1.4219c-0.45886 5.715e-4 -0.7773 0.45525-0.6211 0.88672l14.271 39.25c0.09505 0.2616 0.34472 0.43528 0.62304 0.43555h6.9922l-13.885-40.127c-0.09242-0.26673-0.34275-0.44542-0.625-0.44531h-6.7559z" color="#000000" fill="#acdf86" style="-inkscape-stroke:none"/>
   <path transform="scale(.26458)" d="m288.47 1.459a0.6623 0.6623 0 0 1 0.14844 0.074219c-0.04632-0.030635-0.09551-0.055856-0.14844-0.074219zm0.14844 0.074219c0.02262 0.014958 0.04382 0.031216 0.06445 0.048828a0.6623 0.6623 0 0 0-0.06445-0.048828zm0.06445 0.048828a0.6623 0.6623 0 0 1 0.0586 0.056641c-0.0183-0.019964-0.03808-0.039125-0.0586-0.056641zm0.0586 0.056641c0.05948 0.064912 0.10665 0.14166 0.13672 0.22852l13.885 40.127h0.10156a0.6623 0.6623 0 0 0 0.53711-0.42969l0.13868-0.38281-3.7266-10.771-0.51172 1.4805-10.408-30.018a0.6623 0.6623 0 0 0-0.15234-0.23438z" color="#000000" fill="#8cb66f" style="-inkscape-stroke:none"/>
  </g>
  <g stroke-linecap="round" stroke-linejoin="round" stroke-width=".35043">
   <path d="m3.1671 0.43705a0.17523 0.17523 0 0 0-0.00834 0.01024c0.00266-0.002898 0.00546-0.006762 0.00834-0.01024zm-0.015868 0.021252a0.17523 0.17523 0 0 0-0.01245 0.023088c0.00352-0.007728 0.00782-0.01565 0.01245-0.023088zm-0.013829 0.025793a0.17523 0.17523 0 0 0-0.013824 0.06878v10.384a0.17523 0.17523 0 0 0 0.17535 0.17535h1.5858a0.17523 0.17523 0 0 0 0.16208-0.10869c-0.026601 0.06299-0.088872 0.1071-0.16153 0.10704h-1.5858c-0.096872 6.7e-5 -0.17542-0.078441-0.17535-0.17535v-10.384c-3.47e-5 -0.023764 0.00471-0.046465 0.013272-0.067235zm1.9094 10.52a0.17523 0.17523 0 0 0 0.00917-0.02956c-0.00238 0.01014-0.0052 0.02019-0.00917 0.02956zm0.013827-8.9811v9.66e-4h1.4605c0.57579 0 1.0133 0.13801 1.337 0.40149 0.31458 0.25604 0.47692 0.64532 0.47692 1.2235 0 0.2165-0.023311 0.4071-0.06954 0.57478 0.046526-0.16809 0.070087-0.35917 0.070087-0.57643 0-0.57817-0.16234-0.96744-0.47691-1.2235-0.3237-0.26347-0.76119-0.40149-1.337-0.40149zm5.0444 2.8471c-0.048534 0.12563-0.10521 0.24581-0.17029 0.36043l-5.231e-4 9.66e-4c0.06536-0.11511 0.12216-0.23585 0.17084-0.36207zm-0.17084 0.36207c-0.24609 0.44756-0.55516 0.79473-0.92714 1.0306-0.27964 0.17734-0.56193 0.28159-0.84487 0.34509-0.80975 0.146-0.89396 0.14056-1.9706 0.18576h-1.131v9.661e-4h1.1304l2.3163 4.2264a0.17523 0.17523 0 0 0 0.15359 0.091h1.7876a0.17523 0.17523 0 0 0 0.15208-0.26282l-2.4389-4.2399c0.28294-0.063467 0.56523-0.16776 0.84487-0.34509 0.37199-0.2359 0.68105-0.58307 0.92714-1.0306zm-4.8743 5.7104c-2.65e-4 0.0087-0.00104 0.01661-0.00238 0.02444a0.17523 0.17523 0 0 0 0.00238-0.02444z" color="#000000" fill="#e49090" style="-inkscape-stroke:none"/>
   <path d="m5.0607 2.0227v9.66e-4h1.4605c0.57579 0 1.0133 0.13801 1.337 0.4015 0.10751 0.087521 0.19675 0.19097 0.2683 0.31182 8.084e-4 4.734e-4 0.00152 9.564e-4 0.00233 9.66e-4 -0.071845-0.1222-0.16165-0.22672-0.27008-0.31498-0.3237-0.26348-0.76119-0.4015-1.337-0.4015zm4.9655 3.0315c-0.02837 0.060086-0.058762 0.11872-0.091303 0.17604l-5.708e-4 9.66e-4c0.03282-0.057768 0.063293-0.11706 0.091851-0.17769zm-0.091852 0.17768c-0.24609 0.44756-0.55515 0.79473-0.92714 1.0306-0.27964 0.17734-0.56193 0.28159-0.84487 0.34509-0.80975 0.146-0.89395 0.14056-1.9706 0.18576h-1.131v9.66e-4h1.1304l0.23052 0.42053h0.19c0.99673-0.041828 1.1498-0.041828 1.8084-0.15715l-0.25831-0.44913c0.28294-0.063467 0.56523-0.16775 0.84487-0.34509 0.37199-0.23589 0.68105-0.58306 0.92714-1.0306zm-4.8743 5.7104c-2.805e-4 0.0087-0.00114 0.01661-0.00247 0.02444a0.17523 0.17523 0 0 0 0.00247-0.02444zm-0.00395 0.03188c-0.00238 0.01014-0.00521 0.02019-0.00917 0.02956a0.17523 0.17523 0 0 0 0.00917-0.02956zm-0.01 0.0314c-0.027024 0.06202-0.088747 0.10532-0.16071 0.10526h-1.3412v9.66e-4h1.3407a0.17523 0.17523 0 0 0 0.16125-0.10691z" color="#000000" fill="#bf7171" style="-inkscape-stroke:none"/>
   <path d="m3.2989 0.3775c-0.096872-6.762e-5 -0.17542 0.078441-0.17535 0.17535v10.384c-6.9e-5 0.09689 0.07848 0.17542 0.17535 0.17536h1.5858c0.096874 5.8e-5 0.17542-0.07844 0.17535-0.17536 0-6.4412-2.42e-5 -5.9942 0-6.7054 2.4e-6 -0.068297-2.9e-6 -0.5558 0-0.64433-8.1e-6 -0.42367 0-0.11959 0-3.0345 6.61e-5 -0.096882-0.07848-0.17542-0.17535-0.17535z" color="#000000" fill="#ffa4a4" style="-inkscape-stroke:none"/>
   <path d="m4.8864 0.37423c0.09662 2.3185e-4 0.17487 0.078634 0.17481 0.17535v1.4715h1.461c0.57579 0 1.0133 0.13802 1.337 0.4015 0.31458 0.25605 0.47692 0.64534 0.47692 1.2235 0 0.57738-0.16562 0.97062-0.48992 1.236-0.32367 0.2633-0.76071 0.40108-1.3363 0.40108h-1.4487c-2.8e-6 0.12284 0 1.2833 0 1.5086h1.131c1.0767-0.04521 1.1609-0.0398 1.9706-0.18577 0.28294-0.063467 0.56523-0.16776 0.84487-0.34509 0.37198-0.2359 0.68105-0.58307 0.92714-1.0306l5.23e-4 -9.66e-4c0.26033-0.45847 0.38753-1.0063 0.38753-1.6333 0-0.65418-0.14542-1.2295-0.44037-1.713-0.28366-0.48687-0.67454-0.86478-1.1635-1.1226-0.48827-0.25746-1.0391-0.38549-1.6427-0.38549z" color="#000000" fill="#f79797" style="-inkscape-stroke:none"/>
   <path d="m4.8859 0.37747c0.09662 2.1252e-4 0.17487 0.078634 0.17481 0.17535v1.4715h0.41997c1.4e-6 -0.34966 0-0.057961 0-1.4715 6.66e-5 -0.096882-0.078478-0.17542-0.17535-0.17535zm0.17481 4.9089c-1.5e-6 0.12283 1e-6 1.2833 0 1.5086h0.41997c0-0.22534-2e-6 -1.3858 0-1.5086z" color="#000000" fill="#d47d7d" style="-inkscape-stroke:none"/>
  </g>
  <g stroke-width=".35043">
   <path d="m44.972 0.37769a0.17523 0.17523 0 0 0-0.03395 0.003296c0.01101-0.002117 0.02229-0.003296 0.03395-0.003296zm7.0362 0c0.01188-1.815e-5 0.02353 0.00121 0.03477 0.003417a0.17523 0.17523 0 0 0-0.03477-0.003417zm-7.0723 0.003689a0.17523 0.17523 0 0 0-0.03107 0.009707c0.0099-0.004113 0.02032-0.007469 0.03107-0.009707zm7.1087 0c0.01083 0.002419 0.0212 0.005564 0.03121 0.009707a0.17523 0.17523 0 0 0-0.03121-0.009707zm0.03245 0.010282c0.01028 0.004385 0.02011 0.009677 0.0293 0.015876a0.17523 0.17523 0 0 0-0.0293-0.015876zm0.0293 0.015876c0.0088 0.005957 0.01705 0.012701 0.02464 0.02011a0.17523 0.17523 0 0 0-0.02464-0.02011zm-7.2036-0.015604a0.17523 0.17523 0 0 0-0.02888 0.015604c9e-3 -0.006109 0.01875-0.011249 0.02888-0.015604zm-0.02888 0.015604a0.17523 0.17523 0 0 0-0.02561 0.021077c0.0079-0.007802 0.01639-0.014878 0.02561-0.021077zm-0.02628 0.021622a0.17523 0.17523 0 0 0-0.01999 0.024374c6e-3 -0.008649 0.01258-0.016934 0.01999-0.024374zm7.2856 9.072e-4c0.0072 0.007288 0.01376 0.015241 0.01957 0.023678a0.17523 0.17523 0 0 0-0.01957-0.023678zm0.0215 0.026279c0.0057 0.008618 0.01064 0.017781 0.01479 0.027367a0.17523 0.17523 0 0 0-0.01479-0.027367zm-7.3292 3.024e-4a0.17523 0.17523 0 0 0-0.01491 0.027518c0.0041-0.009677 0.0092-0.01884 0.01491-0.027518zm-0.01548 0.028758a0.17523 0.17523 0 0 0-0.0096 0.031622c0.0024-0.010917 0.0054-0.021531 0.0096-0.031622zm7.3604 6.048e-4c0.0042 0.0101 0.0075 0.020654 0.0097 0.031622a0.17523 0.17523 0 0 0-0.0097-0.031622zm0.0097 0.031622c0.0024 0.011431 0.0036 0.023345 0.0036 0.035454a0.17523 0.17523 0 0 0-0.0036-0.035454zm-7.38 3.024e-4a0.17523 0.17523 0 0 0-0.0036 0.035042c-1.8e-5 -0.011975 0.0012-0.023738 0.0036-0.035042zm-0.0036 1.4573a0.17523 0.17523 0 0 0 0.0034 0.034359c-0.0021-0.011128-0.0034-0.022559-0.0034-0.034359zm7.3871 0c9e-6 0.011915-0.0012 0.023497-0.0036 0.03477a0.17523 0.17523 0 0 0 0.0036-0.03477zm-0.0037 0.035865c-0.0021 0.010765-0.0055 0.021138-0.0096 0.031072a0.17523 0.17523 0 0 0 0.0096-0.031072zm-7.3796 2.782e-4a0.17523 0.17523 0 0 0 0.0097 0.031486c-0.0042-0.01004-0.0074-0.020624-0.0097-0.031486zm0.0104 0.032853a0.17523 0.17523 0 0 0 0.01575 0.029031c-0.0062-0.0091-0.01137-0.018809-0.01575-0.029031zm0.01575 0.029031a0.17523 0.17523 0 0 0 0.02053 0.024918c-0.0076-0.00768-0.01449-0.015967-0.02053-0.024918zm7.3429-0.028758c-0.0043 0.01007-0.0097 0.019596-0.01575 0.028607a0.17523 0.17523 0 0 0 0.01575-0.028607zm-0.01575 0.028758c-0.0062 0.00922-0.01325 0.017872-0.02108 0.025734a0.17523 0.17523 0 0 0 0.02108-0.025734zm-0.02177 0.026279c-0.0078 0.0078-0.01639 0.014878-0.02558 0.021077a0.17523 0.17523 0 0 0 0.02558-0.021077zm-0.02558 0.021077c-0.0093 0.00626-0.01926 0.011612-0.0297 0.016027a0.17523 0.17523 0 0 0 0.0297-0.016027zm-7.2576-0.020685a0.17523 0.17523 0 0 0 0.02519 0.020684c-9e-3 -0.00611-0.01745-0.013033-0.02519-0.020684zm0.02531 0.020684a0.17523 0.17523 0 0 0 0.0293 0.016027c-0.01031-0.00438-0.02011-0.00983-0.0293-0.016027zm0.0297 0.016148a0.17523 0.17523 0 0 0 0.03203 0.00998c-0.01107-0.00242-0.02183-0.00569-0.03203-0.00998zm7.1726 0c-0.01019 0.00429-0.02096 0.00768-0.03203 0.00998a0.17523 0.17523 0 0 0 0.03203-0.00998zm-7.139 0.010282a0.17523 0.17523 0 0 0 0.03463 0.00357c-0.01188 1.82e-5 -0.02341-0.00121-0.03463-0.00357zm7.1052 1.391e-4c-0.01113 0.00212-0.02259 0.00345-0.03436 0.00342a0.17523 0.17523 0 0 0 0.03436-0.00342zm-4.5266 0.00342v8.7865a0.17523 0.17523 0 0 0 0.17481 0.17535h1.5987a0.17523 0.17523 0 0 0 0.17535-0.17535v-8.7866z" color="#000000" fill="#71a6de" style="-inkscape-stroke:none"/>
   <path d="m44.972 0.37769c-0.09698-1.3911e-4 -0.17563 0.078512-0.17549 0.17549v1.4223c-6.7e-5 0.096923 0.07856 0.17549 0.17549 0.17535h7.0362c0.09692 1.391e-4 0.17556-0.078428 0.17549-0.17535v-1.4223c1.39e-4 -0.09698-0.07851-0.17563-0.17549-0.17549z" color="#000000" fill="#7ebeff" style="-inkscape-stroke:none"/>
   <path d="m44.797 1.9753a0.17523 0.17523 0 0 0 0.0033 0.034379c-0.0021-0.011128-0.0033-0.02258-0.0033-0.034379zm7.387 0c1e-5 0.011914-0.0012 0.023418-0.0036 0.034692a0.17523 0.17523 0 0 0 0.0036-0.029535 0.17523 0.17523 0 0 0 0-0.00516zm-0.0038 0.035786c-0.0021 0.010765-0.0054 0.021164-0.0095 0.031098a0.17523 0.17523 0 0 0 0.0095-0.031098zm-7.3795 3.2e-4a0.17523 0.17523 0 0 0 0.0097 0.031566c-0.0042-0.01004-0.0074-0.020701-0.0097-0.031566zm0.01047 0.032817a0.17523 0.17523 0 0 0 0.01563 0.029066c-0.0062-0.0091-0.01124-0.018846-0.01563-0.029066zm0.01563 0.029066a0.17523 0.17523 0 0 0 0.02063 0.025003c-0.0076-0.00768-0.01458-0.016052-0.02063-0.025003zm7.343-0.028754c-0.0043 0.01007-0.0097 0.019586-0.01578 0.028597a0.17523 0.17523 0 0 0 0.01578-0.028597zm-0.01578 0.028754c-0.0062 0.00922-0.01326 0.017921-0.0211 0.025784a0.17523 0.17523 0 0 0 0.0211-0.025784zm-0.02172 0.026253c-0.0078 0.0078-0.01644 0.014897-0.02563 0.021096a0.17523 0.17523 0 0 0 0.02563-0.021096zm-0.02563 0.021096c-0.0093 0.00626-0.01926 0.011681-0.02969 0.016096a0.17523 0.17523 0 0 0 0.02969-0.016096zm-7.2577-0.020628a0.17523 0.17523 0 0 0 0.02532 0.020628c-9e-3 -0.0061-0.01757-0.012977-0.02532-0.020628zm0.02532 0.020628a0.17523 0.17523 0 0 0 0.02938 0.016096c-0.01031-0.00438-0.02019-0.0099-0.02938-0.016096zm0.02969 0.016252a0.17523 0.17523 0 0 0 0.03204 0.00984c-0.01107-0.00242-0.02183-0.00555-0.03204-0.00984zm7.1726 0c-0.01019 0.0043-0.02096 0.00754-0.03204 0.00984a0.17523 0.17523 0 0 0 0.03204-0.00984zm-7.1389 0.010157a0.17523 0.17523 0 0 0 0.03453 0.00359c-0.01188 1.84e-5 -0.02331-0.00123-0.03453-0.00359zm7.1051 1.6e-4c-0.01113 0.00212-0.02261 0.00346-0.03438 0.00344a0.17523 0.17523 0 0 0 0.03438-0.00344zm-4.5267 0.00344v0.80026h1.949v-0.80026z" color="#000000" fill="#5881ac" style="-inkscape-stroke:none"/>
  </g>
 </g>
</svg>
