<?xml version="1.0" encoding="UTF-8" standalone="no"?>
<!-- Created with Inkscape (http://www.inkscape.org/) -->

<svg width="32" height="32" viewBox="0 0 8.4666667 8.4666667" version="1.1" id="svg5" xmlns="http://www.w3.org/2000/svg"
   xmlns:svg="http://www.w3.org/2000/svg">
   <path id="rect846"
      d="M 2.5292969 0 C 1.1285274 0 0 1.1285274 0 2.5292969 L 0 29.470703 C 0 30.871473 1.1285274 32 2.5292969 32 L 29.470703 32 C 30.871473 32 32 30.871473 32 29.470703 L 32 2.5292969 C 32 1.1285274 30.871473 0 29.470703 0 L 2.5292969 0 z M 6.0253906 5.1367188 L 23.740234 5.1367188 C 24.615691 5.1367187 25.320312 5.8413401 25.320312 6.7167969 C 25.320312 7.5922537 24.615691 8.296875 23.740234 8.296875 L 6.0253906 8.296875 C 5.1499338 8.296875 4.4453125 7.5922537 4.4453125 6.7167969 C 4.4453125 5.8413401 5.1499338 5.1367187 6.0253906 5.1367188 z M 6.0253906 14.419922 L 25.974609 14.419922 C 26.850066 14.419922 27.554687 15.124543 27.554688 16 C 27.554688 16.875457 26.850066 17.580078 25.974609 17.580078 L 6.0253906 17.580078 C 5.1499338 17.580078 4.4453125 16.875457 4.4453125 16 C 4.4453125 15.124543 5.1499338 14.419922 6.0253906 14.419922 z M 6.0253906 23.703125 L 16.582031 23.703125 C 17.457488 23.703125 18.162109 24.407746 18.162109 25.283203 C 18.162109 26.15866 17.457488 26.863281 16.582031 26.863281 L 6.0253906 26.863281 C 5.1499338 26.863281 4.4453125 26.15866 4.4453125 25.283203 C 4.4453125 24.407746 5.1499338 23.703125 6.0253906 23.703125 z "
      transform="scale(0.26458333)" />
   <style>
      #rect846 {
         fill: white;
      }
   </style>
</svg>