<?xml version="1.0" encoding="UTF-8"?>
<svg width="512" height="512" version="1.1" viewBox="0 0 135.47 135.47" xmlns="http://www.w3.org/2000/svg">
    <path transform="rotate(90)"
        d="m94.068-30.777a26.4 26.4 0 0 1-13.2 22.863 26.4 26.4 0 0 1-26.4-6e-7 26.4 26.4 0 0 1-13.2-22.863" />
    <path d="m30.777 41.268h23.694" />
    <path d="m30.777 94.068h24.232" />
    <path transform="matrix(0,1,1,0,0,0)"
        d="m94.198 104.69a26.4 26.4 0 0 1-13.2 22.863 26.4 26.4 0 0 1-26.4 0 26.4 26.4 0 0 1-13.2-22.863" />
    <path d="m104.69 41.399h-23.694" />
    <path d="m104.69 94.198h-24.232" />
    <path d="m31.318 67.538h72.83" />
    <style>
        path {
            stroke-width: 10;
            stroke-linecap: round;
            stroke: #fff;
            fill: none;
        }
    </style>
</svg>