<?xml version="1.0" encoding="UTF-8"?>
<svg width="512" height="512" version="1.1" viewBox="0 0 135.47 135.47" xmlns="http://www.w3.org/2000/svg">
    <path
        d="m134.13 25.007a23.645 23.645 0 0 1-23.645 23.645 23.645 23.645 0 0 1-23.645-23.645 23.645 23.645 0 0 1 23.645-23.645 23.645 23.645 0 0 1 23.645 23.645z" />
    <path
        d="m48.632 67.733a23.645 23.645 0 0 1-23.645 23.645 23.645 23.645 0 0 1-23.645-23.645 23.645 23.645 0 0 1 23.645-23.645 23.645 23.645 0 0 1 23.645 23.645z" />
    <path
        d="m134.13 110.46a23.645 23.645 0 0 1-23.645 23.645 23.645 23.645 0 0 1-23.645-23.645 23.645 23.645 0 0 1 23.645-23.645 23.645 23.645 0 0 1 23.645 23.645z" />
    <path d="m108.78 22.477-93.312 47.297 93.312 47.295 3.5879-7.0801-79.344-40.215 79.344-40.217z" />
    <style>
        path {
            fill: #333333;
        }
    </style>
</svg>