<?xml version="1.0" encoding="UTF-8" standalone="no"?>
<!-- Created with Inkscape (http://www.inkscape.org/) -->

<svg
   xmlns:dc="http://purl.org/dc/elements/1.1/"
   xmlns:cc="http://creativecommons.org/ns#"
   xmlns:rdf="http://www.w3.org/1999/02/22-rdf-syntax-ns#"
   xmlns:svg="http://www.w3.org/2000/svg"
   xmlns="http://www.w3.org/2000/svg"
   xmlns:sodipodi="http://sodipodi.sourceforge.net/DTD/sodipodi-0.dtd"
   xmlns:inkscape="http://www.inkscape.org/namespaces/inkscape"
   version="1.1"
   id="svg2756"
   width="3500"
   height="1000"
   viewBox="0 0 3500 1000"
   sodipodi:docname="en_header_image.svg"
   inkscape:version="0.92.4 (5da689c313, 2019-01-14)">
  <metadata
     id="metadata2762">
    <rdf:RDF>
      <cc:Work
         rdf:about="">
        <dc:format>image/svg+xml</dc:format>
        <dc:type
           rdf:resource="http://purl.org/dc/dcmitype/StillImage" />
        <dc:title></dc:title>
      </cc:Work>
    </rdf:RDF>
  </metadata>
  <defs
     id="defs2760" />
  <sodipodi:namedview
     pagecolor="#ffffff"
     bordercolor="#666666"
     borderopacity="1"
     objecttolerance="10"
     gridtolerance="10"
     guidetolerance="10"
     inkscape:pageopacity="0"
     inkscape:pageshadow="2"
     inkscape:window-width="1366"
     inkscape:window-height="705"
     id="namedview2758"
     showgrid="false"
     inkscape:zoom="0.20364675"
     inkscape:cx="1788.6428"
     inkscape:cy="372.96301"
     inkscape:window-x="-8"
     inkscape:window-y="-8"
     inkscape:window-maximized="1"
     inkscape:current-layer="svg2756" />
  <g
     id="g3496"
     transform="translate(-8.279955,7.7242397)">
    <g
       transform="translate(4.217557,-2.6224346)"
       aria-label="ORIZIN Agent"
       style="font-style:normal;font-variant:normal;font-weight:normal;font-stretch:normal;font-size:540.66705322px;line-height:1.25;font-family:IPAPGothic;-inkscape-font-specification:IPAPGothic;letter-spacing:0px;word-spacing:0px;fill:#ff6a00;fill-opacity:1;stroke:none;stroke-width:4.96480274"
       id="text827">
      <path
         inkscape:connector-curvature="0"
         d="m 225.12032,116.48171 q 77.3513,0 126.98284,49.63155 56.23149,56.49548 56.23149,152.5906 0,93.98314 -57.28748,150.47862 -49.10355,49.10355 -125.92685,49.10355 -76.2953,0 -125.398849,-49.10355 -57.287475,-56.49548 -57.287475,-152.5906 0,-93.98314 56.231485,-150.47862 49.631549,-49.63155 126.454839,-49.63155 z m 0,39.07164 q -49.63154,0 -85.27122,35.63968 -45.40758,45.40758 -45.40758,126.19084 0,80.78326 45.40758,125.39885 35.11168,35.11168 85.27122,35.11168 49.89555,0 85.79922,-35.11168 45.40758,-45.40758 45.40758,-127.77483 0,-77.87928 -45.93558,-123.81486 -34.84768,-35.63968 -85.27122,-35.63968 z"
         style="stroke-width:4.96480274"
         id="path839" />
      <path
         inkscape:connector-curvature="0"
         d="m 785.3232,510.36611 h -57.28748 q -21.6478,-49.10356 -47.78356,-95.83113 -20.59181,-37.75165 -40.91963,-53.06351 -24.81577,-18.47983 -60.71944,-18.47983 H 540.33344 V 510.36611 H 492.81387 V 124.13764 h 118.27092 q 59.39946,0 94.77513,21.6478 46.99157,28.24774 46.99157,84.21523 0,50.42354 -42.76761,77.87929 -23.23178,15.83985 -55.70349,20.59181 v 1.58399 q 35.37568,12.40788 61.24744,52.00752 22.7038,34.84768 69.69537,128.30283 z M 540.33344,306.29597 h 58.87146 q 104.54304,0 104.54304,-75.23931 0,-68.63937 -99.52709,-68.63937 h -63.88741 z"
         style="stroke-width:4.96480274"
         id="path841" />
      <path
         inkscape:connector-curvature="0"
         d="M 893.56222,510.36611 H 845.51466 V 124.13764 h 48.04756 z"
         style="stroke-width:4.96480274"
         id="path843" />
      <path
         inkscape:connector-curvature="0"
         d="M 1276.0947,510.36611 H 966.16154 V 475.78242 L 1151.4878,231.32066 q 13.9919,-19.00783 52.0076,-63.88742 v -1.58398 h -221.23 v -41.71162 h 279.5734 v 38.54365 l -183.2143,242.61378 q -30.6237,39.86363 -48.8395,60.71944 v 2.11198 h 246.3097 z"
         style="stroke-width:4.96480274"
         id="path845" />
      <path
         inkscape:connector-curvature="0"
         d="m 1397.2696,510.36611 h -48.0475 V 124.13764 h 48.0475 z"
         style="stroke-width:4.96480274"
         id="path847" />
      <path
         inkscape:connector-curvature="0"
         d="m 1810.4258,510.36611 h -43.2956 L 1595.2677,249.53649 q -19.5358,-29.56773 -46.9915,-79.99127 h -2.112 l 1.056,25.34377 q 2.6399,83.95123 2.6399,112.19898 v 203.27814 h -46.4635 V 124.13764 h 63.8874 l 147.5746,224.39795 q 28.7758,44.87959 50.6876,85.53521 h 2.112 q -3.696,-78.67128 -3.696,-126.98283 V 124.13764 h 46.4636 z"
         style="stroke-width:4.96480274"
         id="path849" />
      <path
         inkscape:connector-curvature="0"
         d="m 2351.0929,510.36611 h -51.7436 l -42.7676,-113.78296 h -155.2305 l -41.9757,113.78296 h -51.4795 l 153.1186,-388.86845 h 38.2797 z M 2243.1179,358.3035 2204.0462,255.60844 q -16.1038,-43.03161 -24.2878,-77.87929 h -1.5839 q -9.504,36.95966 -24.8158,77.87929 L 2115.079,358.3035 Z"
         style="stroke-width:4.96480274"
         id="path851" />
      <path
         inkscape:connector-curvature="0"
         d="m 2465.4038,418.49495 q -27.7198,2.37597 -27.7198,21.1198 0,24.28778 63.8874,27.45575 l 31.4158,1.58399 q 98.7351,5.01595 98.7351,71.80734 0,34.05569 -31.9437,56.23149 -34.5837,24.81577 -95.5672,24.81577 -55.4395,0 -89.2312,-19.00783 -32.4717,-18.47983 -32.4717,-50.68753 0,-43.29561 61.2475,-57.02348 v -1.84799 q -48.3116,-12.14388 -48.3116,-43.0316 0,-28.51174 41.1836,-43.8236 -45.4075,-23.49579 -45.4075,-74.71132 0,-39.59963 26.3997,-65.99939 30.3597,-30.35973 81.8393,-30.35973 32.9997,0 57.8154,14.25587 19.2719,-25.07977 70.7514,-26.13576 v 38.01566 q -35.6397,0.79199 -46.9916,6.33594 27.9838,27.45575 27.9838,64.9434 0,37.22366 -25.3438,62.83143 -28.2477,27.98374 -77.8793,27.98374 -21.1198,0 -40.3916,-4.75195 z m 33.7917,-149.42264 q -27.4558,0 -45.4076,17.95184 -17.6879,17.68784 -17.6879,44.35159 0,26.13576 16.6319,41.97562 17.9518,17.95183 48.3116,17.95183 28.5117,0 45.6715,-17.42384 17.4239,-17.15984 17.4239,-44.35159 0,-24.81577 -17.4239,-41.97562 -18.2158,-18.47983 -47.5195,-18.47983 z m 1.584,233.10987 q -71.8074,0 -71.8074,44.35159 0,43.03161 75.7673,43.03161 48.8396,0 70.7514,-22.70379 11.3519,-10.5599 11.3519,-24.81577 0,-39.86364 -86.0632,-39.86364 z"
         style="stroke-width:4.96480274"
         id="path853" />
      <path
         inkscape:connector-curvature="0"
         d="m 2725.4415,381.00729 q 2.376,46.72757 29.3037,73.65533 27.4558,27.45574 66.5274,27.45574 51.4796,0 81.5753,-48.04756 l 30.3597,20.06382 q -38.2796,64.15141 -117.4789,64.15141 -59.9275,0 -98.4711,-38.27965 -38.8077,-39.07164 -38.8077,-102.95905 0,-67.84738 40.6557,-108.50301 36.1676,-36.16767 90.2871,-36.16767 50.9516,0 85.2713,33.52769 38.5436,39.07164 38.5436,104.27905 v 10.8239 z M 2885.424,346.9516 q -3.9599,-36.69566 -25.8717,-57.81547 -21.6478,-21.6478 -51.2155,-21.6478 -34.3197,0 -58.6075,29.30373 -16.6319,19.79982 -21.6478,50.15954 z"
         style="stroke-width:4.96480274"
         id="path855" />
      <path
         inkscape:connector-curvature="0"
         d="m 3241.0288,510.36611 h -46.4636 V 343.25563 q 0,-68.63937 -56.7594,-68.63937 -57.2875,0 -83.9513,68.63937 V 510.36611 H 3007.391 V 241.08857 h 43.2956 v 48.57555 q 38.0156,-53.8555 96.8871,-53.8555 93.4551,0 93.4551,104.80704 z"
         style="stroke-width:4.96480274"
         id="path857" />
      <path
         inkscape:connector-curvature="0"
         d="m 3465.6908,495.31824 q -29.8318,20.85581 -61.5115,20.85581 -62.8314,0 -62.8314,-70.75135 V 274.08827 h -36.6957 v -32.9997 h 36.6957 v -60.45545 l 44.3516,-22.17579 v 82.63124 h 74.7113 v 32.9997 h -74.7113 v 164.99849 q 0,41.44762 28.2477,41.44762 19.0079,0 36.1677,-14.51987 z"
         style="stroke-width:4.96480274"
         id="path859" />
    </g>
    <text
       id="text3480"
       y="836.60358"
       x="92.099113"
       style="font-style:normal;font-variant:normal;font-weight:normal;font-stretch:normal;font-size:179.46939087px;line-height:1.25;font-family:IPAPGothic;-inkscape-font-specification:IPAPGothic;letter-spacing:0px;word-spacing:0px;fill:#a9a9a9;fill-opacity:1;stroke:none;stroke-width:1.64802003"
       xml:space="preserve"><tspan
         style="stroke-width:1.64802003"
         y="836.60358"
         x="92.099113"
         id="tspan3478"
         sodipodi:role="line">Always, with you. Your open partner</tspan></text>
  </g>
</svg>
