<?xml version="1.0" encoding="UTF-8" standalone="no"?>
<!-- Created with Inkscape (http://www.inkscape.org/) -->

<svg
   xmlns:dc="http://purl.org/dc/elements/1.1/"
   xmlns:cc="http://creativecommons.org/ns#"
   xmlns:rdf="http://www.w3.org/1999/02/22-rdf-syntax-ns#"
   xmlns:svg="http://www.w3.org/2000/svg"
   xmlns="http://www.w3.org/2000/svg"
   xmlns:sodipodi="http://sodipodi.sourceforge.net/DTD/sodipodi-0.dtd"
   xmlns:inkscape="http://www.inkscape.org/namespaces/inkscape"
   version="1.1"
   id="svg815"
   width="3500"
   height="1000"
   viewBox="0 0 3500 1000"
   sodipodi:docname="header_image.svg"
   inkscape:version="0.92.4 (5da689c313, 2019-01-14)">
  <metadata
     id="metadata821">
    <rdf:RDF>
      <cc:Work
         rdf:about="">
        <dc:format>image/svg+xml</dc:format>
        <dc:type
           rdf:resource="http://purl.org/dc/dcmitype/StillImage" />
        <dc:title></dc:title>
      </cc:Work>
    </rdf:RDF>
  </metadata>
  <defs
     id="defs819" />
  <sodipodi:namedview
     pagecolor="#ffffff"
     bordercolor="#666666"
     borderopacity="1"
     objecttolerance="10"
     gridtolerance="10"
     guidetolerance="10"
     inkscape:pageopacity="0"
     inkscape:pageshadow="2"
     inkscape:window-width="1366"
     inkscape:window-height="705"
     id="namedview817"
     showgrid="false"
     inkscape:zoom="0.17718076"
     inkscape:cx="1230.1857"
     inkscape:cy="240.95991"
     inkscape:window-x="-8"
     inkscape:window-y="-8"
     inkscape:window-maximized="1"
     inkscape:current-layer="svg815"
     showguides="false"
     inkscape:pagecheckerboard="true" />
  <g
     id="g837"
     transform="translate(771.32999,777.80543)">
    <g
       id="g927"
       transform="translate(-775.39239,-784.07993)">
      <g
         id="text827"
         style="font-style:normal;font-variant:normal;font-weight:normal;font-stretch:normal;font-size:540.66705322px;line-height:1.25;font-family:IPAPGothic;-inkscape-font-specification:IPAPGothic;letter-spacing:0px;word-spacing:0px;fill:#ff6a00;fill-opacity:1;stroke:none;stroke-width:4.96480274"
         aria-label="ORIZIN Agent">
        <path
           id="path839"
           style="stroke-width:4.96480274"
           d="m 225.12032,116.48171 q 77.3513,0 126.98284,49.63155 56.23149,56.49548 56.23149,152.5906 0,93.98314 -57.28748,150.47862 -49.10355,49.10355 -125.92685,49.10355 -76.2953,0 -125.398849,-49.10355 -57.287475,-56.49548 -57.287475,-152.5906 0,-93.98314 56.231485,-150.47862 49.631549,-49.63155 126.454839,-49.63155 z m 0,39.07164 q -49.63154,0 -85.27122,35.63968 -45.40758,45.40758 -45.40758,126.19084 0,80.78326 45.40758,125.39885 35.11168,35.11168 85.27122,35.11168 49.89555,0 85.79922,-35.11168 45.40758,-45.40758 45.40758,-127.77483 0,-77.87928 -45.93558,-123.81486 -34.84768,-35.63968 -85.27122,-35.63968 z"
           inkscape:connector-curvature="0" />
        <path
           id="path841"
           style="stroke-width:4.96480274"
           d="m 785.3232,510.36611 h -57.28748 q -21.6478,-49.10356 -47.78356,-95.83113 -20.59181,-37.75165 -40.91963,-53.06351 -24.81577,-18.47983 -60.71944,-18.47983 H 540.33344 V 510.36611 H 492.81387 V 124.13764 h 118.27092 q 59.39946,0 94.77513,21.6478 46.99157,28.24774 46.99157,84.21523 0,50.42354 -42.76761,77.87929 -23.23178,15.83985 -55.70349,20.59181 v 1.58399 q 35.37568,12.40788 61.24744,52.00752 22.7038,34.84768 69.69537,128.30283 z M 540.33344,306.29597 h 58.87146 q 104.54304,0 104.54304,-75.23931 0,-68.63937 -99.52709,-68.63937 h -63.88741 z"
           inkscape:connector-curvature="0" />
        <path
           id="path843"
           style="stroke-width:4.96480274"
           d="M 893.56222,510.36611 H 845.51466 V 124.13764 h 48.04756 z"
           inkscape:connector-curvature="0" />
        <path
           id="path845"
           style="stroke-width:4.96480274"
           d="M 1276.0947,510.36611 H 966.16154 V 475.78242 L 1151.4878,231.32066 q 13.9919,-19.00783 52.0076,-63.88742 v -1.58398 h -221.23 v -41.71162 h 279.5734 v 38.54365 l -183.2143,242.61378 q -30.6237,39.86363 -48.8395,60.71944 v 2.11198 h 246.3097 z"
           inkscape:connector-curvature="0" />
        <path
           id="path847"
           style="stroke-width:4.96480274"
           d="m 1397.2696,510.36611 h -48.0475 V 124.13764 h 48.0475 z"
           inkscape:connector-curvature="0" />
        <path
           id="path849"
           style="stroke-width:4.96480274"
           d="m 1810.4258,510.36611 h -43.2956 L 1595.2677,249.53649 q -19.5358,-29.56773 -46.9915,-79.99127 h -2.112 l 1.056,25.34377 q 2.6399,83.95123 2.6399,112.19898 v 203.27814 h -46.4635 V 124.13764 h 63.8874 l 147.5746,224.39795 q 28.7758,44.87959 50.6876,85.53521 h 2.112 q -3.696,-78.67128 -3.696,-126.98283 V 124.13764 h 46.4636 z"
           inkscape:connector-curvature="0" />
        <path
           id="path851"
           style="stroke-width:4.96480274"
           d="m 2351.0929,510.36611 h -51.7436 l -42.7676,-113.78296 h -155.2305 l -41.9757,113.78296 h -51.4795 l 153.1186,-388.86845 h 38.2797 z M 2243.1179,358.3035 2204.0462,255.60844 q -16.1038,-43.03161 -24.2878,-77.87929 h -1.5839 q -9.504,36.95966 -24.8158,77.87929 L 2115.079,358.3035 Z"
           inkscape:connector-curvature="0" />
        <path
           id="path853"
           style="stroke-width:4.96480274"
           d="m 2465.4038,418.49495 q -27.7198,2.37597 -27.7198,21.1198 0,24.28778 63.8874,27.45575 l 31.4158,1.58399 q 98.7351,5.01595 98.7351,71.80734 0,34.05569 -31.9437,56.23149 -34.5837,24.81577 -95.5672,24.81577 -55.4395,0 -89.2312,-19.00783 -32.4717,-18.47983 -32.4717,-50.68753 0,-43.29561 61.2475,-57.02348 v -1.84799 q -48.3116,-12.14388 -48.3116,-43.0316 0,-28.51174 41.1836,-43.8236 -45.4075,-23.49579 -45.4075,-74.71132 0,-39.59963 26.3997,-65.99939 30.3597,-30.35973 81.8393,-30.35973 32.9997,0 57.8154,14.25587 19.2719,-25.07977 70.7514,-26.13576 v 38.01566 q -35.6397,0.79199 -46.9916,6.33594 27.9838,27.45575 27.9838,64.9434 0,37.22366 -25.3438,62.83143 -28.2477,27.98374 -77.8793,27.98374 -21.1198,0 -40.3916,-4.75195 z m 33.7917,-149.42264 q -27.4558,0 -45.4076,17.95184 -17.6879,17.68784 -17.6879,44.35159 0,26.13576 16.6319,41.97562 17.9518,17.95183 48.3116,17.95183 28.5117,0 45.6715,-17.42384 17.4239,-17.15984 17.4239,-44.35159 0,-24.81577 -17.4239,-41.97562 -18.2158,-18.47983 -47.5195,-18.47983 z m 1.584,233.10987 q -71.8074,0 -71.8074,44.35159 0,43.03161 75.7673,43.03161 48.8396,0 70.7514,-22.70379 11.3519,-10.5599 11.3519,-24.81577 0,-39.86364 -86.0632,-39.86364 z"
           inkscape:connector-curvature="0" />
        <path
           id="path855"
           style="stroke-width:4.96480274"
           d="m 2725.4415,381.00729 q 2.376,46.72757 29.3037,73.65533 27.4558,27.45574 66.5274,27.45574 51.4796,0 81.5753,-48.04756 l 30.3597,20.06382 q -38.2796,64.15141 -117.4789,64.15141 -59.9275,0 -98.4711,-38.27965 -38.8077,-39.07164 -38.8077,-102.95905 0,-67.84738 40.6557,-108.50301 36.1676,-36.16767 90.2871,-36.16767 50.9516,0 85.2713,33.52769 38.5436,39.07164 38.5436,104.27905 v 10.8239 z M 2885.424,346.9516 q -3.9599,-36.69566 -25.8717,-57.81547 -21.6478,-21.6478 -51.2155,-21.6478 -34.3197,0 -58.6075,29.30373 -16.6319,19.79982 -21.6478,50.15954 z"
           inkscape:connector-curvature="0" />
        <path
           id="path857"
           style="stroke-width:4.96480274"
           d="m 3241.0288,510.36611 h -46.4636 V 343.25563 q 0,-68.63937 -56.7594,-68.63937 -57.2875,0 -83.9513,68.63937 V 510.36611 H 3007.391 V 241.08857 h 43.2956 v 48.57555 q 38.0156,-53.8555 96.8871,-53.8555 93.4551,0 93.4551,104.80704 z"
           inkscape:connector-curvature="0" />
        <path
           id="path859"
           style="stroke-width:4.96480274"
           d="m 3465.6908,495.31824 q -29.8318,20.85581 -61.5115,20.85581 -62.8314,0 -62.8314,-70.75135 V 274.08827 h -36.6957 v -32.9997 h 36.6957 v -60.45545 l 44.3516,-22.17579 v 82.63124 h 74.7113 v 32.9997 h -74.7113 v 164.99849 q 0,41.44762 28.2477,41.44762 19.0079,0 36.1677,-14.51987 z"
           inkscape:connector-curvature="0" />
      </g>
      <g
         id="text831"
         style="font-style:normal;font-variant:normal;font-weight:normal;font-stretch:normal;font-size:179.60070801px;line-height:1.25;font-family:IPAPGothic;-inkscape-font-specification:IPAPGothic;letter-spacing:0px;word-spacing:0px;fill:#a9a9a9;fill-opacity:1;stroke:none;stroke-width:1.64922595"
         aria-label="いつもあなたと共に。オープンな相棒">
        <path
           id="path862"
           style="fill:#a9a9a9;fill-opacity:1;stroke-width:1.64922595"
           d="m 150.56085,842.57294 q -12.97896,37.18295 -30.60578,37.18295 -8.76957,0 -17.71453,-10.085 -12.27739,-13.50513 -16.92526,-41.65543 -4.297087,-25.87022 -4.297087,-65.85944 h 14.908262 q -0.263087,52.442 6.840265,77.61065 6.92795,24.3794 17.18835,24.3794 9.55882,0 18.153,-31.21966 z m 56.38831,4.29708 q -13.50513,-38.2353 -37.70913,-70.595 l 12.71587,-6.22639 q 24.29169,29.72882 39.11226,69.27957 z"
           inkscape:connector-curvature="0" />
        <path
           id="path864"
           style="fill:#a9a9a9;fill-opacity:1;stroke-width:1.64922595"
           d="m 245.44755,783.81684 q 59.45766,-16.136 89.62497,-16.136 20.69617,0 33.93822,10.2604 16.31139,12.54047 16.31139,35.16595 0,28.50109 -26.74718,44.72479 -24.02861,14.46978 -67.17487,17.45144 l -7.01565,-14.03131 q 85.85404,-3.77091 85.85404,-48.14492 0,-15.60982 -10.085,-24.64248 -9.29574,-8.24339 -26.04561,-8.24339 -30.07961,0 -82.34622,17.62683 z"
           inkscape:connector-curvature="0" />
        <path
           id="path866"
           style="fill:#a9a9a9;fill-opacity:1;stroke-width:1.64922595"
           d="m 413.47243,772.32871 q 17.53913,2.98166 36.65678,3.77092 l 0.87696,-6.40179 1.14004,-6.66487 1.57853,-10.96195 0.70156,-5.17405 0.87696,-5.61252 14.0313,2.017 q -3.24474,17.45144 -5.34943,32.79818 19.02996,-0.17539 40.60309,-3.42013 v 12.45278 q -16.39909,2.80626 -42.4447,3.42013 -1.92931,12.1897 -3.59552,27.79952 18.50378,0 40.07691,-3.59552 v 12.62818 q -18.85456,3.15704 -41.65544,3.15704 -1.9293,11.04965 -1.9293,20.52078 0,28.76418 31.74583,28.76418 32.53509,0 32.53509,-28.76418 0,-12.71587 -4.29709,-25.69482 l 14.2067,-1.40313 q 4.29708,13.15434 4.29708,26.57178 0,21.39774 -14.0313,32.53509 -12.01431,9.29574 -32.71048,9.29574 -45.07557,0 -45.07557,-39.55074 0,-4.91096 1.40313,-17.88992 0,-0.78926 0.17539,-1.31543 0.0877,-0.52618 0.17539,-2.017 0.0877,-0.87696 0.17539,-1.40313 -19.99461,-1.84161 -29.81652,-3.77092 l 1.31544,-12.54047 q 14.73287,3.06934 29.99191,3.9463 l 0.52617,-3.9463 0.52618,-5.61253 q 0.0877,-0.43848 2.36778,-17.88991 -19.55613,-0.78926 -36.65678,-3.94631 z"
           inkscape:connector-curvature="0" />
        <path
           id="path868"
           style="fill:#a9a9a9;fill-opacity:1;stroke-width:1.64922595"
           d="m 568.86913,767.15467 q 7.36644,0.52617 14.55748,0.52617 10.78657,0 20.69618,-0.70156 l 0.35078,-3.94631 0.52617,-5.61252 q 0.43848,-4.47248 1.22774,-10.87426 0.43848,-4.034 0.52618,-5.08635 l 13.32974,0.87696 q -1.66622,13.24204 -2.71857,23.59013 25.60713,-2.71857 51.21427,-9.73422 l 1.40313,12.36509 q -24.73018,6.22639 -53.84514,9.20804 -1.14004,10.61118 -1.49082,23.15166 12.0143,-4.29709 28.238,-5.78792 1.49083,-4.73556 3.24474,-11.66352 l 13.24204,3.06935 q -0.61387,2.80626 -2.80626,8.85726 18.67918,2.36778 29.64113,10.87426 15.60983,12.45279 15.60983,32.53509 0,22.09931 -18.67917,35.95522 -14.55748,10.78657 -39.90153,14.38209 l -7.71722,-11.92661 q 22.18701,-2.36778 35.42905,-10.69887 16.83757,-10.52348 16.83757,-27.88722 0,-17.71452 -15.60983,-27.09796 -7.89261,-4.82326 -19.20535,-6.13869 -13.85591,32.62278 -36.48139,53.93283 0.78926,8.068 3.06934,16.66217 l -12.97895,4.82326 q -0.43848,-2.45548 -1.92931,-11.83891 -14.99596,10.61117 -28.238,10.61117 -15.96061,0 -15.96061,-18.67917 0,-25.34405 27.09796,-45.77714 5.17404,-3.77091 14.0313,-8.59417 0.26309,-12.01431 1.57853,-27.71183 -13.41744,1.05235 -25.60714,1.05235 -4.73556,0 -7.54182,-0.17539 z m 32.53509,51.74044 q -6.13869,3.68322 -12.71587,10.61117 -14.0313,14.2067 -15.08365,27.79953 0,1.22774 -0.26309,1.84161 0.26309,0.87695 0.26309,2.10469 0,5.78791 5.17404,5.78791 11.31274,0 24.204,-11.83891 -1.31543,-14.0313 -1.57852,-36.306 z m 37.53374,-13.50513 q -13.06665,1.84161 -24.81787,6.66487 0,20.25769 0.78926,32.00891 14.55748,-16.22369 24.02861,-38.67378 z"
           inkscape:connector-curvature="0" />
        <path
           id="path870"
           style="fill:#a9a9a9;fill-opacity:1;stroke-width:1.64922595"
           d="m 819.06482,794.7788 h 13.06666 l 1.31543,52.6174 q 0.78926,0.26308 2.71857,1.05234 0.78926,0.26309 4.29708,1.66622 16.13601,6.1387 34.4644,16.136 l -7.89261,11.48813 Q 850.63526,867.4785 833.97309,860.28746 l -0.1754,2.54317 q 0,13.76822 -4.29708,19.38074 -5.61252,7.19105 -22.45009,7.19105 -18.06531,0 -29.11496,-9.12035 -7.36644,-6.31409 -7.36644,-15.34674 0,-9.90961 9.12035,-16.66218 9.90961,-6.84026 24.64248,-6.84026 6.48948,0 15.78522,2.017 z m 1.22774,60.6854 q -9.73421,-2.71857 -17.10065,-2.71857 -7.80491,0 -13.06665,2.89396 -6.66487,3.42013 -6.66487,9.12035 0,5.17404 6.48948,9.20804 6.31408,3.59552 15.78521,3.59552 14.99596,0 14.73287,-13.24204 z m -89.27418,-82.52162 q 8.76957,0.52618 15.08366,0.52618 10.69887,0 18.67917,-0.78926 4.1217,-12.45279 8.33109,-33.32435 l 13.76822,2.10469 q -2.80626,13.76822 -7.54183,29.81653 12.71587,-1.22774 29.29035,-5.17405 l 0.52617,12.89126 q -18.50378,3.85861 -33.76282,5.08635 -14.64518,42.18161 -37.35835,75.76905 l -12.36509,-7.89261 q 20.25769,-26.65948 35.16596,-66.6487 -12.36509,0.52617 -21.48544,0.52617 -3.77091,0 -7.54183,-0.17539 z m 133.12201,32.79818 q -15.08365,-16.66218 -35.77983,-30.69348 l 9.20805,-9.47113 q 20.95926,12.97896 36.65678,29.81652 z"
           inkscape:connector-curvature="0" />
        <path
           id="path872"
           style="fill:#a9a9a9;fill-opacity:1;stroke-width:1.64922595"
           d="m 900.70952,771.10097 q 12.71587,1.14005 24.37939,1.14005 6.75256,0 15.43444,-0.61387 4.47247,-17.36374 7.36643,-31.92122 l 14.2067,2.45548 q -1.92931,8.24339 -7.19105,28.41339 16.57448,-2.017 29.11496,-4.99865 l 0.87696,13.24204 q -16.136,2.98165 -33.41205,4.29709 -19.20535,64.6317 -38.76148,103.83166 l -14.0313,-6.1387 q 21.83621,-38.49839 38.58609,-96.72831 -9.90961,0.52618 -20.60848,0.52618 -4.1217,0 -15.60983,-0.35079 z m 142.24238,109.88266 q -19.4685,2.54318 -32.5351,2.54318 -27.36106,0 -39.02458,-9.73422 -9.64653,-8.33109 -12.89127,-27.44874 l 12.71588,-5.34944 q 1.9293,17.53914 10.61117,23.32705 8.068,5.34943 27.5364,5.34943 12.6282,0 32.7982,-2.63087 z M 967.709,804.68841 q 30.16731,-9.82191 64.9825,-9.55883 v 13.32974 h -0.7016 q -32.79816,0 -62.17621,8.59418 z"
           inkscape:connector-curvature="0" />
        <path
           id="path874"
           style="fill:#a9a9a9;fill-opacity:1;stroke-width:1.64922595"
           d="m 1181.7741,881.5975 q -28.6765,3.59553 -49.7234,3.59553 -27.2734,0 -42.357,-5.17405 -21.2224,-7.27874 -21.2224,-27.53643 0,-26.92257 42.357,-47.96953 -12.6282,-29.90422 -19.2053,-58.93148 l 14.5574,-2.89396 q 5.6126,28.41339 16.7499,56.21292 19.5561,-8.24339 48.8465,-16.48679 l 6.2264,13.15435 q -95.3252,22.88857 -95.3252,55.86214 0,20.43309 45.7771,20.43309 22.5378,0 50.8635,-4.47248 z"
           inkscape:connector-curvature="0" />
        <path
           id="path876"
           style="fill:#a9a9a9;fill-opacity:1;stroke-width:1.64922595"
           d="m 1251.0536,773.29337 v -34.72748 h 13.5052 v 34.72748 h 44.2863 v -34.72748 h 13.5051 v 34.72748 h 34.8152 v 12.0143 h -34.8152 v 41.48005 h 42.0062 v 12.0143 h -154.2566 v -12.0143 h 40.9538 v -41.48005 h -33.7628 v -12.0143 z m 57.7915,12.0143 h -44.2863 v 41.48005 h 44.2863 z m -98.2192,98.04375 q 30.6935,-14.55748 49.0219,-38.76148 l 12.4528,7.54182 q -21.7485,26.3087 -50.5127,42.5324 z m 140.6639,7.71721 q -21.047,-21.22234 -49.1973,-38.76148 l 10.1727,-8.85726 q 27.0103,16.136 50.5127,36.13061 z"
           inkscape:connector-curvature="0" />
        <path
           id="path878"
           style="fill:#a9a9a9;fill-opacity:1;stroke-width:1.64922595"
           d="m 1400.487,884.22837 q -4.6478,-32.62278 -4.6478,-59.45765 0,-32.00892 11.4881,-76.11983 l 13.5051,3.06934 q -11.8389,44.11092 -11.8389,75.24288 0,9.64652 1.4032,22.80087 3.9463,-7.19104 11.8389,-21.22235 l 8.7695,6.1387 q -16.6621,28.32569 -16.6621,43.67243 0,2.63087 0.1754,4.64787 z m 48.8465,-115.67057 q 31.8336,-5.87561 69.3673,-5.87561 l 1.2277,13.76822 q -38.6738,-0.26309 -69.1041,5.9633 z m 79.1892,107.42718 q -17.0129,2.36778 -31.395,2.36778 -25.4318,0 -37.183,-7.36643 -13.0666,-8.068 -13.0666,-30.95657 0,-3.15704 0.1753,-5.87561 l 13.5929,-1.66622 q 0,1.66622 -0.1754,4.82327 -0.088,1.75391 -0.088,2.19239 0,14.64517 7.3664,19.81922 7.2788,4.82326 26.7472,4.82326 12.7159,0 32.272,-2.36779 z"
           inkscape:connector-curvature="0" />
        <path
           id="path880"
           style="fill:#a9a9a9;fill-opacity:1;stroke-width:1.64922595"
           d="m 1573.3352,848.36085 q 5.6125,0 11.1374,2.89396 12.5404,6.66487 12.5404,20.95926 0,5.70022 -2.7185,10.78656 -6.6649,13.06666 -21.1347,13.06666 -6.1387,0 -11.4004,-2.89396 -12.5405,-6.66487 -12.5405,-21.13465 0,-9.73422 7.3664,-17.01296 6.6649,-6.66487 16.7499,-6.66487 z m -0.1754,9.12035 q -5.7879,0 -10.1727,3.77091 -4.6479,4.38478 -4.6479,10.96196 0,3.15704 1.4032,6.31409 3.8586,8.41878 13.4174,8.41878 4.2094,0 7.7172,-2.19239 7.0157,-4.034 7.0157,-12.54048 0,-9.29574 -8.068,-13.32974 -3.2448,-1.40313 -6.6649,-1.40313 z"
           inkscape:connector-curvature="0" />
        <path
           id="path882"
           style="fill:#a9a9a9;fill-opacity:1;stroke-width:1.64922595"
           d="m 1722.5055,742.95067 h 14.0313 v 35.86752 h 42.7954 v 12.71587 h -41.8308 v 80.50462 q 0,15.25904 -17.8899,15.25904 -12.0143,0 -24.9056,-2.10469 l -3.0693,-14.90827 q 14.9082,2.80626 24.3794,2.80626 7.4541,0 7.4541,-7.10334 v -66.12253 q -24.9056,47.88183 -75.5936,71.47196 l -10.085,-11.48813 q 48.1449,-19.64383 76.4706,-66.82409 h -69.6304 v -12.54048 h 77.8738 z"
           inkscape:connector-curvature="0" />
        <path
           id="path884"
           style="fill:#a9a9a9;fill-opacity:1;stroke-width:1.64922595"
           d="m 1799.7654,807.75776 h 146.5394 v 14.38209 h -146.5394 z"
           inkscape:connector-curvature="0" />
        <path
           id="path886"
           style="fill:#a9a9a9;fill-opacity:1;stroke-width:1.64922595"
           d="m 2079.6899,762.68219 8.4188,7.71722 q -6.7526,45.42635 -29.2904,73.40126 -22.0993,27.27335 -61.5623,42.09392 l -10.2604,-12.62817 q 71.472,-21.83622 84.9771,-97.34218 l -100.5869,1.8416 v -13.68052 z m 20.5208,-33.93822 q 8.1557,0 14.3821,6.48948 5.174,5.70022 5.174,13.24204 0,5.70022 -3.2447,10.61118 -5.9633,9.12035 -16.7499,9.12035 -4.8233,0 -8.9449,-2.36779 -10.6112,-5.70021 -10.6112,-17.53913 0,-9.9973 8.4188,-15.96061 5.2617,-3.59552 11.5758,-3.59552 z m -0.1754,7.89261 q -2.7186,0 -5.6125,1.40313 -6.3141,3.33244 -6.3141,10.43578 0,3.15705 2.017,6.31409 3.4201,5.52483 9.9096,5.52483 4.2971,0 7.8926,-3.06935 3.9463,-3.42013 3.9463,-8.76957 0,-5.34943 -4.1217,-8.94495 -3.4201,-2.89396 -7.7172,-2.89396 z"
           inkscape:connector-curvature="0" />
        <path
           id="path888"
           style="fill:#a9a9a9;fill-opacity:1;stroke-width:1.64922595"
           d="m 2175.0152,796.62041 q -17.6268,-16.0483 -38.9369,-28.06261 l 9.1204,-12.1897 q 19.1177,9.29574 40.2523,26.92257 z m -37.7091,69.45496 q 80.9431,-13.94361 115.4952,-90.32653 l 11.3127,10.085 q -33.8505,75.06749 -117.4245,94.44823 z"
           inkscape:connector-curvature="0" />
        <path
           id="path890"
           style="fill:#a9a9a9;fill-opacity:1;stroke-width:1.64922595"
           d="m 2380.0476,794.7788 h 13.0666 l 1.3154,52.6174 q 0.7893,0.26308 2.7186,1.05234 0.7893,0.26309 4.2971,1.66622 16.136,6.1387 34.4644,16.136 l -7.8926,11.48813 q -16.3991,-10.26039 -33.0613,-17.45143 l -0.1754,2.54317 q 0,13.76822 -4.2971,19.38074 -5.6125,7.19105 -22.4501,7.19105 -18.0653,0 -29.1149,-9.12035 -7.3664,-6.31409 -7.3664,-15.34674 0,-9.90961 9.1203,-16.66218 9.9096,-6.84026 24.6425,-6.84026 6.4895,0 15.7852,2.017 z m 1.2277,60.6854 q -9.7342,-2.71857 -17.1007,-2.71857 -7.8049,0 -13.0666,2.89396 -6.6649,3.42013 -6.6649,9.12035 0,5.17404 6.4895,9.20804 6.3141,3.59552 15.7852,3.59552 14.996,0 14.7329,-13.24204 z m -89.2742,-82.52162 q 8.7696,0.52618 15.0837,0.52618 10.6988,0 18.6791,-0.78926 4.1217,-12.45279 8.3311,-33.32435 l 13.7682,2.10469 q -2.8062,13.76822 -7.5418,29.81653 12.7159,-1.22774 29.2904,-5.17405 l 0.5261,12.89126 q -18.5037,3.85861 -33.7628,5.08635 -14.6452,42.18161 -37.3583,75.76905 l -12.3651,-7.89261 q 20.2577,-26.65948 35.1659,-66.6487 -12.3651,0.52617 -21.4854,0.52617 -3.7709,0 -7.5418,-0.17539 z m 133.122,32.79818 q -15.0836,-16.66218 -35.7798,-30.69348 l 9.208,-9.47113 q 20.9593,12.97896 36.6568,29.81652 z"
           inkscape:connector-curvature="0" />
        <path
           id="path892"
           style="fill:#a9a9a9;fill-opacity:1;stroke-width:1.64922595"
           d="m 2484.9315,807.67006 -0.5262,1.66622 q -8.2434,28.3257 -22.8009,51.91583 l -7.8926,-13.15435 q 20.5208,-29.02726 29.2904,-64.28092 h -25.5195 v -11.66352 h 27.4488 v -37.70913 h 12.3651 v 37.70913 h 25.1686 v 11.66352 h -25.1686 v 17.27605 q 17.6268,14.82057 27.8872,26.57178 l -7.5418,12.89127 q -8.945,-12.45279 -20.3454,-25.34405 v 80.50461 h -12.3651 z m 123.9139,-61.56235 v 146.36406 h -12.1897 v -12.54048 h -54.9851 v 12.54048 h -12.0143 V 746.10771 Z m -67.1748,11.13735 v 29.11496 h 54.9851 v -29.11496 z m 0,39.90152 v 29.29035 h 54.9851 v -29.29035 z m 0,40.07692 v 31.74583 h 54.9851 V 837.2235 Z"
           inkscape:connector-curvature="0" />
        <path
           id="path894"
           style="fill:#a9a9a9;fill-opacity:1;stroke-width:1.64922595"
           d="m 2659.1829,810.38863 q -7.6296,28.76417 -21.047,50.5127 l -7.3664,-12.97896 q 18.6791,-27.53644 27.0102,-64.28092 h -23.2393 v -11.48813 h 24.6425 V 734.2688 h 11.8389 v 37.88452 h 19.3807 v 11.48813 h -19.3807 v 15.60983 q 12.7158,12.54048 20.6085,21.92392 l -7.5419,12.0143 q -6.8402,-11.66352 -13.0666,-19.55613 v 82.08313 h -11.8389 z m 46.8294,23.94091 q -5.2617,6.48948 -15.4344,16.39909 l -8.4188,-9.73422 q 15.2591,-12.27739 26.9226,-30.51809 h -22.9763 v -10.43578 h 29.115 q 3.8586,-7.27874 6.4895,-14.73287 h -24.9933 v -9.90961 h 27.7995 q 2.1924,-8.85726 2.894,-13.24204 h -36.8322 v -10.085 h 38.4984 l 0.3508,-2.89396 q 0.7016,-6.051 1.5785,-15.78522 l 11.8389,1.57852 q -0.7892,8.85726 -2.1047,17.10066 h 50.0742 v 10.085 h -51.7404 q -0.9646,5.43713 -2.9816,13.24204 h 48.5834 v 9.90961 h -29.0273 q 4.9109,10.1727 7.8926,14.73287 h 32.4474 v 10.43578 h -24.9056 q 11.1374,13.68053 26.9226,24.64248 l -8.5942,10.87427 q -19.6438,-17.10066 -32.0089,-35.51675 h -34.9906 q -6.7525,11.66353 -15.5221,22.62548 h 26.4841 v -16.39908 h 12.0143 v 16.39908 h 30.1673 v 10.43579 h -30.1673 v 13.94361 h 42.0062 v 10.78656 h -42.0062 v 27.44874 h -12.0143 v -27.44874 h -37.7968 V 857.4812 h 37.7968 v -13.94361 h -27.3611 z m 38.6738,-49.02187 h -11.4881 q -3.3324,9.55883 -5.6125,14.73287 h 23.5901 q -4.6479,-8.76956 -6.4895,-14.73287 z"
           inkscape:connector-curvature="0" />
      </g>
    </g>
  </g>
</svg>
