<?xml version="1.0" encoding="UTF-8" standalone="no"?>
<!-- Created with Inkscape (http://www.inkscape.org/) -->

<svg
   width="1920"
   height="1080"
   viewBox="0 0 508 285.75"
   version="1.1"
   id="svg5"
   inkscape:version="1.1 (c68e22c387, 2021-05-23)"
   sodipodi:docname="old_and_new_logo.svg"
   xmlns:inkscape="http://www.inkscape.org/namespaces/inkscape"
   xmlns:sodipodi="http://sodipodi.sourceforge.net/DTD/sodipodi-0.dtd"
   xmlns="http://www.w3.org/2000/svg"
   xmlns:svg="http://www.w3.org/2000/svg">
  <sodipodi:namedview
     id="namedview7"
     pagecolor="#505050"
     bordercolor="#eeeeee"
     borderopacity="1"
     inkscape:pageshadow="0"
     inkscape:pageopacity="0"
     inkscape:pagecheckerboard="true"
     inkscape:document-units="px"
     showgrid="false"
     inkscape:zoom="0.21213203"
     inkscape:cx="895.66859"
     inkscape:cy="471.40452"
     inkscape:window-width="1368"
     inkscape:window-height="850"
     inkscape:window-x="-6"
     inkscape:window-y="-6"
     inkscape:window-maximized="1"
     inkscape:current-layer="layer1" />
  <defs
     id="defs2" />
  <g
     inkscape:label="レイヤー 1"
     inkscape:groupmode="layer"
     id="layer1">
    <rect
       style="font-variation-settings:'wght' 600;fill:#ffffff;fill-opacity:1;stroke-width:0.665954;stroke-linecap:round;stroke-linejoin:round;paint-order:stroke fill markers"
       id="rect960"
       width="508"
       height="285.75"
       x="0"
       y="0"
       ry="0.40705109" />
    <g
       id="g866"
       transform="matrix(2.0475295,0,0,2.0475295,182.40994,204.57296)">
      <text
         x="159.38292"
         y="156.19502"
         font-family="'Yu Gothic'"
         font-size="10.583px"
         font-weight="bold"
         stroke-width="0.26458"
         style="line-height:1.25"
         xml:space="preserve"
         id="text826"><tspan
           x="159.38292"
           y="156.19502"
           stroke-width="0.26458"
           id="tspan824" /></text>
      <path
         d="m 17.131,0 c -0.99381,0 -1.9085,0.2536 -2.7321,0.75603 -0.82238,0.49343 -1.4758,1.1681 -1.9513,2.0154 -0.46724,0.84796 -0.70332,1.7786 -0.70332,2.7792 0,1.0083 0.23074,1.9415 0.68936,2.7895 0.46683,0.8472 1.1103,1.5273 1.9239,2.0293 a 0.17523,0.17523 0 0 0 0.0021,0 c 0.81683,0.49531 1.7448,0.74414 2.7714,0.74414 1.0103,0 1.9318,-0.24912 2.7482,-0.74414 0.82228,-0.50202 1.4673,-1.1812 1.926,-2.0293 0.45863,-0.84803 0.6873,-1.7812 0.6873,-2.7895 0,-1.0081 -0.23416,-1.9374 -0.70125,-2.7771 V 2.77146 C 21.33243,1.92367 20.68819,1.24956 19.86579,0.75606 19.04999,0.25311 18.13299,3e-5 17.13109,3e-5 Z m 21.508,0 c -0.99382,0 -1.9085,0.2536 -2.7321,0.75603 -0.82238,0.49343 -1.4758,1.1681 -1.9513,2.0154 -0.46724,0.84796 -0.70125,1.7786 -0.70125,2.7792 0,1.0083 0.22919,1.9415 0.68781,2.7895 0.46683,0.8472 1.1119,1.5273 1.9255,2.0293 0.81683,0.49531 1.7448,0.74414 2.7714,0.74414 1.0103,0 1.9318,-0.24912 2.7482,-0.74414 0.82228,-0.50202 1.4673,-1.1812 1.926,-2.0293 0.45863,-0.84803 0.6873,-1.7812 0.6873,-2.7895 0,-1.0088 -0.23355,-1.939 -0.70125,-2.7792 -0.45874,-0.84721 -1.1034,-1.5222 -1.9255,-2.0154 C 40.55801,0.25308 39.64101,0 38.63911,0 Z m 78.893,0 c -0.99448,0 -1.9102,0.25294 -2.7342,0.75603 -0.82239,0.49343 -1.4758,1.1681 -1.9513,2.0154 -0.46724,0.84796 -0.70124,1.7786 -0.70124,2.7792 0,1.0083 0.22867,1.9415 0.68729,2.7895 a 0.17523,0.17523 0 0 0 0.002,0 c 0.46683,0.8472 1.1103,1.5273 1.9239,2.0293 0.81683,0.49531 1.7469,0.74414 2.7735,0.74414 1.0102,0 1.9297,-0.24912 2.7461,-0.74414 0.82228,-0.50202 1.4673,-1.1812 1.926,-2.0293 0.45863,-0.84803 0.68936,-1.7812 0.68936,-2.7895 0,-1.0088 -0.2356,-1.939 -0.70331,-2.7792 -0.45878,-0.84721 -1.1039,-1.5222 -1.926,-2.0154 C 119.4483,0.25308 118.5339,0 117.532,0 Z M 24.645,0.18965 a 0.17523,0.17523 0 0 0 -0.1757,0.17363 v 10.385 a 0.17523,0.17523 0 0 0 0.1757,0.1757 h 3.5998 c 0.7169,0 1.337,-0.12462 1.8536,-0.38292 0.51409,-0.25704 0.90561,-0.62462 1.1581,-1.0935 0.25894,-0.47324 0.38654,-1.0193 0.38654,-1.6309 0,-0.5457 -0.12114,-1.0253 -0.3669,-1.4258 C 31.04598,6.0022 30.75363,5.69676 30.40074,5.48807 30.18996,5.35836 29.97669,5.32288 29.76409,5.25759 c 0.1534,-0.074028 0.3141,-0.10448 0.45889,-0.22996 0.2807,-0.24448 0.50549,-0.55591 0.67386,-0.92811 0.16998,-0.37576 0.25424,-0.7847 0.25425,-1.2185 0,-0.92972 -0.3354,-1.6454 -0.99839,-2.0722 -0.64779,-0.41707 -1.474,-0.61908 -2.4629,-0.61908 z m 79.307,0 a 0.17523,0.17523 0 0 0 -0.1757,0.17363 v 1.4237 a 0.17523,0.17523 0 0 0 0.1757,0.17415 h 2.543 v 8.7871 a 0.17523,0.17523 0 0 0 0.1757,0.1757 h 1.5978 a 0.17523,0.17523 0 0 0 0.1757,-0.1757 v -8.7871 h 2.543 a 0.17523,0.17523 0 0 0 0.17569,-0.17415 V 0.36328 A 0.17523,0.17523 0 0 0 110.9872,0.18965 Z m 21.066,0 a 0.17523,0.17523 0 0 0 -0.17415,0.17363 v 10.385 a 0.17523,0.17523 0 0 0 0.17415,0.1757 h 1.586 a 0.17523,0.17523 0 0 0 0.1757,-0.1757 v -4.1429 h 1.1307 l 2.3166,4.2266 a 0.17523,0.17523 0 0 0 0.154,0.09198 h 1.7875 a 0.17523,0.17523 0 0 0 0.15193,-0.26355 l -2.4546,-4.2659 c 0.28832,-0.062431 0.57601,-0.13764 0.86092,-0.31833 0.37184,-0.2358 0.68002,-0.58366 0.92605,-1.0309 0.26087,-0.45876 0.3886,-1.0073 0.3886,-1.635 0,-0.65348 -0.14494,-1.2278 -0.43924,-1.711 l -0.002,-0.00207 c -0.28362,-0.48647 -0.6735,-0.86524 -1.1622,-1.1229 -0.48827,-0.25745 -1.0392,-0.38447 -1.6428,-0.38447 z M 60.403,0.37672 a 0.17523,0.17523 0 0 0 -0.1757,0.17622 v 10.384 a 0.17523,0.17523 0 0 0 0.1757,0.17622 h 1.586 a 0.17523,0.17523 0 0 0 0.17363,-0.17622 V 0.55294 A 0.17523,0.17523 0 0 0 61.989,0.37672 Z m 4.5036,0 a 0.17523,0.17523 0 0 0 -0.1757,0.17622 v 10.384 a 0.17523,0.17523 0 0 0 0.1757,0.17622 h 1.586 a 0.17523,0.17523 0 0 0 0.1757,-0.17622 v -7.3143 l 4.0256,7.3985 a 0.17523,0.17523 0 0 0 0.15451,0.09198 h 1.8123 a 0.17523,0.17523 0 0 0 0.1757,-0.17621 v -10.384 a 0.17523,0.17523 0 0 0 -0.1757,-0.17622 h -1.5859 a 0.17523,0.17523 0 0 0 -0.1757,0.17622 v 7.3024 l -4.0256,-7.3866 a 0.17523,0.17523 0 0 0 -0.154,-0.091984 z m 20.916,0 a 0.17523,0.17523 0 0 0 -0.1757,0.17622 v 10.384 a 0.17523,0.17523 0 0 0 0.1757,0.17622 h 5.7402 a 0.17523,0.17523 0 0 0 0.17415,-0.17622 V 9.51534 A 0.17523,0.17523 0 0 0 91.5628,9.33964 h -3.9786 v -2.7461 h 3.9026 a 0.17523,0.17523 0 0 0 0.1757,-0.1757 V 5.03294 A 0.17523,0.17523 0 0 0 91.4868,4.85879 h -3.9026 v -2.7089 h 3.9786 a 0.17523,0.17523 0 0 0 0.17415,-0.1757 V 0.55259 A 0.17523,0.17523 0 0 0 91.5628,0.37637 Z m 40.957,1.4593 h 1.4609 c 0.5758,0 1.0142,0.13702 1.3379,0.40049 0.31457,0.25605 0.47645,0.64604 0.47645,1.2242 0,0.57737 -0.16558,0.97128 -0.48989,1.2366 -0.3237,0.26348 -0.76056,0.40049 -1.3364,0.40049 h -1.449 z m -109.65,0.011369 c 0.64942,0 1.2219,0.16639 1.7306,0.50023 a 0.17523,0.17523 0 0 0 0.0021,0.00207 c 0.51919,0.32749 0.9197,0.77153 1.2087,1.3415 0.28964,0.57123 0.43356,1.1882 0.43356,1.8593 0,0.67116 -0.14393,1.2865 -0.43356,1.8578 -0.28872,0.56942 -0.68983,1.0176 -1.2087,1.3534 -0.51801,0.32675 -1.0913,0.49041 -1.7327,0.49041 -0.6486,0 -1.2232,-0.16336 -1.7399,-0.48834 l -0.0021,-0.00207 c -0.51103,-0.33592 -0.91334,-0.78264 -1.2108,-1.3534 -0.28964,-0.57123 -0.43356,-1.1866 -0.43356,-1.8578 0,-0.67049 0.1445,-1.2865 0.43356,-1.8573 v -0.00207 c 0.29766,-0.57067 0.6999,-1.0142 1.2108,-1.3415 0.51758,-0.33444 1.0926,-0.50229 1.742,-0.50229 z m 9.2754,0 h 1.1953 c 0.55616,1e-7 0.9639,0.11096 1.2325,0.30696 0.25723,0.18771 0.39274,0.50027 0.39274,1.0036 0,0.25954 -0.05508,0.50506 -0.17002,0.74259 a 0.17523,0.17523 0 0 0 -0.0021,0.00155 c -0.10355,0.2219 -0.25736,0.39498 -0.47439,0.52968 -0.21115,0.13106 -0.47358,0.20102 -0.80098,0.20102 h -1.373 z m 12.232,0 c 0.64942,1e-7 1.2219,0.16639 1.7306,0.50023 a 0.17523,0.17523 0 0 0 0.0021,0.00207 c 0.51919,0.32749 0.9197,0.77153 1.2087,1.3415 0.28964,0.57123 0.43408,1.1882 0.43408,1.8593 0,0.67116 -0.14444,1.2865 -0.43408,1.8578 -0.28872,0.56942 -0.68983,1.0176 -1.2087,1.3534 -0.51801,0.32675 -1.0913,0.49041 -1.7327,0.49041 -0.64861,0 -1.2232,-0.16336 -1.7399,-0.48834 L 36.895,8.761689 c -0.51103,-0.33592 -0.91334,-0.78264 -1.2108,-1.3534 h 0.0021 c -0.28972,-0.57123 -0.43566,-1.1866 -0.43566,-1.8578 0,-0.67116 0.14599,-1.2881 0.43563,-1.8593 0.2976,-0.57008 0.69821,-1.0145 1.2087,-1.3415 0.51758,-0.33444 1.0926,-0.50229 1.742,-0.50229 z m 78.893,0 c 0.64942,1e-7 1.2199,0.16639 1.7286,0.50023 a 0.17523,0.17523 0 0 0 0.002,0.00207 c 0.51919,0.32749 0.9197,0.77153 1.2087,1.3415 0.28964,0.57123 0.43357,1.1882 0.43357,1.8593 0,0.67116 -0.14393,1.2865 -0.43357,1.8578 -0.28872,0.56942 -0.68983,1.0176 -1.2087,1.3534 -0.51801,0.32674 -1.0892,0.49041 -1.7306,0.49041 -0.65014,0 -1.2264,-0.16388 -1.7441,-0.49041 -0.51103,-0.33592 -0.91333,-0.78264 -1.2108,-1.3534 h 0.002 c -0.28964,-0.57123 -0.43357,-1.1866 -0.43357,-1.8578 0,-0.67116 0.14393,-1.2881 0.43357,-1.8593 0.2976,-0.57008 0.69872,-1.0145 1.2092,-1.3415 0.51758,-0.33444 1.0947,-0.50229 1.7441,-0.50229 z M 17.07,4.630189 A 0.92614,0.92614 0 0 0 16.14396,5.556229 0.92614,0.92614 0 0 0 17.07,6.482269 0.92614,0.92614 0 0 0 17.99656,5.556229 0.92614,0.92614 0 0 0 17.07,4.630189 Z m 21.598,0 a 0.92614,0.92614 0 0 0 -0.92604,0.92604 0.92614,0.92614 0 0 0 0.92604,0.92604 0.92614,0.92614 0 0 0 0.92604,-0.92604 0.92614,0.92614 0 0 0 -0.92604,-0.92604 z m -12.265,1.6356 h 1.51 c 0.38332,0 0.69618,0.065805 0.94309,0.18552 a 0.17523,0.17523 0 0 0 0.0062,0.00207 c 0.25702,0.11339 0.43869,0.27138 0.56224,0.48214 a 0.17523,0.17523 0 0 0 0.0021,0.00413 c 0.13154,0.21192 0.19947,0.47069 0.19947,0.7891 0,0.48918 -0.12493,0.85441 -0.36949,1.1286 a 0.17523,0.17523 0 0 0 -0.0021,0.00207 c -0.22245,0.25721 -0.62477,0.40411 -1.2516,0.40411 h -1.5999 z"
         color="#000000"
         fill="#b5b5b5"
         style="font-variation-settings:'wght' 500;-inkscape-stroke:none"
         id="path828" />
      <g
         stroke-linecap="round"
         stroke-linejoin="round"
         id="g836">
        <path
           transform="scale(0.26458)"
           d="m 355.63,1.4238 c -0.36552,8.911e-4 -0.6607,0.29853 -0.66016,0.66406 v 11.133 7.4492 20.664 c -5.3e-4,0.36552 0.29462,0.66318 0.66016,0.66406 h 5.9941 c 0.36635,2.53e-4 0.66459,-0.29772 0.66406,-0.66406 v -20.664 -6.9844 c 0,-0.53452 -1e-5,0.01968 0,-0.46484 v -11.133 c 5.3e-4,-0.36633 -0.29774,-0.66431 -0.66406,-0.66406 H 355.63 Z m 23.281,0.00391 c -0.36548,8.91e-4 -0.66069,0.29658 -0.66016,0.66211 v 11.133 7.4512 20.662 c -5.3e-4,0.36552 0.29464,0.66317 0.66016,0.66406 h 5.9941 c 0.36623,2.49e-4 0.66459,-0.29775 0.66406,-0.66406 v -20.662 -6.9863 -0.46484 -11.133 c 5.3e-4,-0.36633 -0.29764,-0.66236 -0.66406,-0.66211 h -5.9941 z"
           color="#000000"
           fill="#ffce7e"
           stroke-width="1.3245"
           style="-inkscape-stroke:none"
           id="path830" />
        <path
           d="M 94.09,0.37679 A 0.17523,0.17523 0 0 0 94.05578,0.38034 C 94.06685,0.378221 94.0783,0.376817 94.09,0.37679 Z m 1.5863,0 c 0.09692,-6.622e-5 0.17549,0.078565 0.17535,0.17549 v 2.9455 c -3e-6,0.1282 0,-0.01849 0,0.12293 l 4.0257,7.3995 a 0.17523,0.17523 0 0 0 0.15414,0.09158 h 0.2234 c -0.0954,-0.0019 -0.17221,-0.07944 -0.17207,-0.17522 v -10.384 c -1.4e-4,-0.09671 0.0781,-0.17525 0.1748,-0.17549 h 1.5863 c 0.0726,-5.033e-5 0.13505,0.044102 0.16166,0.10705 a 0.17523,0.17523 0 0 0 -0.16166,-0.10732 h -1.5857 a 0.17523,0.17523 0 0 0 -0.17549,0.17535 v 7.3053 l -4.0261,-7.3891 A 0.17523,0.17523 0 0 0 95.90305,0.376784 Z M 94.0539,0.380763 A 0.17523,0.17523 0 0 0 94.02297,0.390485 C 94.03287,0.386353 94.04318,0.383041 94.0539,0.380763 Z M 94.02078,0.391438 A 0.17523,0.17523 0 0 0 93.99217,0.40704 c 0.009,-0.006066 0.0186,-0.011258 0.02861,-0.015602 z M 93.99217,0.40704 a 0.17523,0.17523 0 0 0 -0.02506,0.020662 c 0.0077,-0.007629 0.01605,-0.014569 0.02506,-0.020662 z m -0.02656,0.022172 a 0.17523,0.17523 0 0 0 -0.01997,0.02437 c 0.0059,-0.008689 0.01263,-0.016874 0.01997,-0.02437 z M 93.94439,0.45549 a 0.17523,0.17523 0 0 0 -0.01547,0.028608 c 0.0043,-0.010092 0.0095,-0.019576 0.01547,-0.028608 z m -0.01547,0.028608 a 0.17523,0.17523 0 0 0 -0.0099,0.03162 c 0.0024,-0.010914 0.0056,-0.021562 0.0099,-0.03162 z m 8.0766,2.6489e-4 c 0.004,0.010066 0.008,0.020688 0.01,0.03162 a 0.17523,0.17523 0 0 0 -0.01,-0.03162 z m -8.087,0.033949 a 0.17523,0.17523 0 0 0 -0.0033,0.033811 c -8e-6,-0.011602 0.0011,-0.022834 0.0033,-0.033811 z m 8.0974,5.2979e-4 c 0.002,0.010834 0.003,0.02196 0.003,0.0334 a 0.17523,0.17523 0 0 0 -0.003,-0.0334 z M 93.91522,10.936842 a 0.17523,0.17523 0 0 0 0.0033,0.03422 c -0.0021,-0.01107 -0.0033,-0.02252 -0.0033,-0.03422 z m 1.9364,0 c 1.6e-5,0.01192 -0.0013,0.02363 -0.0035,0.03491 a 0.17523,0.17523 0 0 0 0.0035,-0.03491 z m 6.1676,5.3e-4 c 10e-6,0.01118 -0.001,0.02212 -0.003,0.03272 a 0.17523,0.17523 0 0 0 0.003,-0.03272 z m -8.1003,0.03559 a 0.17523,0.17523 0 0 0 0.0097,0.03148 c -0.0042,-0.01001 -0.0075,-0.02064 -0.0097,-0.03148 z m 1.929,0 c -0.0021,0.01076 -0.0055,0.02114 -0.0096,0.03107 a 0.17523,0.17523 0 0 0 0.0096,-0.03107 z m 6.1671,0.0024 c -0.002,0.0094 -0.005,0.01849 -0.008,0.02724 a 0.17523,0.17523 0 0 0 0.008,-0.02724 z m -8.0857,0.03066 a 0.17523,0.17523 0 0 0 0.01491,0.02792 c -0.0058,-0.0088 -0.01073,-0.01812 -0.01491,-0.02792 z m 1.9081,5.3e-4 c -0.0042,0.0099 -0.0093,0.01923 -0.0152,0.02806 a 0.17523,0.17523 0 0 0 0.0152,-0.02806 z m 6.1665,0.0024 c -0.004,0.0086 -0.008,0.01674 -0.0133,0.0245 a 0.17523,0.17523 0 0 0 0.0133,-0.0245 z m -6.1825,0.02697 c -0.0061,0.009 -0.01314,0.01748 -0.02079,0.02519 a 0.17523,0.17523 0 0 0 0.02079,-0.02519 z m -1.8758,1.41e-4 a 0.17523,0.17523 0 0 0 0.01984,0.02408 c -0.0073,-0.0074 -0.01399,-0.01547 -0.01984,-0.02408 z m 8.0423,0.0013 c -0.005,0.0077 -0.0113,0.01489 -0.0178,0.02162 a 0.17523,0.17523 0 0 0 0.0178,-0.02162 z m -6.188,0.02437 c -0.0075,0.0075 -0.01573,0.01422 -0.0245,0.02027 a 0.17523,0.17523 0 0 0 0.0245,-0.02027 z m -1.8328,1.41e-4 a 0.17523,0.17523 0 0 0 0.02506,0.02066 c -0.009,-0.0061 -0.01735,-0.01303 -0.02506,-0.02066 z m 0.02506,0.02066 a 0.17523,0.17523 0 0 0 0.02833,0.01547 c -0.0099,-0.0043 -0.01947,-0.0095 -0.02833,-0.01547 z m 7.973,-0.01862 c -0.006,0.006 -0.0129,0.01155 -0.02,0.01656 a 0.17523,0.17523 0 0 0 0.02,-0.01656 z m -6.1921,0.01971 c -0.0086,0.0057 -0.01778,0.01065 -0.02738,0.01478 a 0.17523,0.17523 0 0 0 0.02738,-0.01478 z m 6.1651,0.0016 c -0.007,0.0044 -0.014,0.0082 -0.0215,0.01163 a 0.17523,0.17523 0 0 0 0.0215,-0.01163 z m -7.9147,0.01425 a 0.17523,0.17523 0 0 0 0.03053,0.0095 c -0.01057,-0.0021 -0.02077,-0.0054 -0.03053,-0.0095 z m 1.7197,0 c -0.0098,0.0041 -0.02016,0.0073 -0.0308,0.0096 a 0.17523,0.17523 0 0 0 0.0308,-0.0096 z m 6.1653,0.0011 c -0.008,0.0031 -0.016,0.0056 -0.0244,0.0075 a 0.17523,0.17523 0 0 0 0.0244,-0.0075 z m -7.8532,0.0088 a 0.17523,0.17523 0 0 0 0.03477,0.0035 c -0.01189,-2.9e-5 -0.02355,-0.0013 -0.03477,-0.0035 z m 1.655,2.64e-4 c -0.01102,0.0021 -0.0223,0.0033 -0.03395,0.0033 a 0.17523,0.17523 0 0 0 0.03395,-0.0033 z m 6.1649,5.3e-4 c -0.009,0.0016 -0.0181,0.0026 -0.0274,0.0027 a 0.17523,0.17523 0 0 0 0.0274,-0.0027 z"
           color="#000000"
           fill="#eabc71"
           stroke-width="0.35043"
           style="-inkscape-stroke:none"
           id="path832" />
        <path
           transform="scale(0.26458)"
           d="m 361.61,1.4238 c 0.36631,-2.516e-4 0.66459,0.29773 0.66406,0.66406 v 11.133 0.46484 l 2.0781,3.8203 v -4.0781 c 0,-0.53452 -3e-5,0.01967 0,-0.46484 v -8.7988 l -1.3047,-2.3945 a 0.6623,0.6623 0 0 0 -0.58008,-0.3457 h -0.85742 z m 17.318,0 a 0.6623,0.6623 0 0 0 -0.0137,0.00195 c 0.004,-7.7e-5 0.008,9.6e-6 0.0117,0 h 5.916 V 1.4238 h -5.9141 z m -0.0137,0.00195 c -0.0644,0.00127 -0.12699,0.01093 -0.18555,0.029297 A 0.6623,0.6623 0 0 1 378.9143,1.42575 Z m -0.19336,0.033203 c -0.0631,0.020704 -0.12268,0.05034 -0.17578,0.087891 a 0.6623,0.6623 0 0 1 0.17578,-0.087891 z m -0.17578,0.087891 a 0.6623,0.6623 0 0 0 -0.0234,0.019531 c 0.008,-0.00629 0.0151,-0.01361 0.0234,-0.019531 z m -0.0234,0.019531 c -0.0424,0.033037 -0.08,0.071048 -0.11328,0.11328 a 0.6623,0.6623 0 0 1 0.11328,-0.11328 z m -0.11328,0.11328 a 0.6623,0.6623 0 0 0 -0.0234,0.029297 c 0.007,-0.010211 0.0157,-0.01952 0.0234,-0.029297 z m -0.0234,0.029297 c -0.0362,0.051736 -0.0655,0.10686 -0.0859,0.16797 a 0.6623,0.6623 0 0 1 0.0859,-0.16797 z m -0.0898,0.18164 c -0.0189,0.060993 -0.0309,0.12626 -0.0313,0.19336 a 0.6623,0.6623 0 0 1 0.0313,-0.19336 z m -0.62891,26.709 v 12.479 c 0,0.36552 0.29464,0.66317 0.66015,0.66406 h 0.082 c -0.0884,-0.11252 -0.14453,-0.25178 -0.14454,-0.40625 v -11.639 l -0.59765,-1.0977 z m -15.393,12.734 a 0.6623,0.6623 0 0 1 -0.0137,0.13281 c 0.009,-0.04263 0.0137,-0.08776 0.0137,-0.13281 z m -0.0156,0.13672 a 0.6623,0.6623 0 0 1 -0.0352,0.11719 c 0.0155,-0.03753 0.0272,-0.07656 0.0352,-0.11719 z m -0.0391,0.12695 c -0.0159,0.03742 -0.0362,0.0721 -0.0586,0.10547 a 0.6623,0.6623 0 0 0 0.0586,-0.10547 z m -0.0605,0.11133 c -0.008,0.01134 -0.0167,0.02067 -0.0254,0.03125 h 0.002 a 0.6623,0.6623 0 0 0 0.0234,-0.03125 z"
           color="#000000"
           fill="#d6ac67"
           stroke-width="1.3245"
           style="-inkscape-stroke:none"
           id="path834" />
      </g>
      <g
         stroke-width="1.3245"
         id="g844">
        <path
           transform="scale(0.26458)"
           d="m 310.29,1.4277 a 0.6623,0.6623 0 0 0 -0.62695,0.44531 l -10.365,30.018 -10.408,-30.018 a 0.6623,0.6623 0 0 0 -0.15234,-0.23438 c 0.0595,0.064912 0.1066,0.14166 0.13672,0.22852 l 13.885,40.127 h -6.9922 c -0.0118,0 -0.0235,-0.0013 -0.0351,-0.002 a 0.6623,0.6623 0 0 0 0.0488,0.0078 h 6.9922 a 0.6623,0.6623 0 0 0 0.625,-0.43555 l 14.27,-39.25 a 0.6623,0.6623 0 0 0 -0.6211,-0.88672 h -6.7559 z m -14.559,40.564 a 0.6623,0.6623 0 0 1 -0.16602,-0.0293 c 0.053,0.01695 0.10894,0.02633 0.16602,0.0293 z m -6.9941,-40.354 c -0.0183,-0.019964 -0.0381,-0.039125 -0.0586,-0.056641 a 0.6623,0.6623 0 0 1 0.0586,0.056641 z m -0.0586,-0.056641 a 0.6623,0.6623 0 0 0 -0.0644,-0.048828 c 0.0226,0.014958 0.0438,0.031216 0.0644,0.048828 z m -0.0644,-0.048828 c -0.0463,-0.030635 -0.0955,-0.055856 -0.14844,-0.074219 a 0.6623,0.6623 0 0 1 0.14844,0.074219 z m 6.8828,40.402 c 0.0219,0.01021 0.0431,0.01979 0.0664,0.02734 a 0.6623,0.6623 0 0 1 -0.0664,-0.02734 z"
           color="#000000"
           fill="#9ecd7a"
           style="-inkscape-stroke:none"
           id="path838" />
        <path
           transform="scale(0.26458)"
           d="m 281.5,1.4219 c -0.45886,5.715e-4 -0.7773,0.45525 -0.6211,0.88672 l 14.271,39.25 c 0.0951,0.2616 0.34472,0.43528 0.62304,0.43555 h 6.9922 l -13.885,-40.127 c -0.0924,-0.26673 -0.34275,-0.44542 -0.625,-0.44531 h -6.7559 z"
           color="#000000"
           fill="#acdf86"
           style="-inkscape-stroke:none"
           id="path840" />
        <path
           transform="scale(0.26458)"
           d="m 288.47,1.459 a 0.6623,0.6623 0 0 1 0.14844,0.074219 C 288.57212,1.502584 288.52293,1.477363 288.47,1.459 Z m 0.14844,0.074219 c 0.0226,0.014958 0.0438,0.031216 0.0644,0.048828 a 0.6623,0.6623 0 0 0 -0.0644,-0.048828 z m 0.0644,0.048828 a 0.6623,0.6623 0 0 1 0.0586,0.056641 c -0.0183,-0.019964 -0.0381,-0.039125 -0.0586,-0.056641 z m 0.0586,0.056641 c 0.0595,0.064912 0.10665,0.14166 0.13672,0.22852 l 13.885,40.127 h 0.10156 a 0.6623,0.6623 0 0 0 0.53711,-0.42969 l 0.13868,-0.38281 -3.7266,-10.771 -0.51172,1.4805 -10.408,-30.018 a 0.6623,0.6623 0 0 0 -0.15234,-0.23438 z"
           color="#000000"
           fill="#8cb66f"
           style="-inkscape-stroke:none"
           id="path842" />
      </g>
      <g
         stroke-linecap="round"
         stroke-linejoin="round"
         stroke-width="0.35043"
         id="g856">
        <path
           d="M 3.1671,0.43705 A 0.17523,0.17523 0 0 0 3.15876,0.44729 C 3.16142,0.444392 3.16422,0.440528 3.1671,0.43705 Z M 3.151232,0.458302 A 0.17523,0.17523 0 0 0 3.138782,0.48139 C 3.142302,0.473662 3.146602,0.46574 3.151232,0.458302 Z M 3.137403,0.484095 a 0.17523,0.17523 0 0 0 -0.013824,0.06878 v 10.384 a 0.17523,0.17523 0 0 0 0.17535,0.17535 h 1.5858 a 0.17523,0.17523 0 0 0 0.16208,-0.10869 c -0.026601,0.06299 -0.088872,0.1071 -0.16153,0.10704 h -1.5858 c -0.096872,6.7e-5 -0.17542,-0.07844 -0.17535,-0.17535 v -10.384 C 3.1240943,0.527461 3.128839,0.50476 3.137401,0.48399 Z m 1.9094,10.52 a 0.17523,0.17523 0 0 0 0.00917,-0.02956 c -0.00238,0.01014 -0.0052,0.02019 -0.00917,0.02956 z m 0.013827,-8.9811 v 9.66e-4 h 1.4605 c 0.57579,0 1.0133,0.13801 1.337,0.40149 0.31458,0.25604 0.47692,0.64532 0.47692,1.2235 0,0.2165 -0.023311,0.4071 -0.06954,0.57478 0.046526,-0.16809 0.070087,-0.35917 0.070087,-0.57643 0,-0.57817 -0.16234,-0.96744 -0.47691,-1.2235 -0.3237,-0.26347 -0.76119,-0.40149 -1.337,-0.40149 z m 5.0444,2.8471 c -0.04853,0.12563 -0.10521,0.24581 -0.17029,0.36043 l -5.231e-4,9.66e-4 c 0.06536,-0.11511 0.1221601,-0.23585 0.1708401,-0.36207 z m -0.17084,0.36207 c -0.24609,0.44756 -0.55516,0.79473 -0.92714,1.0306 -0.27964,0.17734 -0.56193,0.28159 -0.84487,0.34509 -0.80975,0.146 -0.89396,0.14056 -1.9706,0.18576 h -1.131 v 9.661e-4 h 1.1304 l 2.3163,4.2263999 a 0.17523,0.17523 0 0 0 0.15359,0.091 h 1.7876 a 0.17523,0.17523 0 0 0 0.15208,-0.26282 L 8.16165,6.6092611 c 0.28294,-0.063467 0.56523,-0.16776 0.84487,-0.34509 0.37199,-0.2359 0.68105,-0.58307 0.92714,-1.0306 z m -4.8743,5.7104 c -2.65e-4,0.0087 -0.00104,0.01661 -0.00238,0.02444 a 0.17523,0.17523 0 0 0 0.00238,-0.02444 z"
           color="#000000"
           fill="#e49090"
           style="-inkscape-stroke:none"
           id="path846" />
        <path
           d="m 5.0607,2.0227 v 9.66e-4 h 1.4605 c 0.57579,0 1.0133,0.13801 1.337,0.4015 0.10751,0.087521 0.19675,0.19097 0.2683,0.31182 8.084e-4,4.734e-4 0.00152,9.564e-4 0.00233,9.66e-4 -0.071845,-0.1222 -0.16165,-0.22672 -0.27008,-0.31498 -0.3237,-0.26348 -0.76119,-0.4015 -1.337,-0.4015 z m 4.9655,3.0315 C 9.99783,5.114286 9.967438,5.17292 9.934897,5.23024 l -5.708e-4,9.66e-4 c 0.03282,-0.057768 0.063293,-0.11706 0.091851,-0.17769 z M 9.934348,5.23188 c -0.24609,0.44756 -0.55515,0.79473 -0.92714,1.0306 -0.27964,0.17734 -0.56193,0.28159 -0.84487,0.34509 -0.80975,0.146 -0.89395,0.14056 -1.9706,0.18576 h -1.131 v 9.66e-4 h 1.1304 l 0.23052,0.42053 h 0.19 c 0.99673,-0.041828 1.1498,-0.041828 1.8084,-0.15715 l -0.25831,-0.44913 c 0.28294,-0.063467 0.56523,-0.16775 0.84487,-0.34509 0.37199,-0.23589 0.68105,-0.58306 0.92714,-1.0306 z m -4.8743,5.7104 c -2.805e-4,0.0087 -0.00114,0.01661 -0.00247,0.02444 a 0.17523,0.17523 0 0 0 0.00247,-0.02444 z m -0.00395,0.03188 c -0.00238,0.01014 -0.00521,0.02019 -0.00917,0.02956 a 0.17523,0.17523 0 0 0 0.00917,-0.02956 z m -0.01,0.0314 c -0.027024,0.06202 -0.088747,0.10532 -0.16071,0.10526 h -1.3412 v 9.66e-4 h 1.3407 a 0.17523,0.17523 0 0 0 0.16125,-0.10691 z"
           color="#000000"
           fill="#bf7171"
           style="-inkscape-stroke:none"
           id="path848" />
        <path
           d="M 3.2989,0.3775 C 3.202028,0.37743238 3.12348,0.455941 3.12355,0.55285 v 10.384 c -6.9e-5,0.09689 0.07848,0.17542 0.17535,0.17536 h 1.5858 c 0.096874,5.8e-5 0.17542,-0.07844 0.17535,-0.17536 0,-6.4412 -2.42e-5,-5.9942 0,-6.7054 2.4e-6,-0.068297 -2.9e-6,-0.5558 0,-0.64433 -8.1e-6,-0.42367 0,-0.11959 0,-3.0345 C 5.0601161,0.455738 4.98157,0.3772 4.8847,0.37727 Z"
           color="#000000"
           fill="#ffa4a4"
           style="-inkscape-stroke:none"
           id="path850" />
        <path
           d="m 4.8864,0.37423 c 0.09662,2.3185e-4 0.17487,0.078634 0.17481,0.17535 v 1.4715 h 1.461 c 0.57579,0 1.0133,0.13802 1.337,0.4015 0.31458,0.25605 0.47692,0.64534 0.47692,1.2235 0,0.57738 -0.16562,0.97062 -0.48992,1.236 -0.32367,0.2633 -0.76071,0.40108 -1.3363,0.40108 h -1.4487 c -2.8e-6,0.12284 0,1.2833 0,1.5086 h 1.131 C 7.26891,6.74655 7.35311,6.75196 8.16281,6.60599 8.44575,6.542523 8.72804,6.43823 9.00768,6.2609 9.37966,6.025 9.68873,5.67783 9.93482,5.2303 l 5.23e-4,-9.66e-4 c 0.26033,-0.45847 0.38753,-1.0063 0.38753,-1.6333 0,-0.65418 -0.14542,-1.2295 -0.44037,-1.713 -0.28366,-0.48687 -0.67454,-0.86478 -1.1635,-1.1226 -0.48827,-0.25746 -1.0391,-0.38549 -1.6427,-0.38549 z"
           color="#000000"
           fill="#f79797"
           style="-inkscape-stroke:none"
           id="path852" />
        <path
           d="m 4.8859,0.37747 c 0.09662,2.1252e-4 0.17487,0.078634 0.17481,0.17535 v 1.4715 h 0.41997 c 1.4e-6,-0.34966 0,-0.057961 0,-1.4715 C 5.4807466,0.455938 5.402202,0.3774 5.30533,0.37747 Z m 0.17481,4.9089 c -1.5e-6,0.12283 1e-6,1.2833 0,1.5086 h 0.41997 c 0,-0.22534 -2e-6,-1.3858 0,-1.5086 z"
           color="#000000"
           fill="#d47d7d"
           style="-inkscape-stroke:none"
           id="path854" />
      </g>
      <g
         stroke-width="0.35043"
         id="g864">
        <path
           d="M 44.972,0.37769 A 0.17523,0.17523 0 0 0 44.93805,0.380986 C 44.94906,0.378869 44.96034,0.37769 44.972,0.37769 Z m 7.0362,0 c 0.01188,-1.815e-5 0.02353,0.00121 0.03477,0.003417 A 0.17523,0.17523 0 0 0 52.0082,0.37769 Z m -7.0723,0.003689 a 0.17523,0.17523 0 0 0 -0.03107,0.009707 c 0.0099,-0.004113 0.02032,-0.007469 0.03107,-0.009707 z m 7.1087,0 c 0.01083,0.002419 0.0212,0.005564 0.03121,0.009707 A 0.17523,0.17523 0 0 0 52.0446,0.381379 Z m 0.03245,0.010282 c 0.01028,0.004385 0.02011,0.009677 0.0293,0.015876 a 0.17523,0.17523 0 0 0 -0.0293,-0.015876 z m 0.0293,0.015876 c 0.0088,0.005957 0.01705,0.012701 0.02464,0.02011 a 0.17523,0.17523 0 0 0 -0.02464,-0.02011 z m -7.2036,-0.015604 a 0.17523,0.17523 0 0 0 -0.02888,0.015604 c 0.009,-0.006109 0.01875,-0.011249 0.02888,-0.015604 z m -0.02888,0.015604 a 0.17523,0.17523 0 0 0 -0.02561,0.021077 c 0.0079,-0.007802 0.01639,-0.014878 0.02561,-0.021077 z M 44.84759,0.429159 A 0.17523,0.17523 0 0 0 44.8276,0.453533 c 0.006,-0.008649 0.01258,-0.016934 0.01999,-0.024374 z m 7.2856,9.072e-4 c 0.0072,0.007288 0.01376,0.015241 0.01957,0.023678 a 0.17523,0.17523 0 0 0 -0.01957,-0.023678 z m 0.0215,0.026279 c 0.0057,0.008618 0.01064,0.017781 0.01479,0.027367 a 0.17523,0.17523 0 0 0 -0.01479,-0.027367 z m -7.3292,3.024e-4 a 0.17523,0.17523 0 0 0 -0.01491,0.027518 c 0.0041,-0.009677 0.0092,-0.01884 0.01491,-0.027518 z m -0.01548,0.028758 a 0.17523,0.17523 0 0 0 -0.0096,0.031622 c 0.0024,-0.010917 0.0054,-0.021531 0.0096,-0.031622 z m 7.3604,6.048e-4 c 0.0042,0.0101 0.0075,0.020654 0.0097,0.031622 a 0.17523,0.17523 0 0 0 -0.0097,-0.031622 z m 0.0097,0.031622 c 0.0024,0.011431 0.0036,0.023345 0.0036,0.035454 a 0.17523,0.17523 0 0 0 -0.0036,-0.035454 z m -7.38,3.024e-4 a 0.17523,0.17523 0 0 0 -0.0036,0.035042 c -1.8e-5,-0.011975 0.0012,-0.023738 0.0036,-0.035042 z m -0.0036,1.4573 a 0.17523,0.17523 0 0 0 0.0034,0.034359 c -0.0021,-0.011128 -0.0034,-0.022559 -0.0034,-0.034359 z m 7.3871,0 c 9e-6,0.011915 -0.0012,0.023497 -0.0036,0.03477 a 0.17523,0.17523 0 0 0 0.0036,-0.03477 z m -0.0037,0.035865 c -0.0021,0.010765 -0.0055,0.021138 -0.0096,0.031072 a 0.17523,0.17523 0 0 0 0.0096,-0.031072 z m -7.3796,2.782e-4 a 0.17523,0.17523 0 0 0 0.0097,0.031486 c -0.0042,-0.01004 -0.0074,-0.020624 -0.0097,-0.031486 z m 0.0104,0.032853 a 0.17523,0.17523 0 0 0 0.01575,0.029031 c -0.0062,-0.0091 -0.01137,-0.018809 -0.01575,-0.029031 z m 0.01575,0.029031 A 0.17523,0.17523 0 0 0 44.84699,2.09818 C 44.83939,2.0905 44.8325,2.082213 44.82646,2.073262 Z m 7.3429,-0.028758 c -0.0043,0.01007 -0.0097,0.019596 -0.01575,0.028607 a 0.17523,0.17523 0 0 0 0.01575,-0.028607 z m -0.01575,0.028758 c -0.0062,0.00922 -0.01325,0.017872 -0.02108,0.025734 a 0.17523,0.17523 0 0 0 0.02108,-0.025734 z m -0.02177,0.026279 c -0.0078,0.0078 -0.01639,0.014878 -0.02558,0.021077 a 0.17523,0.17523 0 0 0 0.02558,-0.021077 z m -0.02558,0.021077 c -0.0093,0.00626 -0.01926,0.011612 -0.0297,0.016027 a 0.17523,0.17523 0 0 0 0.0297,-0.016027 z m -7.2576,-0.020685 a 0.17523,0.17523 0 0 0 0.02519,0.020684 C 44.86485,2.114507 44.8564,2.107584 44.84866,2.099933 Z m 0.02531,0.020684 a 0.17523,0.17523 0 0 0 0.0293,0.016027 c -0.01031,-0.00438 -0.02011,-0.00983 -0.0293,-0.016027 z m 0.0297,0.016148 a 0.17523,0.17523 0 0 0 0.03203,0.00998 c -0.01107,-0.00242 -0.02183,-0.00569 -0.03203,-0.00998 z m 7.1726,0 c -0.01019,0.00429 -0.02096,0.00768 -0.03203,0.00998 a 0.17523,0.17523 0 0 0 0.03203,-0.00998 z m -7.139,0.010282 a 0.17523,0.17523 0 0 0 0.03463,0.00357 c -0.01188,1.82e-5 -0.02341,-0.00121 -0.03463,-0.00357 z m 7.1052,1.391e-4 c -0.01113,0.00212 -0.02259,0.00345 -0.03436,0.00342 a 0.17523,0.17523 0 0 0 0.03436,-0.00342 z m -4.5266,0.00342 v 8.7864999 a 0.17523,0.17523 0 0 0 0.17481,0.17535 h 1.5987 a 0.17523,0.17523 0 0 0 0.17535,-0.17535 V 2.1505061 Z"
           color="#000000"
           fill="#71a6de"
           style="-inkscape-stroke:none"
           id="path858" />
        <path
           d="m 44.972,0.37769 c -0.09698,-1.3911e-4 -0.17563,0.078512 -0.17549,0.17549 v 1.4223 c -6.7e-5,0.096923 0.07856,0.17549 0.17549,0.17535 h 7.0362 c 0.09692,1.391e-4 0.17556,-0.078428 0.17549,-0.17535 V 0.55318 C 52.183829,0.4562 52.10518,0.37755 52.0082,0.37769 Z"
           color="#000000"
           fill="#7ebeff"
           style="-inkscape-stroke:none"
           id="path860" />
        <path
           d="m 44.797,1.9753 a 0.17523,0.17523 0 0 0 0.0033,0.034379 C 44.7982,1.998551 44.797,1.987099 44.797,1.9753 Z m 7.387,0 c 1e-5,0.011914 -0.0012,0.023418 -0.0036,0.034692 a 0.17523,0.17523 0 0 0 0.0036,-0.029535 0.17523,0.17523 0 0 0 0,-0.00516 z M 52.1802,2.011086 C 52.1781,2.021851 52.1748,2.03225 52.1707,2.042184 a 0.17523,0.17523 0 0 0 0.0095,-0.031098 z m -7.3795,3.2e-4 a 0.17523,0.17523 0 0 0 0.0097,0.031566 C 44.8062,2.032932 44.803,2.022271 44.8007,2.011406 Z m 0.01047,0.032817 A 0.17523,0.17523 0 0 0 44.8268,2.073289 C 44.8206,2.064189 44.81556,2.054443 44.81117,2.044223 Z m 0.01563,0.029066 a 0.17523,0.17523 0 0 0 0.02063,0.025003 C 44.83983,2.090612 44.83285,2.08224 44.8268,2.073289 Z m 7.343,-0.028754 c -0.0043,0.01007 -0.0097,0.019586 -0.01578,0.028597 A 0.17523,0.17523 0 0 0 52.1698,2.044535 Z m -0.01578,0.028754 c -0.0062,0.00922 -0.01326,0.017921 -0.0211,0.025784 a 0.17523,0.17523 0 0 0 0.0211,-0.025784 z M 52.1323,2.099542 c -0.0078,0.0078 -0.01644,0.014897 -0.02563,0.021096 A 0.17523,0.17523 0 0 0 52.1323,2.099542 Z m -0.02563,0.021096 c -0.0093,0.00626 -0.01926,0.011681 -0.02969,0.016096 A 0.17523,0.17523 0 0 0 52.10667,2.120638 Z M 44.84897,2.10001 a 0.17523,0.17523 0 0 0 0.02532,0.020628 c -0.009,-0.0061 -0.01757,-0.012977 -0.02532,-0.020628 z m 0.02532,0.020628 a 0.17523,0.17523 0 0 0 0.02938,0.016096 c -0.01031,-0.00438 -0.02019,-0.0099 -0.02938,-0.016096 z m 0.02969,0.016252 a 0.17523,0.17523 0 0 0 0.03204,0.00984 C 44.92495,2.14431 44.91419,2.14118 44.90398,2.13689 Z m 7.1726,0 c -0.01019,0.0043 -0.02096,0.00754 -0.03204,0.00984 a 0.17523,0.17523 0 0 0 0.03204,-0.00984 z m -7.1389,0.010157 a 0.17523,0.17523 0 0 0 0.03453,0.00359 c -0.01188,1.84e-5 -0.02331,-0.00123 -0.03453,-0.00359 z m 7.1051,1.6e-4 c -0.01113,0.00212 -0.02261,0.00346 -0.03438,0.00344 a 0.17523,0.17523 0 0 0 0.03438,-0.00344 z m -4.5267,0.00344 v 0.80026 h 1.949 v -0.80026 z"
           color="#000000"
           fill="#5881ac"
           style="-inkscape-stroke:none"
           id="path862" />
      </g>
    </g>
    <g
       aria-label="理系YouTuberの ブログ的な何か"
       style="font-style:normal;font-variant:normal;font-weight:normal;font-stretch:normal;font-size:348.485px;line-height:1.25;font-family:IPAPGothic;-inkscape-font-specification:IPAPGothic;letter-spacing:0px;word-spacing:0px;fill:#ff6a00;fill-opacity:1;stroke:none;stroke-width:3.20005"
       id="text1431"
       transform="matrix(0.10203563,0,0,0.10203563,142.53481,43.694786)">
      <path
         d="m 523.07073,169.38166 v 71.46666 h 37.0946 v 21.61015 h -37.0946 v 78.44316 q 20.41905,-5.95555 46.79365,-14.97396 l 1.70158,20.5892 q -58.53459,23.4819 -108.73141,36.58412 l -9.35872,-23.82222 q 27.05523,-6.29587 46.28316,-11.40063 v -85.41967 h -36.58412 v -21.61015 h 36.58412 v -71.46666 h -40.32761 v -21.95047 h 107.71046 v 21.95047 z m 225.97076,-32.33015 v 157.05648 h -71.46666 v 39.81713 h 78.78348 v 21.26984 h -78.78348 v 42.36952 h 92.73649 v 21.61015 H 556.25168 v -21.61015 h 97.67109 v -42.36952 h -75.3803 v -21.26984 h 75.3803 V 294.10799 H 584.83834 V 137.05151 Z m -141.57204,20.92952 v 46.62348 h 47.13396 v -46.62348 z m 0,66.87237 v 48.32507 h 47.13396 V 224.8534 Z m 118.94093,48.32507 V 224.8534 H 676.8942 v 48.32507 z m 0,-68.57396 V 157.98103 H 676.8942 v 46.62348 z"
         style="stroke-width:3.20005"
         id="path1435" />
      <path
         d="m 951.87066,269.94545 q 39.81713,-38.62602 72.14724,-79.80443 l 23.3118,14.80381 q -43.0502,49.51618 -82.18667,84.22856 2.38223,-0.34032 7.99746,-0.34032 14.97397,-0.34032 86.10031,-3.74349 -12.5917,-13.6127 -28.2463,-28.24635 l 17.6965,-13.61269 q 37.2647,31.13904 66.3618,66.87237 l -20.9295,17.35618 q -7.8273,-10.54984 -19.2279,-24.33269 -2.0419,0.17016 -8.6781,0.68064 -5.1048,0.51047 -8.3378,0.68063 l -42.1993,2.8927 q -20.92955,1.36127 -41.85907,3.06285 V 433.12765 H 947.95701 V 311.80449 l -18.20699,1.02096 q -34.71237,1.70158 -104.81775,3.57333 l -9.35873,-24.84317 q 74.35935,0 111.11363,-1.36127 h 3.91365 q 1.02095,-1.02095 2.0419,-1.70159 l 1.70159,-1.70158 Q 901.16336,252.41911 854.19956,217.0261 l 18.88762,-17.69651 q 26.03428,21.26984 29.94793,24.67302 20.5892,-23.14159 36.58412,-50.87746 l -6.29587,0.34032 q -41.17841,3.74349 -99.03237,6.63619 l -9.69904,-22.63111 q 143.7841,-7.31682 235.32945,-26.20444 l 21.6102,22.29079 q -63.2991,11.40064 -132.55364,18.5473 l 18.5473,7.99746 q -27.56571,38.96634 -47.47428,59.21523 19.39809,18.03682 31.81968,30.62856 z M 816.25417,407.09337 q 45.77269,-33.18095 73.16824,-74.69967 l 22.97143,11.57079 q -30.45841,47.81459 -73.84888,81.84633 z m 273.27483,9.35872 q -43.9009,-46.9638 -82.0164,-75.21014 l 20.2488,-14.97397 q 44.4115,30.45841 85.0794,70.95618 z"
         style="stroke-width:3.20005"
         id="path1437" />
      <path
         d="m 1351.9138,156.4496 -93.7575,133.23426 v 115.70792 h -30.6286 V 289.68386 L 1135.4719,156.4496 h 38.626 l 69.7651,108.73141 69.5949,-108.73141 z"
         style="stroke-width:3.20005"
         id="path1439" />
      <path
         d="m 1456.3912,226.8953 q 36.7543,0 61.9378,24.67301 25.8641,25.86413 25.8641,68.06348 0,40.66793 -25.3537,66.19174 -24.8431,24.67301 -62.4482,24.67301 -37.6051,0 -61.9378,-24.33269 -25.5238,-25.52381 -25.5238,-67.55301 0,-41.1784 25.8641,-67.04253 24.6731,-24.67301 61.5975,-24.67301 z m 0,22.97143 q -21.7803,0 -36.9244,15.6546 -19.228,19.22793 -19.228,53.42983 0,33.69142 18.8876,52.57904 15.3143,15.31428 37.2648,15.31428 22.4609,0 37.6051,-15.6546 18.8876,-18.88762 18.8876,-53.42983 0,-32.50031 -19.2279,-52.23872 -15.6546,-15.6546 -37.2648,-15.6546 z"
         style="stroke-width:3.20005"
         id="path1441" />
      <path
         d="m 1741.0667,405.39178 h -27.9061 v -31.64952 q -25.6939,35.05269 -62.4482,35.05269 -30.1181,0 -46.9638,-20.41904 -13.2724,-16.5054 -13.2724,-47.13396 V 231.82991 h 29.9479 V 340.221 q 0,43.22031 36.2438,43.22031 36.5842,0 54.4508,-44.9219 v -106.6895 h 29.948 z"
         style="stroke-width:3.20005"
         id="path1443" />
      <path
         d="m 1983.0323,183.33468 h -92.0558 v 222.0571 h -30.9689 v -222.0571 h -89.1632 V 156.4496 h 212.1879 z"
         style="stroke-width:3.20005"
         id="path1445" />
      <path
         d="m 2160.3378,405.39178 h -27.9061 v -31.64952 q -25.6939,35.05269 -62.4482,35.05269 -30.1181,0 -46.9638,-20.41904 -13.2724,-16.5054 -13.2724,-47.13396 V 231.82991 h 29.948 V 340.221 q 0,43.22031 36.2438,43.22031 36.5841,0 54.4507,-44.9219 v -106.6895 h 29.948 z"
         style="stroke-width:3.20005"
         id="path1447" />
      <path
         d="m 2253.0741,260.07625 q 23.1416,-33.18095 59.5556,-33.18095 30.9689,0 52.9193,21.95048 25.5239,25.5238 25.5239,70.4457 0,43.90094 -25.5239,69.25459 -21.9504,21.95047 -53.5999,21.95047 -35.2229,0 -60.9169,-29.77777 l -4.2539,25.69396 h -23.3118 V 147.77151 h 29.6076 z m 0,39.98729 v 40.49777 q 0,19.90857 21.9505,35.56317 14.974,10.72 32.16,10.72 20.0787,0 34.0318,-13.95301 18.5473,-19.05778 18.5473,-52.91936 0,-30.62856 -15.3143,-50.19681 -15.1442,-18.88762 -36.9245,-18.88762 -19.9085,0 -37.4349,17.52635 -17.0159,17.01587 -17.0159,31.64951 z"
         style="stroke-width:3.20005"
         id="path1449" />
      <path
         d="m 2456.584,322.01402 q 1.5315,30.11809 18.8877,47.47427 17.6965,17.69651 42.8799,17.69651 33.181,0 52.5791,-30.96889 l 19.5682,12.93207 q -24.673,41.34856 -75.7206,41.34856 -38.626,0 -63.4692,-24.67301 -25.0133,-25.18349 -25.0133,-66.36189 0,-43.73079 26.2044,-69.93523 23.3118,-23.31174 58.1943,-23.31174 32.8406,0 54.9613,21.61015 24.8431,25.18349 24.8431,67.21269 v 6.97651 z m 103.1162,-21.95048 q -2.5524,-23.65206 -16.6755,-37.26475 -13.9531,-13.95301 -33.0108,-13.95301 -22.1207,0 -37.7753,18.88761 -10.72,12.7619 -13.953,32.33015 z"
         style="stroke-width:3.20005"
         id="path1451" />
      <path
         d="m 2733.4322,228.42673 -5.2749,29.60761 q -5.7854,-1.19111 -10.3797,-1.19111 -20.0787,0 -33.1809,18.88762 -16.3353,23.82222 -16.3353,41.85904 v 87.80189 h -29.9479 V 231.82991 h 28.2463 l -1.3612,51.55808 h 0.6806 q 19.2279,-56.49269 55.9822,-56.49269 5.9556,0 11.5708,1.53143 z"
         style="stroke-width:3.20005"
         id="path1453" />
      <path
         d="m 2899.8474,383.27115 q 117.4095,-16.16508 117.4095,-106.51935 0,-55.98221 -46.9638,-81.50602 -20.2489,-10.37968 -47.134,-12.93206 -8.3378,88.993 -37.9454,150.25014 -28.7568,59.55554 -61.4273,59.55554 -18.3771,0 -34.7123,-19.56825 -25.8642,-31.47936 -25.8642,-72.82792 0,-55.6419 42.88,-97.50094 42.88,-41.85904 110.7733,-41.85904 47.6445,0 81.5061,23.99238 48.1549,33.52126 48.1549,92.39617 0,108.22093 -129.661,131.70283 z m -3.5734,-200.27679 q -36.7542,5.61524 -63.299,27.56571 -43.2203,35.90348 -43.2203,89.84379 0,34.03174 18.3771,55.13142 7.9975,9.01841 15.4845,9.01841 16.5054,0 37.9454,-44.24126 26.885,-55.13142 34.7123,-137.31807 z"
         style="stroke-width:3.20005"
         id="path1455" />
      <path
         d="m 672.98055,610.60317 16.33523,14.97397 q -13.10222,88.1422 -56.833,142.42283 -42.87999,52.91935 -119.45141,81.67617 L 493.1228,825.17329 Q 631.80214,782.80377 658.00658,636.29713 l -195.17203,3.57334 v -26.54476 z m 55.81205,-7.31682 q -13.44254,-24.50286 -30.79872,-42.88 l 18.20698,-11.57079 q 16.16507,15.31428 31.98983,41.51872 z m -36.2438,11.74095 q -13.10222,-24.50286 -30.45841,-44.9219 l 18.5473,-11.06032 q 17.01587,18.03683 31.3092,43.22031 z"
         style="stroke-width:3.20005"
         id="path1457" />
      <path
         d="M 791.07069,612.64507 H 1014.4891 V 835.72313 H 985.9024 V 814.11297 H 819.65736 v 21.61016 h -28.58667 z m 28.58667,26.54476 V 787.2279 H 985.9024 V 639.18983 Z"
         style="stroke-width:3.20005"
         id="path1459" />
      <path
         d="m 1288.955,616.21841 18.5473,13.61269 q -30.7987,159.4387 -171.8603,226.82155 l -20.2488,-22.29079 q 64.3199,-26.71492 106.6895,-78.44316 40.4977,-49.34602 53.6,-114.68696 h -99.2026 q -32.3301,57.17332 -79.4641,96.47998 l -20.5892,-19.05778 q 70.4457,-56.833 101.4146,-147.69775 l 26.8851,7.65714 q -3.4032,11.40064 -15.3143,37.60508 z m 56.833,-8.16762 q -13.1022,-23.4819 -31.6495,-43.05015 l 18.0368,-11.91111 q 17.5264,16.33523 33.181,41.1784 z m -31.9898,17.18603 Q 1300.696,600.56381 1283.51,581.33587 l 17.6965,-11.23047 q 17.6965,17.86666 32.3301,42.53967 z"
         style="stroke-width:3.20005"
         id="path1461" />
      <path
         d="m 1692.9118,618.94095 q -3.5733,177.1352 -14.6337,220.52567 -4.0838,16.84571 -16.6755,22.63111 -9.3587,3.91365 -26.8851,3.91365 -23.3117,0 -44.2412,-2.38222 l -4.9347,-26.54476 q 26.715,4.25397 48.155,4.25397 15.8247,0 19.9085,-9.69905 10.72,-25.69396 13.953,-174.41267 l 0.3404,-15.31428 h -88.6527 q -15.6546,37.43491 -39.3067,66.19173 l -16.6755,-19.22793 q 35.9034,-43.73078 53.2596,-126.08759 l 25.1835,6.63618 q -5.7854,26.71492 -13.6127,49.51619 z m -250.9841,-5.61524 4.254,-12.59174 q 5.7854,-18.03683 9.3587,-39.9873 l 26.5448,3.74349 q -9.8692,33.52127 -16.3353,48.83555 h 54.621 v 211.16694 h -94.4381 v 24.84317 h -23.9924 V 613.32571 Z m -15.9949,21.61015 v 70.44571 h 70.4457 v -70.44571 z m 0,91.37523 v 76.57141 h 70.4457 v -76.57141 z m 183.0907,47.98475 q -22.2907,-42.53968 -46.4533,-70.27554 l 17.8667,-13.95302 q 28.0762,31.3092 48.6654,68.91428 z"
         style="stroke-width:3.20005"
         id="path1463" />
      <path
         d="m 1922.2857,672.88125 h 25.3536 l 2.5524,102.09522 q 1.5314,0.51048 5.2749,2.04191 1.5315,0.51047 8.3378,3.23301 31.3092,11.91111 66.8724,31.3092 l -15.3143,22.29079 q -31.8197,-19.90856 -64.1498,-33.86158 l -0.3404,4.9346 q 0,26.71492 -8.3377,37.60508 -10.8902,13.95301 -43.5607,13.95301 -35.0527,0 -56.4926,-17.6965 -14.2934,-12.25143 -14.2934,-29.77778 0,-19.22793 17.6965,-32.33015 19.228,-13.27238 47.8146,-13.27238 12.5918,0 30.6286,3.91365 z m 2.3822,117.74982 q -18.8876,-5.27492 -33.1809,-5.27492 -15.1442,0 -25.3537,5.61524 -12.932,6.63619 -12.932,17.69651 0,10.03936 12.5917,17.86666 12.2514,6.97651 30.6286,6.97651 29.0971,0 28.5866,-25.69397 z M 1751.4463,630.51174 q 17.0159,1.02095 29.2673,1.02095 20.7594,0 36.2438,-1.53143 7.9975,-24.16253 16.1651,-64.6603 l 26.7149,4.0838 q -5.445,26.71492 -14.6336,57.85396 24.673,-2.38222 56.833,-10.03936 l 1.021,25.01333 q -35.9035,7.48698 -65.5111,9.8692 -28.4166,81.84634 -72.4877,147.01712 l -23.9923,-15.31428 q 39.3066,-51.72825 68.2336,-129.32062 -23.9924,1.02096 -41.6889,1.02096 -7.3168,0 -14.6336,-0.34032 z m 258.301,63.63935 q -29.2673,-32.33015 -69.4248,-59.55554 l 17.8667,-18.37714 q 40.6679,25.18348 71.1263,57.85395 z"
         style="stroke-width:3.20005"
         id="path1465" />
      <path
         d="m 2351.4259,612.98539 v 223.07806 q 0,16.50539 -9.8692,22.6311 -7.8273,5.27492 -27.2254,5.27492 -28.5867,0 -49.5162,-2.55238 l -3.7435,-27.39555 q 27.2254,4.08381 49.8565,4.08381 14.6337,0 14.6337,-15.6546 V 612.98539 h -165.2241 v -22.63111 h 218.1434 v 22.63111 z m -211.8476,23.99238 v 231.75615 h -25.5238 V 689.21649 q -15.8248,27.90603 -35.2228,53.77015 L 2064.198,721.7168 q 51.2178,-66.87237 72.8279,-159.60886 l 25.8642,6.29587 q -11.0604,39.30666 -23.3118,68.57396 z m 144.8051,23.4819 v 122.68442 h -78.7835 v 27.05523 h -23.3118 V 660.45967 Z m -78.7835,21.26984 v 80.14474 h 55.4717 v -80.14474 z"
         style="stroke-width:3.20005"
         id="path1467" />
      <path
         d="m 2427.6571,660.11935 q 42.1993,-6.46603 79.1238,-10.89016 10.8901,-41.1784 15.3143,-75.55046 l 27.5657,5.10476 q -7.6572,39.64698 -15.3143,68.06348 l 5.4451,-0.34031 q 9.5289,-0.34032 17.5263,-0.34032 56.1524,0 56.1524,69.25459 0,67.553 -20.2489,108.05077 -12.0813,23.99238 -37.9454,23.99238 -22.4609,0 -48.4952,-15.6546 l 1.3612,-29.60762 q 26.8851,18.03683 42.88,18.03683 13.2724,0 20.2489,-14.29333 14.6337,-31.98984 14.6337,-91.54538 0,-45.26222 -29.948,-45.26222 -10.0393,0 -28.2463,1.36127 -5.9556,23.4819 -20.9295,62.44824 -26.0343,68.06348 -54.1105,113.49586 l -23.9924,-15.31429 q 36.9245,-54.11046 64.4902,-136.63743 1.3613,-3.40318 6.9765,-20.41905 -21.6102,2.38223 -66.5321,11.40064 z m 271.4031,88.82284 q -31.139,-69.25459 -76.5714,-117.74982 l 21.9505,-14.63365 q 46.4533,49.51619 78.4431,113.83617 z"
         style="stroke-width:3.20005"
         id="path1469" />
    </g>
    <text
       xml:space="preserve"
       style="font-weight:bold;font-size:32.1775px;line-height:1.25;font-family:'Yu Gothic';-inkscape-font-specification:'Yu Gothic, Bold';writing-mode:tb-rl;fill:#a9a9a9;fill-opacity:1;stroke-width:0.804441"
       x="70.85704"
       y="107.11697"
       id="text4184"><tspan
         sodipodi:role="line"
         id="tspan4182"
         style="writing-mode:lr-tb;fill:#a9a9a9;fill-opacity:1;stroke-width:0.804441"
         x="70.85704"
         y="107.11697">Old</tspan></text>
    <text
       xml:space="preserve"
       style="font-weight:bold;font-size:32.1775px;line-height:1.25;font-family:'Yu Gothic';-inkscape-font-specification:'Yu Gothic, Bold';writing-mode:tb-rl;fill:#a9a9a9;fill-opacity:1;stroke-width:0.804441"
       x="51.62595"
       y="228.14291"
       id="text4184-7"><tspan
         sodipodi:role="line"
         id="tspan4182-0"
         style="writing-mode:lr-tb;fill:#a9a9a9;fill-opacity:1;stroke-width:0.804441"
         x="51.62595"
         y="228.14291">New</tspan></text>
    <path
       style="fill:none;stroke:#a9a9a9;stroke-width:1.24543;stroke-linecap:butt;stroke-linejoin:miter;stroke-miterlimit:4;stroke-dasharray:none;stroke-opacity:1"
       d="M 161.39583,43.215283 V 242.53472"
       id="path10114" />
  </g>
</svg>
