<?xml version="1.0" encoding="UTF-8" standalone="no"?>
<!-- Created with Inkscape (http://www.inkscape.org/) -->

<svg
   width="1920"
   height="1080"
   viewBox="0 0 508 285.75"
   version="1.1"
   id="svg5"
   inkscape:version="1.1 (c68e22c387, 2021-05-23)"
   sodipodi:docname="old_and_new_favicon.svg"
   xmlns:inkscape="http://www.inkscape.org/namespaces/inkscape"
   xmlns:sodipodi="http://sodipodi.sourceforge.net/DTD/sodipodi-0.dtd"
   xmlns="http://www.w3.org/2000/svg"
   xmlns:svg="http://www.w3.org/2000/svg">
  <sodipodi:namedview
     id="namedview7"
     pagecolor="#505050"
     bordercolor="#eeeeee"
     borderopacity="1"
     inkscape:pageshadow="0"
     inkscape:pageopacity="0"
     inkscape:pagecheckerboard="true"
     inkscape:document-units="px"
     showgrid="false"
     inkscape:zoom="0.3"
     inkscape:cx="920"
     inkscape:cy="533.33333"
     inkscape:window-width="1368"
     inkscape:window-height="850"
     inkscape:window-x="-6"
     inkscape:window-y="-6"
     inkscape:window-maximized="1"
     inkscape:current-layer="layer1"
     showguides="true"
     inkscape:guide-bbox="true" />
  <defs
     id="defs2" />
  <g
     inkscape:label="レイヤー 1"
     inkscape:groupmode="layer"
     id="layer1">
    <rect
       style="font-variation-settings:'wght' 600;fill:#ffffff;fill-opacity:1;stroke-width:0.665954;stroke-linecap:round;stroke-linejoin:round;paint-order:stroke fill markers"
       id="rect960"
       width="508"
       height="285.75"
       x="0"
       y="0"
       ry="0.40705109" />
    <text
       xml:space="preserve"
       style="font-weight:bold;font-size:32.1775px;line-height:1.25;font-family:'Yu Gothic';-inkscape-font-specification:'Yu Gothic, Bold';writing-mode:tb-rl;fill:#a9a9a9;fill-opacity:1;stroke-width:0.804441"
       x="111.86526"
       y="210.59843"
       id="text4184"><tspan
         sodipodi:role="line"
         id="tspan4182"
         style="writing-mode:lr-tb;fill:#a9a9a9;fill-opacity:1;stroke-width:0.804441"
         x="111.86526"
         y="210.59843">Old</tspan></text>
    <text
       xml:space="preserve"
       style="font-weight:bold;font-size:32.1775px;line-height:1.25;font-family:'Yu Gothic';-inkscape-font-specification:'Yu Gothic, Bold';writing-mode:tb-rl;fill:#a9a9a9;fill-opacity:1;stroke-width:0.804441"
       x="332.62787"
       y="210.21925"
       id="text4184-7"><tspan
         sodipodi:role="line"
         id="tspan4182-0"
         style="writing-mode:lr-tb;fill:#a9a9a9;fill-opacity:1;stroke-width:0.804441"
         x="332.62787"
         y="210.21925">New</tspan></text>
    <path
       style="fill:none;stroke:#a9a9a9;stroke-width:1.24543;stroke-linecap:butt;stroke-linejoin:miter;stroke-miterlimit:4;stroke-dasharray:none;stroke-opacity:1"
       d="M 253.71704,43.21528 V 242.53472"
       id="path10114" />
    <path
       d="m 136.53641,74.61057 c -0.008,0.0166 -0.39981,0.05 -0.85793,0.0833 -0.89957,0.0583 -1.52428,0.116609 -1.91576,0.18325 -0.13327,0.025 -0.43313,0.0583 -0.66635,0.0833 -0.69967,0.075 -2.85698,0.52474 -3.97312,0.824601 -2.39054,0.64969 -4.92267,1.66588 -6.81344,2.748699 -0.29986,0.174921 -0.708,0.408141 -0.91624,0.52475 -2.09067,1.18278 -5.28083,3.83985 -7.01334,5.84724 -0.21656,0.249881 -0.49144,0.5664 -0.60805,0.708 -1.17444,1.34936 -2.7487,3.66493 -3.72324,5.45575 -0.41647,0.75797 -1.06616,1.99905 -1.05783,2.02404 0,0.008 -0.11661,0.27487 -0.25821,0.59972 -0.48311,1.05783 -1.09115,2.64041 -1.49929,3.864829 -0.35817,1.07449 -1.00786,3.423381 -1.11614,4.006441 -0.0166,0.11661 -0.10828,0.58306 -0.20824,1.04117 -0.18324,0.92457 -0.46644,2.69873 -0.54973,3.54 -0.0333,0.29986 -0.075,0.63303 -0.0916,0.74964 -0.21656,1.62423 -0.20823,7.1966 0.008,8.62092 0.025,0.13327 0.0583,0.46645 0.0833,0.72466 0.0333,0.40814 0.23322,1.82414 0.32484,2.35722 0.16659,0.94122 0.34151,1.79082 0.48311,2.37387 0.0916,0.39149 0.17491,0.77464 0.19157,0.8496 0.13327,0.6497 0.87459,3.07355 1.18278,3.89816 1.68253,4.45623 3.52333,7.69636 6.17208,10.86986 0.89124,1.06616 2.807,2.96526 3.93147,3.8815 1.23275,1.01618 2.03237,1.59091 3.64827,2.59044 1.44099,0.89124 3.96479,2.04903 5.88888,2.69039 0.84127,0.2832 3.07355,0.88292 3.66493,0.9912 1.90744,0.33318 2.28226,0.39148 3.66494,0.54974 0.64969,0.075 7.47146,0.05 7.99621,-0.0333 0.18325,-0.025 0.44979,-0.0666 0.58306,-0.0916 0.1416,-0.025 0.41647,-0.0666 0.6247,-0.0916 1.71586,-0.21656 5.61401,-1.24108 6.78846,-1.78249 0.0916,-0.0416 0.50809,-0.20823 0.91623,-0.37482 0.73299,-0.29986 2.29892,-1.06616 3.20682,-1.56593 1.30772,-0.71633 3.68159,-2.39053 4.91434,-3.4567 0.76631,-0.66635 2.84032,-2.74869 3.27345,-3.28178 0.17492,-0.21656 0.35816,-0.44145 0.41647,-0.49976 0.25821,-0.27487 1.26607,-1.6159 1.82414,-2.44884 1.16611,-1.71586 2.4655,-4.07308 3.09853,-5.61401 0.12494,-0.29986 0.27487,-0.65803 0.34151,-0.7913 0.85792,-1.93241 1.88244,-5.56403 2.33223,-8.28774 0.1999,-1.17444 0.1999,-1.17444 0.24988,-1.66588 0.0333,-0.24988 0.0833,-0.69967 0.12494,-0.99953 0.0833,-0.59138 0.0583,-9.90364 -0.0166,-10.24515 -0.0333,-0.11661 -0.075,-0.43312 -0.10828,-0.70799 -0.025,-0.27487 -0.0916,-0.74132 -0.13327,-1.04118 -0.0499,-0.29986 -0.0999,-0.67468 -0.12494,-0.83294 -0.0167,-0.15826 -0.13327,-0.75797 -0.24988,-1.3327 -0.11661,-0.57473 -0.2249,-1.1328 -0.24989,-1.24941 -0.18324,-0.924561 -0.87458,-3.39006 -1.20776,-4.3063 -0.80794,-2.2406 -1.74083,-4.381249 -2.40718,-5.52238 -0.12494,-0.20824 -0.3665,-0.63303 -0.54141,-0.95788 -0.45812,-0.832939 -1.3577,-2.19896 -2.14066,-3.248459 -1.35769,-1.80748 -3.59829,-4.131381 -5.31415,-5.50573 -1.11613,-0.89125 -1.81581,-1.374351 -3.3734,-2.34056 -1.63229,-1.00786 -3.83958,-2.01572 -5.9969,-2.73205 -1.15778,-0.39148 -3.16517,-0.94122 -3.66493,-1.007851 -0.0916,-0.008 -0.59971,-0.0916 -1.12447,-0.19157 -1.16611,-0.19991 -1.36602,-0.23323 -2.16564,-0.299859 -0.3415,-0.0333 -0.71633,-0.075 -0.83294,-0.0999 -0.22489,-0.0417 -4.96431,-0.108279 -5.01429,-0.075 z m 3.88983,7.23824 c 0.78296,0.0916 1.29105,0.16658 1.87411,0.283191 0.3415,0.0666 0.708,0.141599 0.80795,0.15826 0.1,0.0166 0.63303,0.16659 1.17444,0.316519 4.3063,1.24108 8.3294,3.956461 11.20304,7.54643 0.31652,0.391481 0.61637,0.766311 0.67468,0.84127 0.24155,0.29986 1.21609,1.82414 1.64922,2.57378 0.88291,1.55759 1.74084,3.48168 2.33223,5.289159 0.34151,1.03285 0.94122,3.415051 1.09948,4.372941 0.075,0.43312 0.14992,0.88291 0.17491,0.99952 0.0417,0.24988 0.10828,0.73299 0.16659,1.24941 0.025,0.20824 0.0666,0.53308 0.0833,0.72466 0.25821,2.11567 0.29153,5.43076 0.0833,8.22944 -0.0666,0.88291 -0.29986,2.83199 -0.41647,3.45669 -0.025,0.11661 -0.0583,0.34151 -0.0833,0.49977 -0.41647,2.59877 -1.44932,5.96384 -2.5488,8.28774 -0.91623,1.94908 -2.27392,4.09807 -3.53166,5.61401 -0.41647,0.5081 -2.22395,2.29892 -2.79035,2.75704 -3.12352,2.58211 -7.38817,4.44789 -10.95315,4.7894 -1.71585,0.15825 -4.9893,0.22489 -5.70563,0.10828 -0.20823,-0.0333 -0.50809,-0.0833 -0.66635,-0.10828 -5.37246,-0.89958 -10.30346,-3.64828 -13.67687,-7.6214 -2.61542,-3.0902 -4.51452,-6.98836 -5.60567,-11.49456 -0.0833,-0.33318 -0.39981,-1.90743 -0.4248,-2.124 -0.0166,-0.1416 -0.0666,-0.44146 -0.11661,-0.66635 -0.0417,-0.23322 -0.1,-0.60804 -0.12494,-0.84127 -0.025,-0.23322 -0.0583,-0.49143 -0.075,-0.58306 -0.0166,-0.0916 -0.0583,-0.49976 -0.0916,-0.91623 -0.0333,-0.40813 -0.0833,-0.77463 -0.10828,-0.81627 -0.1,-0.16659 -0.075,-6.02216 0.025,-7.17161 0.16659,-1.83247 0.20823,-2.21562 0.29153,-2.70706 0.0417,-0.24988 0.1,-0.59138 0.12494,-0.74964 0.40814,-2.61543 1.23275,-5.522392 2.20729,-7.787981 0.43313,-1.016189 1.31604,-2.75703 1.72418,-3.39839 0.12494,-0.19158 0.34984,-0.55807 0.5081,-0.80795 1.46597,-2.3239 3.47335,-4.43957 6.05546,-6.39698 1.03284,-0.78296 3.52333,-2.09901 4.96432,-2.63209 0.74132,-0.27487 2.05736,-0.68301 2.44884,-0.7663 0.0916,-0.0166 0.2832,-0.0583 0.41647,-0.0916 0.1416,-0.0333 0.26654,-0.0583 0.29153,-0.0666 0.025,-0.008 0.32485,-0.0583 0.66635,-0.11661 0.3415,-0.0583 0.71633,-0.12494 0.83294,-0.1416 0.11661,-0.0166 0.49143,-0.0583 0.83294,-0.0833 0.3415,-0.0333 0.64136,-0.0666 0.65802,-0.0833 0.0417,-0.0333 3.13185,0.0333 3.54832,0.075 z"
       id="path10498"
       style="fill:#ff6a00;fill-opacity:1;stroke:none;stroke-width:0.0083294" />
    <g
       transform="matrix(5.0234371,0,0,5.0234371,334.72175,81.951786)"
       stroke-linecap="round"
       stroke-linejoin="round"
       stroke-width="0.35043"
       id="g12242">
      <path
         d="M 3.1671,0.43705 A 0.17523,0.17523 0 0 0 3.15876,0.44729 C 3.16142,0.444392 3.16422,0.440528 3.1671,0.43705 Z M 3.151232,0.458302 A 0.17523,0.17523 0 0 0 3.138782,0.48139 C 3.142302,0.473662 3.146602,0.46574 3.151232,0.458302 Z M 3.137403,0.484095 a 0.17523,0.17523 0 0 0 -0.013824,0.06878 v 10.384 a 0.17523,0.17523 0 0 0 0.17535,0.17535 h 1.5858 a 0.17523,0.17523 0 0 0 0.16208,-0.10869 c -0.026601,0.06299 -0.088872,0.1071 -0.16153,0.10704 h -1.5858 c -0.096872,6.7e-5 -0.17542,-0.07844 -0.17535,-0.17535 v -10.384 C 3.1240943,0.527461 3.128839,0.50476 3.137401,0.48399 Z m 1.9094,10.52 a 0.17523,0.17523 0 0 0 0.00917,-0.02956 c -0.00238,0.01014 -0.0052,0.02019 -0.00917,0.02956 z m 0.013827,-8.9811 v 9.66e-4 h 1.4605 c 0.57579,0 1.0133,0.13801 1.337,0.40149 0.31458,0.25604 0.47692,0.64532 0.47692,1.2235 0,0.2165 -0.023311,0.4071 -0.06954,0.57478 0.046526,-0.16809 0.070087,-0.35917 0.070087,-0.57643 0,-0.57817 -0.16234,-0.96744 -0.47691,-1.2235 -0.3237,-0.26347 -0.76119,-0.40149 -1.337,-0.40149 z m 5.0444,2.8471 c -0.04853,0.12563 -0.10521,0.24581 -0.17029,0.36043 l -5.231e-4,9.66e-4 c 0.06536,-0.11511 0.1221601,-0.23585 0.1708401,-0.36207 z m -0.17084,0.36207 c -0.24609,0.44756 -0.55516,0.79473 -0.92714,1.0306 -0.27964,0.17734 -0.56193,0.28159 -0.84487,0.34509 -0.80975,0.146 -0.89396,0.14056 -1.9706,0.18576 h -1.131 v 9.661e-4 h 1.1304 l 2.3163,4.2263999 a 0.17523,0.17523 0 0 0 0.15359,0.091 h 1.7876 a 0.17523,0.17523 0 0 0 0.15208,-0.26282 L 8.16165,6.6092611 c 0.28294,-0.063467 0.56523,-0.16776 0.84487,-0.34509 0.37199,-0.2359 0.68105,-0.58307 0.92714,-1.0306 z m -4.8743,5.7104 c -2.65e-4,0.0087 -0.00104,0.01661 -0.00238,0.02444 a 0.17523,0.17523 0 0 0 0.00238,-0.02444 z"
         color="#000000"
         fill="#e49090"
         style="-inkscape-stroke:none"
         id="path12232" />
      <path
         d="m 5.0607,2.0227 v 9.66e-4 h 1.4605 c 0.57579,0 1.0133,0.13801 1.337,0.4015 0.10751,0.087521 0.19675,0.19097 0.2683,0.31182 8.084e-4,4.734e-4 0.00152,9.564e-4 0.00233,9.66e-4 -0.071845,-0.1222 -0.16165,-0.22672 -0.27008,-0.31498 -0.3237,-0.26348 -0.76119,-0.4015 -1.337,-0.4015 z m 4.9655,3.0315 C 9.99783,5.114286 9.967438,5.17292 9.934897,5.23024 l -5.708e-4,9.66e-4 c 0.03282,-0.057768 0.063293,-0.11706 0.091851,-0.17769 z M 9.934348,5.23188 c -0.24609,0.44756 -0.55515,0.79473 -0.92714,1.0306 -0.27964,0.17734 -0.56193,0.28159 -0.84487,0.34509 -0.80975,0.146 -0.89395,0.14056 -1.9706,0.18576 h -1.131 v 9.66e-4 h 1.1304 l 0.23052,0.42053 h 0.19 c 0.99673,-0.041828 1.1498,-0.041828 1.8084,-0.15715 l -0.25831,-0.44913 c 0.28294,-0.063467 0.56523,-0.16775 0.84487,-0.34509 0.37199,-0.23589 0.68105,-0.58306 0.92714,-1.0306 z m -4.8743,5.7104 c -2.805e-4,0.0087 -0.00114,0.01661 -0.00247,0.02444 a 0.17523,0.17523 0 0 0 0.00247,-0.02444 z m -0.00395,0.03188 c -0.00238,0.01014 -0.00521,0.02019 -0.00917,0.02956 a 0.17523,0.17523 0 0 0 0.00917,-0.02956 z m -0.01,0.0314 c -0.027024,0.06202 -0.088747,0.10532 -0.16071,0.10526 h -1.3412 v 9.66e-4 h 1.3407 a 0.17523,0.17523 0 0 0 0.16125,-0.10691 z"
         color="#000000"
         fill="#bf7171"
         style="-inkscape-stroke:none"
         id="path12234" />
      <path
         d="M 3.2989,0.3775 C 3.202028,0.37743238 3.12348,0.455941 3.12355,0.55285 v 10.384 c -6.9e-5,0.09689 0.07848,0.17542 0.17535,0.17536 h 1.5858 c 0.096874,5.8e-5 0.17542,-0.07844 0.17535,-0.17536 0,-6.4412 -2.42e-5,-5.9942 0,-6.7054 2.4e-6,-0.068297 -2.9e-6,-0.5558 0,-0.64433 -8.1e-6,-0.42367 0,-0.11959 0,-3.0345 C 5.0601161,0.455738 4.98157,0.3772 4.8847,0.37727 Z"
         color="#000000"
         fill="#ffa4a4"
         style="-inkscape-stroke:none"
         id="path12236" />
      <path
         d="m 4.8864,0.37423 c 0.09662,2.3185e-4 0.17487,0.078634 0.17481,0.17535 v 1.4715 h 1.461 c 0.57579,0 1.0133,0.13802 1.337,0.4015 0.31458,0.25605 0.47692,0.64534 0.47692,1.2235 0,0.57738 -0.16562,0.97062 -0.48992,1.236 -0.32367,0.2633 -0.76071,0.40108 -1.3363,0.40108 h -1.4487 c -2.8e-6,0.12284 0,1.2833 0,1.5086 h 1.131 C 7.26891,6.74655 7.35311,6.75196 8.16281,6.60599 8.44575,6.542523 8.72804,6.43823 9.00768,6.2609 9.37966,6.025 9.68873,5.67783 9.93482,5.2303 l 5.23e-4,-9.66e-4 c 0.26033,-0.45847 0.38753,-1.0063 0.38753,-1.6333 0,-0.65418 -0.14542,-1.2295 -0.44037,-1.713 -0.28366,-0.48687 -0.67454,-0.86478 -1.1635,-1.1226 -0.48827,-0.25746 -1.0391,-0.38549 -1.6427,-0.38549 z"
         color="#000000"
         fill="#f79797"
         style="-inkscape-stroke:none"
         id="path12238" />
      <path
         d="m 4.8859,0.37747 c 0.09662,2.1252e-4 0.17487,0.078634 0.17481,0.17535 v 1.4715 h 0.41997 c 1.4e-6,-0.34966 0,-0.057961 0,-1.4715 C 5.4807466,0.455938 5.402202,0.3774 5.30533,0.37747 Z m 0.17481,4.9089 c -1.5e-6,0.12283 1e-6,1.2833 0,1.5086 h 0.41997 c 0,-0.22534 -2e-6,-1.3858 0,-1.5086 z"
         color="#000000"
         fill="#d47d7d"
         style="-inkscape-stroke:none"
         id="path12240" />
    </g>
  </g>
</svg>
